<?xml version="1.0" standalone="no"?>
<!DOCTYPE svg PUBLIC "-//W3C//DTD SVG 1.1//EN" "http://www.w3.org/Graphics/SVG/1.1/DTD/svg11.dtd" >
<svg xmlns="http://www.w3.org/2000/svg" xmlns:xlink="http://www.w3.org/1999/xlink" version="1.1">
<metadata>
Created by FontForge 20170731 at Fri Jan  1 02:30:17 1904
 By Aleksey,,,
 
</metadata>
<defs>
<font id="Courier" horiz-adv-x="600" >
  <font-face 
    font-family="Courier"
    font-weight="400"
    font-stretch="normal"
    units-per-em="1000"
    panose-1="0 0 0 0 0 0 0 0 0 0"
    ascent="800"
    descent="-200"
    x-height="426"
    cap-height="562"
    bbox="-12 -157 600 709"
    underline-thickness="50"
    underline-position="-155"
    unicode-range="U+0020-F002"
  />
<missing-glyph 
 />
    <glyph glyph-name=".notdef" 
 />
    <glyph glyph-name="glyph1" horiz-adv-x="0" 
 />
    <glyph glyph-name="glyph2" 
 />
    <glyph glyph-name="space" unicode=" " 
 />
    <glyph glyph-name="space" unicode="&#xa0;" 
 />
    <glyph glyph-name="exclam" unicode="!" 
d="M236 40v2.5v2.5q2 19 18.5 35t45.5 16t45.5 -16t18.5 -35v-2.5v-2.5q0 -3 -0.5 -5.5t-0.5 -5.5q-4 -16 -20 -29.5t-43 -13.5t-43 13.5t-20 29.5q0 3 -0.5 5.5t-0.5 5.5v0zM265 572h70l-18 -373h-34l-18 373v0z" />
    <glyph glyph-name="quotedbl" unicode="&#x22;" 
d="M187 562h82l-16 -234h-50l-16 234v0zM331 562h82l-16 -234h-50l-16 234v0z" />
    <glyph glyph-name="numbersign" unicode="#" 
d="M375 -32h-34l13 229h-121l-13 -229h-34l13 229h-99v34h101l8 146h-109v34h110l13 228h34l-13 -228h121l13 228h34l-13 -228h101v-34h-102l-8 -146h110v-34h-112l-13 -229v0zM243 377l-8 -146h121l8 146h-121v0z" />
    <glyph glyph-name="dollar" unicode="$" 
d="M280 662h34v-110q18 -2 30.5 -5t22.5 -7q4 -1 8.5 -2.5t8.5 -3.5q12 -4 18 -6.5t10 -2.5q9 0 16 10.5t10 22.5q1 3 1.5 5t0.5 4l30 -5q-9 -25 -12 -42t-3 -31v-8t1 -8q1 -7 2.5 -15.5t4.5 -22.5l-31 -6q-1 7 -3.5 16t-7.5 18q-11 21 -39 38t-85 17q-67 0 -103.5 -30.5
t-36.5 -74.5q0 -59 48 -81.5t108 -37.5q11 -3 21.5 -5.5t21.5 -6.5q50 -14 91.5 -42t41.5 -91q0 -62 -53.5 -97t-121.5 -39v-139h-34v139q-6 1 -12 1.5t-11 1.5q-59 7 -74 13t-22 7h-0.5h-1.5q-2 0 -4 -1t-4 -3q-4 -4 -7.5 -10.5t-5.5 -14.5l-26 8q6 19 7.5 31t1.5 23v2v2
q0 14 -1.5 30.5t-7.5 41.5l28 6q6 -45 30 -66.5t52 -29.5q19 -6 37 -7t30 -1q69 0 102.5 18.5t46.5 41.5q6 11 8.5 22.5t2.5 19.5q0 56 -46.5 77t-101.5 35q-2 0 -3.5 0.5t-2.5 0.5q-7 2 -14 3.5t-14 3.5q-56 15 -103 42.5t-47 96.5q0 53 42 98t121 46v110v0z" />
    <glyph glyph-name="percent" unicode="%" 
d="M499 114q0 -51 -38.5 -89.5t-98.5 -38.5q-61 0 -99.5 38.5t-38.5 89.5t38.5 90t99.5 39q60 0 98.5 -39t38.5 -90v0zM459 114q0 39 -27 67t-70 28q-44 0 -71 -28.5t-27 -66.5q0 -37 27 -66t71 -29q43 0 70 28t27 67v0zM500 413l15 -34l-404 -178l-14 34l403 178v0z
M375 493q0 -50 -38.5 -89.5t-98.5 -39.5t-99 39.5t-39 89.5q0 51 38.5 90t99.5 39q60 0 98.5 -39t38.5 -90v0zM335 493q0 39 -27 67t-70 28q-44 0 -71 -28.5t-27 -66.5q0 -37 27 -66t71 -29q43 0 70 28t27 67v0z" />
    <glyph glyph-name="ampersand" unicode="&#x26;" 
d="M414 267h101v-34h-77q-16 -51 -31.5 -84t-30.5 -58l40 -57h115v-34h-133l-43 61q-1 -1 -2 -2.5t-2 -2.5q-22 -27 -56.5 -48.5t-79.5 -21.5h-1.5h-1.5q-53 1 -97.5 37.5t-44.5 103.5q0 10 1.5 20t3.5 20q10 38 40 73t83 52q-3 3 -6 7t-5 7q-13 17 -24.5 36t-18.5 39
q-5 13 -8 25.5t-3 24.5q0 47 36.5 79.5t88.5 32.5q36 0 68.5 -14t56.5 -31q2 -1 3.5 -2.5t3.5 -2.5l-22 -28q-3 3 -7 6t-9 5q-18 13 -42 23t-52 10q-37 0 -58.5 -20t-25.5 -43q0 -3 -0.5 -6t-0.5 -6q0 -22 11.5 -48.5t27.5 -53.5q5 -8 10.5 -16t10.5 -16l122 -179
q6 11 11 22t11 23q9 20 18 44.5t19 56.5v0zM335 90l-120 175q-48 -19 -76.5 -55t-28.5 -80q0 -45 28 -78t77 -33q36 0 68 19t52 52v0z" />
    <glyph glyph-name="quotesingle" unicode="'" 
d="M259 562h82l-16 -234h-50l-16 234v0z" />
    <glyph glyph-name="parenleft" unicode="(" 
d="M397 622h36q-29 -50 -52.5 -106t-37.5 -114q-10 -37 -15 -73.5t-5 -71.5t5 -71.5t15 -73.5q14 -58 37.5 -113.5t52.5 -105.5l-36 -1q-30 47 -54.5 99.5t-40.5 106.5q-13 41 -19.5 81.5t-6.5 77.5t6.5 76t17.5 79q16 55 41 109t56 101v0z" />
    <glyph glyph-name="parenright" unicode=")" 
d="M203 -108h-36q29 51 52.5 106.5t37.5 113.5q10 37 15 73.5t5 71.5t-5 71.5t-15 73.5q-14 58 -37.5 114t-52.5 106h36q31 -47 56 -101t41 -109q11 -40 17.5 -79t6.5 -76t-6.5 -77.5t-19.5 -81.5q-16 -54 -40.5 -106.5t-54.5 -98.5v-1z" />
    <glyph glyph-name="asterisk" unicode="*" 
d="M116 452l17 52l147 -54l-7 157h54l-7 -157l147 54l17 -52l-151 -41l97 -122l-43 -32l-87 130l-87 -130l-43 32l97 122l-151 41v0z" />
    <glyph glyph-name="plus" unicode="+" 
d="M281 524h37v-194h195v-37h-195v-195h-37v195h-194v37h194v194v0z" />
    <glyph glyph-name="comma" unicode="," 
d="M287 100h89l-105 -234h-58l74 234v0z" />
    <glyph glyph-name="hyphen" unicode="-" 
d="M110 278h380v-40h-380v40v0z" />
    <glyph glyph-name="period" unicode="." 
d="M371 47q0 -4 -0.5 -8t-1.5 -8q-6 -17 -23 -31t-46 -14t-46 14t-23 31q-1 4 -1.5 8t-0.5 8t0.5 8t1.5 8q6 17 23 31.5t46 14.5t46 -14.5t23 -31.5q1 -4 1.5 -8t0.5 -8v0z" />
    <glyph glyph-name="slash" unicode="/" 
d="M444 629l31 -14l-319 -695l-31 14l319 695v0z" />
    <glyph glyph-name="zero" unicode="0" 
d="M113 305q0 164 49 240.5t138 76.5t138 -76.5t49 -240.5q0 -165 -48 -242t-139 -77t-139 77t-48 242v0zM153 305q0 -125 26 -185t58 -81q18 -13 34.5 -16.5t28.5 -3.5q4 0 8.5 0.5t9.5 0.5q48 7 88.5 67t40.5 218q0 112 -29 197.5t-118 85.5q-88 0 -117.5 -85.5
t-29.5 -197.5v0z" />
    <glyph glyph-name="one" unicode="1" 
d="M498 0h-393v34h178v545l-168 -75l-13 31l194 87h24v-588h178v-34v0z" />
    <glyph glyph-name="two" unicode="2" 
d="M462 0h-385v43l288 266q12 11 20.5 22t15.5 22q14 25 18.5 48t4.5 42q0 55 -27.5 86.5t-60.5 45.5q-16 7 -32.5 10t-28.5 3t-25.5 -2.5t-28.5 -6.5q-32 -11 -59 -35t-27 -65h-37v56q18 23 40 39.5t44 26.5q25 11 49.5 16t43.5 5h6.5h7.5q65 -5 120 -53t55 -130
q0 -40 -13 -70t-29 -51q-8 -9 -15 -17t-13 -13l-275 -254h309v101h34v-135v0z" />
    <glyph glyph-name="three" unicode="3" 
d="M235 306v34h2.5h2.5h2.5h2.5q59 0 100.5 35t41.5 93q0 53 -35.5 86.5t-95.5 33.5q-13 0 -52.5 -8t-91.5 -49l-18 29q7 5 15 10.5t18 10.5q26 16 59.5 28.5t69.5 12.5q7 0 14.5 -0.5t15.5 -1.5q53 -8 97 -45t44 -103q0 -43 -22.5 -82t-69.5 -60q61 -18 92.5 -64t31.5 -100
q0 -77 -56 -128.5t-144 -51.5q-47 0 -83 10t-64 22q-5 3 -9.5 5t-8.5 4l-12 6l14 34q24 -14 54.5 -25.5t61.5 -17.5q13 -2 26 -3.5t26 -1.5q68 0 111.5 43t43.5 106q0 57 -39 97.5t-117 40.5h-28v0z" />
    <glyph glyph-name="four" unicode="4" 
d="M493 0h-268v34h138v116h-275v50l250 422h62v-438h93v-34h-93v-116h93v-34v0zM119 184h244v404h-5l-239 -404v0z" />
    <glyph glyph-name="five" unicode="5" 
d="M129 607h331v-34h-294v-226q35 19 62.5 25t53.5 7h6.5h6.5q91 0 135.5 -47.5t55.5 -103.5q2 -11 3 -22t1 -22v-4v-4q-3 -72 -53.5 -131t-155.5 -59q-34 0 -76 7.5t-106 35.5l12 31q1 -1 2.5 -1.5t3.5 -1.5q31 -14 72.5 -26t85.5 -12q89 0 129 45t45 99q1 5 1 10v10
q0 79 -48.5 120.5t-112.5 41.5q-13 0 -25.5 -1.5t-25.5 -4.5q-23 -5 -45 -16t-43 -28l-21 11v301v0z" />
    <glyph glyph-name="six" unicode="6" 
d="M497 622v-34h-8t-8 1h-9h-8q-154 -1 -227.5 -73t-78.5 -246l2 -2q23 43 61.5 68t81.5 29h5.5h5.5q71 0 123.5 -54t52.5 -136q0 -73 -45.5 -131t-119.5 -58q-16 0 -41 4t-51 16q-43 21 -79 73.5t-36 157.5v2.5v3.5q0 20 3 73t24 112q26 73 89.5 133.5t191.5 60.5h71v0z
M160 211q1 -76 43.5 -134t110.5 -58q56 0 96 41t40 112q0 68 -37 113.5t-96 45.5q-49 0 -93.5 -33t-63.5 -87v0z" />
    <glyph glyph-name="seven" unicode="7" 
d="M89 607h387v-39l-196 -568h-43l205 573h-316v-94h-37v128v0z" />
    <glyph glyph-name="eight" unicode="8" 
d="M226 309v2q-50 20 -78 62t-28 88q0 67 52 114t128 47t128 -47t52 -114v-4.5v-5.5q-3 -43 -30.5 -82.5t-75.5 -58.5v-2q46 -15 75.5 -47.5t37.5 -68.5q2 -7 3 -14t1 -14v-1.5v-1.5q-1 -66 -51.5 -120.5t-139.5 -54.5t-139.5 54.5t-51.5 120.5v1.5v1.5q0 7 1 14.5t3 14.5
q9 36 38 68t75 48v0zM149 151q0 -55 44 -93.5t107 -38.5q65 0 108 38.5t43 93.5q0 57 -42.5 97.5t-108.5 40.5q-65 0 -108 -40.5t-43 -97.5v0zM440 460q0 53 -39 90.5t-101 37.5q-61 0 -100.5 -37.5t-39.5 -90.5q0 -55 37.5 -91.5t83.5 -43.5q4 -1 9 -1.5t10 -0.5t10 0.5
t9 1.5q46 7 83.5 43.5t37.5 91.5v0z" />
    <glyph glyph-name="nine" unicode="9" 
d="M103 -15v34h83q107 0 160.5 57t74.5 125q12 39 15.5 75.5t3.5 62.5q-22 -43 -61 -68t-82 -29h-5.5h-5.5q-72 0 -125.5 54t-53.5 136q0 73 46 131.5t122 58.5q17 0 41.5 -4t50.5 -16q43 -20 79.5 -73t36.5 -159q0 -160 -71.5 -272t-237.5 -112l-71 -1v0zM440 396
q-1 76 -43.5 134t-110.5 58q-55 0 -95.5 -41t-40.5 -112q0 -67 37.5 -113t95.5 -46q50 0 94 33t63 87v0z" />
    <glyph glyph-name="colon" unicode=":" 
d="M371 47q0 -4 -0.5 -8t-1.5 -8q-6 -17 -23 -31t-46 -14t-46 14t-23 31q-1 4 -1.5 8t-0.5 8t0.5 8t1.5 8q6 17 23 31.5t46 14.5t46 -14.5t23 -31.5q1 -4 1.5 -8t0.5 -8v0zM371 323q0 -4 -0.5 -8t-1.5 -8q-6 -17 -23 -31.5t-46 -14.5t-46 14.5t-23 31.5q-1 4 -1.5 8t-0.5 8
t0.5 8t1.5 8q6 17 23 31.5t46 14.5t46 -14.5t23 -31.5q1 -4 1.5 -8t0.5 -8v0z" />
    <glyph glyph-name="semicolon" unicode=";" 
d="M255 122h89l-105 -234h-58l74 234v0zM371 323q0 -4 -0.5 -8t-1.5 -8q-6 -17 -23 -31.5t-46 -14.5t-46 14.5t-23 31.5q-1 4 -1.5 8t-0.5 8t0.5 8t1.5 8q6 17 23 31.5t46 14.5t46 -14.5t23 -31.5q1 -4 1.5 -8t0.5 -8v0z" />
    <glyph glyph-name="less" unicode="&#x3c;" 
d="M504 428l15 -32l-399 -183l399 -183l-15 -32l-463 215l463 215v0z" />
    <glyph glyph-name="equal" unicode="=" 
d="M87 236h426v-37h-426v37v0zM87 423h426v-37h-426v37v0z" />
    <glyph glyph-name="greater" unicode="&#x3e;" 
d="M81 396l15 32l463 -215l-463 -215l-15 32l399 183l-399 183v0z" />
    <glyph glyph-name="question" unicode="?" 
d="M217 40v2.5v2.5q2 19 18.5 35t45.5 16t45.5 -16t18.5 -35v-2.5v-2.5q0 -3 -0.5 -5.5t-0.5 -5.5q-4 -16 -19.5 -29.5t-43.5 -13.5t-43.5 13.5t-19.5 29.5q0 3 -0.5 5.5t-0.5 5.5v0zM173 446h-37v92q59 22 95.5 28t61.5 6q89 0 140.5 -47.5t51.5 -112.5q0 -9 -1 -18t-4 -19
q-11 -42 -53 -79t-127 -52v-62h-37v87q68 5 125 44t57 101q0 56 -41 90t-109 34q-34 0 -60.5 -6.5t-45.5 -13.5l-8 -4l-8 -4v-64v0z" />
    <glyph glyph-name="at" unicode="@" 
d="M526 162h-94v45h-2q-14 -19 -32.5 -30.5t-38.5 -17.5q-11 -3 -21 -4.5t-20 -1.5q-50 0 -75 31.5t-27 68.5v3.5v2.5q0 59 61 97t142 37h3.5h3.5h3h3v90q0 46 -33 75.5t-86 29.5q-14 0 -28.5 -2.5t-29.5 -7.5q-51 -18 -92.5 -76.5t-41.5 -180.5q0 -154 37.5 -216.5
t82.5 -77.5q13 -5 26.5 -6.5t25.5 -1.5q13 0 52 8t84 36q3 2 5.5 4t5.5 4l12 -31q-48 -33 -91.5 -43.5t-69.5 -10.5q-11 0 -23 1.5t-24 4.5q-60 14 -110 86t-50 243q0 125 38 187.5t84 87.5q34 18 65 22t46 4q69 0 110.5 -40t41.5 -98v-288h57v-34v0zM432 254v102h-4.5
t-4.5 1h-4.5h-4.5q-65 0 -113 -30t-48 -68q0 -6 1 -12t4 -13q6 -16 20.5 -30t39.5 -14q10 0 21 2t23 6q19 7 37.5 21t32.5 35v0z" />
    <glyph glyph-name="A" unicode="A" 
d="M115 562h208l216 -528h51v-34h-196v34h107l-63 153h-278l-65 -153h110v-34h-195v34h51l205 494h-151v34v0zM426 221l-126 307h-2l-125 -307h253v0z" />
    <glyph glyph-name="B" unicode="B" 
d="M138 528h-88v34h280q101 0 142.5 -42t43.5 -92v-3.5v-2.5q0 -41 -25 -76t-72 -49v-2q59 -9 96 -49t37 -100v-8t-1 -7q-5 -49 -48.5 -90t-140.5 -41h-312v34h88v494v0zM175 34h129h33t35 2q52 4 94.5 27t42.5 88q0 10 -3 24.5t-12 29.5q-15 27 -54.5 49t-117.5 22h-147
v-242v0zM175 528v-218h164q56 0 96.5 31.5t40.5 77.5q0 9 -1.5 19t-5.5 20q-10 26 -42 48t-102 22h-150v0z" />
    <glyph glyph-name="C" unicode="C" 
d="M533 384l-33 -7q-3 84 -59 126.5t-126 42.5q-94 0 -159 -71.5t-65 -186.5q0 -114 61.5 -193t163.5 -79q41 0 77 11.5t62 25.5q21 11 35 21t19 14l23 -30q-35 -26 -76 -44t-83 -26q-14 -2 -27.5 -3.5t-27.5 -1.5q-124 0 -197 88t-73 216q0 137 80 215t186 78q27 0 67 -8
t86 -43q1 0 1.5 -1t2.5 -1q1 -1 3.5 -2t5.5 -1q2 0 3.5 0.5t3.5 1.5q5 3 9 12t4 24v3l32 -7l-1 -5q-6 -31 -7.5 -49.5t-1.5 -31.5q0 -26 2 -45t7 -37l1.5 -3t0.5 -3v0z" />
    <glyph glyph-name="D" unicode="D" 
d="M50 562h289q119 0 173 -83t55 -183v-3.5v-2.5q0 -118 -59.5 -204t-186.5 -86h-271v34h81v494h-81v34v0zM168 528v-494h141q103 0 159 71.5t56 184.5q0 100 -34 150t-75 70q-22 10 -43 14t-37 4h-167v0z" />
    <glyph glyph-name="E" unicode="E" 
d="M60 562h474l4 -173h-33l-10 139h-310v-220h181v74h34v-182h-34v74h-181v-240h319l6 140h33v-174h-483v34h88v494h-88v34v0z" />
    <glyph glyph-name="F" unicode="F" 
d="M60 562h474l4 -173h-33l-10 139h-310v-220h181v74h34v-182h-34v74h-181v-240h133v-34h-258v34h88v494h-88v34v0z" />
    <glyph glyph-name="G" unicode="G" 
d="M329 240h239v-34h-50v-176q-4 -2 -21 -9t-44 -15q-29 -8 -67 -15.5t-78 -7.5q-124 0 -197 87t-73 217q0 137 80 215t186 78q27 0 67 -8t86 -43q1 0 1.5 -1t2.5 -1q1 -1 3.5 -2t5.5 -1q2 0 3.5 0.5t3.5 1.5q5 3 9 12t4 24v3l32 -7l-1 -5q-6 -31 -7.5 -49.5t-1.5 -31.5
q0 -26 2 -45t7 -37l1.5 -3t0.5 -3l-33 -7q-3 84 -59 126.5t-126 42.5q-96 0 -160 -71.5t-64 -186.5q0 -134 67 -203t158 -69q22 0 53.5 4.5t65.5 13.5q14 4 28.5 9t27.5 11v152h-152v34v0z" />
    <glyph glyph-name="H" unicode="H" 
d="M39 562h191v-34h-77v-220h294v220h-77v34h191v-34h-77v-494h77v-34h-191v34h77v240h-294v-240h77v-34h-191v34h77v494h-77v34v0z" />
    <glyph glyph-name="I" unicode="I" 
d="M103 562h394v-34h-178v-494h178v-34h-394v34h179v494h-179v34v0z" />
    <glyph glyph-name="J" unicode="J" 
d="M190 562h369v-34h-130v-348q0 -16 -1.5 -37t-6.5 -43q-10 -44 -45.5 -80.5t-118.5 -36.5q-17 0 -66 8.5t-141 51.5l-9 211h35l7 -129q2 -46 54 -77.5t122 -31.5q90 0 111 51t22 113v6.5v6.5v335h-202v34v0z" />
    <glyph glyph-name="K" unicode="K" 
d="M45 562h213v-34h-88v-277l283 277h-94v34h186v-34h-43l-224 -219q38 -14 67 -39.5t49 -53.5q16 -22 27 -43t18 -36l45 -103h91v-34h-116l-46 111q-4 10 -9 20.5t-11 21.5q-21 39 -55.5 75t-84.5 56l-83 -81v-169h88v-34h-213v34h88v494h-88v34v0z" />
    <glyph glyph-name="L" unicode="L" 
d="M54 562h266v-34h-127v-494h305l14 206h35l-12 -240h-481v34h102v494h-102v34v0z" />
    <glyph glyph-name="M" unicode="M" 
d="M11 562h147l142 -360l142 360h147v-34h-77v-494h77v-34h-217v34h103v494h-6l-159 -386h-20l-159 386h-6v-494h103v-34h-217v34h77v494h-77v34v0z" />
    <glyph glyph-name="N" unicode="N" 
d="M14 562h145l314 -530h2v496h-110v34h221v-34h-74v-541h-53l-321 542h-2v-495h110v-34h-232v34h85v494h-85v34v0z" />
    <glyph glyph-name="O" unicode="O" 
d="M557 281q0 -127 -71.5 -212.5t-185.5 -85.5t-185.5 85.5t-71.5 212.5t71.5 213t185.5 86t185.5 -86t71.5 -213v0zM86 281q0 -106 57.5 -185.5t156.5 -79.5t156.5 79.5t57.5 185.5q0 107 -57.5 186t-156.5 79t-156.5 -79t-57.5 -186v0z" />
    <glyph glyph-name="P" unicode="P" 
d="M86 562h261q96 0 150 -50t54 -121q0 -13 -2 -27t-7 -28q-14 -41 -58 -75.5t-137 -34.5h-138v-192h150v-34h-273v34h86v494h-86v34v0zM209 528v-268h144q68 0 101 24t45 52q7 16 9.5 31t2.5 26q0 58 -42.5 96.5t-107.5 38.5h-152v0z" />
    <glyph glyph-name="Q" unicode="Q" 
d="M43 281q0 127 71.5 213t185.5 86t185.5 -86t71.5 -213q0 -128 -72.5 -213t-175.5 -85h-8t-7 1q-4 0 -8 0.5t-8 0.5q-5 -10 -14.5 -20.5t-29.5 -23.5l2 -3q8 5 19 7.5t28 2.5q23 0 39.5 -4t29.5 -8q6 -3 11.5 -5t9.5 -4l14 -6q13 -4 21.5 -7t16.5 -5q6 -2 11.5 -2.5
t11.5 -0.5h4.5h4.5q17 2 33.5 9t29.5 15l22 -27q-18 -13 -41 -22t-50 -9h-4h-4q-15 1 -30 5t-28 9q-2 1 -5 2t-5 2l-7 2q-8 5 -15.5 8t-14.5 5q-11 5 -23.5 7t-29.5 2q-7 0 -14.5 -0.5t-14.5 -1.5q-20 -3 -41.5 -11.5t-49.5 -25.5l-17 27q20 14 42 34t50 53
q-92 25 -137.5 93.5t-55.5 145.5q-2 14 -3 27t-1 26v0zM86 281q0 -106 57.5 -185.5t156.5 -79.5t156.5 79.5t57.5 185.5q0 107 -57.5 186t-156.5 79t-156.5 -79t-57.5 -186v0z" />
    <glyph glyph-name="R" unicode="R" 
d="M45 562h295q81 0 119.5 -44t38.5 -98q0 -62 -42 -106t-110 -49v-2q38 -26 63 -57t47 -75q8 -14 15.5 -30.5t15.5 -35.5q1 -3 2 -5.5t3 -4.5q0 -1 0.5 -2t0.5 -2l4 -8t5 -9h79v-34h-106q-17 55 -37 95.5t-41 69.5q-30 41 -57.5 63.5t-45.5 33.5h-128v-228h92v-34h-213v34
h84v494h-84v34v0zM166 528v-232h139q71 0 105 27t43 60q3 8 4 16.5t1 16.5q0 45 -31 78.5t-87 33.5h-174v0z" />
    <glyph glyph-name="S" unicode="S" 
d="M79 158l33 6q10 -76 61.5 -112t127.5 -36q75 0 112.5 22.5t52.5 48.5q10 18 13 34t3 26q0 59 -37 78.5t-81 23.5q-10 2 -20 2.5t-19 1.5q-4 0 -8.5 0.5t-8.5 0.5q-109 10 -153 56t-44 101q0 4 0.5 8.5t0.5 9.5q7 57 59 104t143 47q21 0 36.5 -2.5t28.5 -5.5q5 -2 9 -3
l8 -2q8 -2 13.5 -3.5t9.5 -2.5l4 -2l4 -2t4 -2.5t4 -2.5q4 -2 6 -3.5t4 -2.5l0.5 -0.5l0.5 -0.5q1 0 1.5 -0.5t1.5 -0.5q3 -1 4.5 -2t2.5 -1q0 -1 0.5 -1h0.5q2 -1 4.5 -2.5t5.5 -1.5q9 0 15 12t7 26v1.5v1.5l33 -7q-2 -5 -4 -13t-4 -17q-1 -5 -2.5 -10t-2.5 -11
q-2 -12 -4 -24.5t-2 -20.5v-0.5v-1.5v-1.5v-0.5l7 -73l-36 -3q-6 80 -41 116t-118 36q-80 0 -122 -42t-42 -95t33.5 -77t73.5 -33q15 -3 29.5 -5t27.5 -3q2 0 4 -0.5t4 -0.5q14 -1 30.5 -2.5t33.5 -4.5q50 -9 92.5 -36t42.5 -98v-4v-4q-4 -60 -57 -109t-149 -49
q-37 0 -65 5.5t-47 11.5q-12 4 -20 7.5t-13 6.5q-1 1 -2.5 2t-2.5 2q-1 0 -1.5 0.5t-1.5 0.5q-1 1 -2.5 1.5t-3.5 1.5q-6 3 -9.5 4t-5.5 1q-8 0 -13 -9t-7 -18q-1 -5 -1.5 -10t-0.5 -9l-34 4q3 19 4.5 30.5t2.5 21.5q1 6 1 11.5v12.5q0 19 -3 41t-12 56v0z" />
    <glyph glyph-name="T" unicode="T" 
d="M521 330l-14 198h-188v-494h124v-34h-285v34h124v494h-188l-14 -198l-35 5l17 227h477l17 -227l-35 -5v0z" />
    <glyph glyph-name="U" unicode="U" 
d="M24 562h213v-34h-102v-317q0 -11 0.5 -23t1.5 -23q6 -56 38.5 -102.5t124.5 -46.5q91 0 124 46.5t39 102.5q1 11 1.5 23t0.5 23v317h-102v34h213v-34h-74v-340q0 -91 -52 -148t-150 -57t-150 57t-52 148v340h-74v34v0z" />
    <glyph glyph-name="V" unicode="V" 
d="M3 562h204v-34h-100l190 -507h6l190 507h-100v34h204v-34h-67l-203 -541h-54l-203 541h-67v34v0z" />
    <glyph glyph-name="W" unicode="W" 
d="M3 562h187v-34h-106l66 -482h2l136 398h24l136 -398h2l66 482h-106v34h187v-34h-45l-77 -541h-43l-131 388h-2l-131 -388h-43l-77 541h-45v34v0z" />
    <glyph glyph-name="X" unicode="X" 
d="M51 528v34h185v-34h-91l155 -206l155 206h-91v34h185v-34h-50l-176 -232l200 -262h47v-34h-206v34h116l-180 236l-180 -236h116v-34h-206v34h47l200 262l-176 232h-50v0z" />
    <glyph glyph-name="Y" unicode="Y" 
d="M31 562h185v-34h-84l168 -275l168 275h-84v34h185v-34h-60l-191 -312v-182h124v-34h-285v34h124v182l-190 312h-60v34v0z" />
    <glyph glyph-name="Z" unicode="Z" 
d="M93 562h398v-32l-364 -496h350v165h37v-199h-428v37l360 491h-316v-148h-37v182v0z" />
    <glyph glyph-name="bracketleft" unicode="[" 
d="M276 622h166v-34h-129v-662h129v-34h-166v730v0z" />
    <glyph glyph-name="backslash" unicode="\" 
d="M125 615l31 14l319 -695l-31 -14l-319 695v0z" />
    <glyph glyph-name="bracketright" unicode="]" 
d="M158 622h166v-730h-166v34h129v662h-129v34v0z" />
    <glyph glyph-name="asciicircum" unicode="^" 
d="M506 383l-26 -24l-180 210l-180 -210l-26 24l206 239l206 -239v0z" />
    <glyph glyph-name="underscore" unicode="_" 
d="M0 -125v50h600v-50h-600v0z" />
    <glyph glyph-name="grave" unicode="`" 
d="M374 497l-187 175h94l133 -175h-40v0z" />
    <glyph glyph-name="a" unicode="a" 
d="M462 34h90v-34h-127v84l-4 -4l-4 -4q-34 -34 -85 -62t-110 -28q-68 0 -115 39.5t-47 98.5q0 11 2 22.5t7 23.5q15 38 58.5 69.5t124.5 31.5q17 0 37 -1t41 -3q13 -1 27 -2t26 -2q12 -2 22.5 -3t19.5 -2v41q0 55 -36 81.5t-98 26.5q-21 0 -43.5 -3t-45.5 -9
q-21 -6 -41 -13t-39 -16l-14 32q67 29 113 36t72 7q78 0 115 -28t48 -62q3 -9 4.5 -18.5t1.5 -18.5v-280v0zM425 133v90q-6 1 -13.5 2t-15.5 2q-9 1 -19 2l-20 2q-23 3 -44.5 4.5t-36.5 1.5q-76 0 -114.5 -25t-50.5 -54q-4 -10 -6 -19t-2 -17q0 -5 0.5 -10t1.5 -10
q8 -31 37.5 -57t79.5 -26q11 0 22.5 1.5t22.5 4.5q44 11 85.5 40t72.5 68v0z" />
    <glyph glyph-name="b" unicode="b" 
d="M36 34h85v557l-97 -7l-3 34l137 11v-292h2q32 54 81.5 79t102.5 25q104 0 162.5 -69.5t61.5 -152.5v-5v-4q0 -95 -66 -157.5t-144 -66.5h-5h-4q-18 0 -38 3.5t-41 10.5q-30 13 -59.5 36t-50.5 60h-2v-96h-122v34v0zM525 209q0 79 -46.5 138.5t-132.5 59.5h-2.5h-3.5
q-70 -2 -128 -52t-58 -135v-6.5v-7.5q5 -70 55.5 -128.5t131.5 -58.5q73 0 128.5 52.5t55.5 137.5v0z" />
    <glyph glyph-name="c" unicode="c" 
d="M515 286l-33 -5q-6 61 -50 93.5t-113 32.5q-94 0 -148.5 -55t-54.5 -140q0 -79 53 -136t138 -57q32 0 59 6t52 18q20 10 40.5 23t43.5 29l20 -29q-67 -52 -118.5 -66t-92.5 -14q-106 0 -161.5 54t-70.5 119q-3 13 -4.5 26t-1.5 25q0 98 67.5 164.5t170.5 66.5
q13 0 49.5 -4.5t82.5 -27.5q2 -1 4.5 -2t5.5 -2q2 -1 4.5 -1.5t4.5 -0.5q11 0 15 12t5 26l33 -6q-1 -4 -2 -7.5t-2 -7.5q-4 -18 -5.5 -34t-1.5 -24q0 -7 1 -16t2 -19q1 -5 2 -10.5t2 -10.5q1 -6 2 -11t2 -9v0z" />
    <glyph glyph-name="d" unicode="d" 
d="M584 0h-122v96h-2q-21 -37 -50.5 -60t-59.5 -36q-21 -7 -41 -10.5t-38 -3.5h-4h-5q-78 4 -144 66.5t-66 157.5v4v5q3 83 61.5 152.5t162.5 69.5q53 0 102.5 -25t81.5 -79h2v254l-167 -11l-4 34l208 15v-595h85v-34v0zM95 209q0 -85 55.5 -137.5t128.5 -52.5
q81 0 131.5 58.5t55.5 128.5v7.5v6.5q0 85 -58 135t-128 52h-3.5h-2.5q-86 0 -132.5 -59.5t-46.5 -138.5v0z" />
    <glyph glyph-name="e" unicode="e" 
d="M524 81l17 -32q-33 -17 -76 -33t-87 -23q-17 -4 -34 -5.5t-33 -1.5q-101 0 -169.5 65t-68.5 159q0 98 67.5 164.5t170.5 66.5q14 0 29.5 -1.5t30.5 -4.5q61 -14 111.5 -61.5t50.5 -148.5v-20h-417q4 -76 55.5 -131t140.5 -55h11.5t11.5 1q40 3 79 15t70 26q11 5 21.5 10
t18.5 10v0zM116 239h379q-1 83 -56.5 125.5t-129.5 42.5q-4 0 -33.5 -3t-63.5 -20q-33 -16 -61 -50t-35 -95v0z" />
    <glyph glyph-name="f" unicode="f" 
d="M484 426v-34h-218v-358h218v-34h-363v34h108v358h-108v34h108v73q0 9 1 19t3 20q7 33 37.5 60.5t106.5 27.5q14 0 38 -1t49 -4q6 0 11.5 -0.5t10.5 -1.5l35 -4l-10 -34q-51 5 -82 8t-55 3q-72 0 -90 -28.5t-18 -72.5v-65h218v0z" />
    <glyph glyph-name="g" unicode="g" 
d="M559 392h-85v-380q0 -13 -1.5 -29t-6.5 -33q-12 -40 -51 -73t-128 -33q-19 0 -40 2t-43 6q-21 3 -41 7.5t-38 8.5q-8 2 -15.5 4t-14.5 4l10 35q71 -22 108 -27.5t67 -5.5h4h4q70 0 101 23.5t41 52.5q4 14 5.5 27t1.5 23v100h-2q-25 -37 -67.5 -66t-101.5 -29
q-82 0 -148 59.5t-66 160.5q0 93 62.5 149.5t137.5 61.5q4 1 8 1h8q50 0 95.5 -25.5t71.5 -78.5h2v89h122v-34v0zM95 229q0 -70 44.5 -128t127.5 -58q80 0 125 55t45 121v8t-1 8q-5 64 -48.5 118t-118.5 54q-67 0 -120.5 -49t-53.5 -129v0z" />
    <glyph glyph-name="h" unicode="h" 
d="M247 0h-207v34h85v557l-97 -7l-3 34l137 11v-272q7 7 17.5 15.5t23.5 17.5q27 19 64.5 35t81.5 16h10t10 -1q45 -3 83.5 -30.5t38.5 -104.5v-271h84v-34h-206v34h85v251v14t-1 14q-3 36 -23 65t-77 29q-10 0 -65.5 -12.5t-125.5 -78.5v-282h85v-34v0z" />
    <glyph glyph-name="i" unicode="i" 
d="M131 426h188v-392h179v-34h-396v34h180v358h-151v34v0zM319 551h-65v106h65v-106v0z" />
    <glyph glyph-name="j" unicode="j" 
d="M105 426h298v-407q0 -15 -2 -34t-9 -40q-13 -38 -51.5 -69.5t-121.5 -31.5q-18 0 -41 2t-47 6q-11 2 -21.5 4t-20.5 5l9 33q47 -10 76 -13t50 -3q71 0 100 27.5t37 61.5q3 15 4 29t1 26v370h-261v34v0zM403 551h-65v106h65v-106v0z" />
    <glyph glyph-name="k" unicode="k" horiz-adv-x="598" 
d="M187 0h-122v34h85v557l-97 -7l-3 34l137 11v-404l215 167h-67v34h200v-34h-77l-176 -137l217 -221h72v-34h-195v34h72l-196 198l-65 -51v-181v0z" />
    <glyph glyph-name="l" unicode="l" 
d="M498 34v-34h-396v34h180v557l-167 -11l-4 34l208 15v-595h179v0z" />
    <glyph glyph-name="m" unicode="m" 
d="M185 0h-183v34h73v358h-73v34h110v-41q2 3 5 6l6 6q15 17 38.5 30.5t54.5 13.5t50 -11.5t30 -25.5q8 -10 12 -20t5 -14q17 27 46.5 49t66.5 22q47 0 70 -22t31 -48q6 -19 7.5 -36t1.5 -26v-275h62v-34h-99v298q0 9 -0.5 20t-2.5 22q-4 25 -18.5 46t-49.5 21
q-36 0 -63 -23.5t-41 -52.5v-297h64v-34h-101v280v21.5t-1 22.5q-3 31 -18 57t-55 26q-19 0 -45 -12t-56 -53v-308h73v-34v0z" />
    <glyph glyph-name="n" unicode="n" 
d="M240 0h-207v34h85v358h-85v34h122v-69q7 7 17.5 15.5t23.5 17.5q27 19 64.5 35t81.5 16h10t10 -1q45 -3 83.5 -30.5t38.5 -104.5v-271h84v-34h-206v34h85v251q0 9 -0.5 19t-1.5 20q-4 31 -24 57t-75 26q-29 0 -77 -15t-114 -76v-282h85v-34v0z" />
    <glyph glyph-name="o" unicode="o" 
d="M538 210q0 -93 -57.5 -148t-126.5 -70q-14 -3 -27.5 -4.5t-26.5 -1.5t-26.5 1.5t-27.5 4.5q-69 15 -126.5 70t-57.5 148q0 98 67.5 164.5t170.5 66.5q104 0 171 -66.5t67 -164.5v0zM495 210q0 78 -52 137.5t-143 59.5t-143 -59.5t-52 -137.5q0 -75 53.5 -133t141.5 -58
q89 0 142 58t53 133v0z" />
    <glyph glyph-name="p" unicode="p" 
d="M291 -157h-275v34h85v515h-85v34h122v-89h2q32 54 81.5 79t102.5 25q104 0 162.5 -69.5t61.5 -152.5v-5v-4q0 -95 -66 -157.5t-144 -66.5h-5h-4q-18 0 -38 3.5t-41 10.5q-30 13 -59.5 36t-50.5 60h-2v-219h153v-34v0zM505 209q0 79 -46.5 138.5t-132.5 59.5h-2.5h-3.5
q-70 -2 -128 -52t-58 -135v-6.5v-7.5q5 -70 55.5 -128.5t131.5 -58.5q73 0 128.5 52.5t55.5 137.5v0z" />
    <glyph glyph-name="q" unicode="q" 
d="M462 426h122v-34h-85v-515h85v-34h-275v34h153v219h-2q-21 -37 -50.5 -60t-59.5 -36q-21 -7 -41 -10.5t-38 -3.5h-4h-5q-78 4 -144 66.5t-66 157.5v4v5q3 83 61.5 152.5t162.5 69.5q53 0 102.5 -25t81.5 -79h2v89v0zM95 209q0 -85 55.5 -137.5t128.5 -52.5
q81 0 131.5 58.5t55.5 128.5v7.5v6.5q0 85 -58 135t-128 52h-3.5h-2.5q-86 0 -132.5 -59.5t-46.5 -138.5v0z" />
    <glyph glyph-name="r" unicode="r" 
d="M429 0h-362v34h129v358h-120v34h157v-115l19.5 19.5t22.5 20.5q29 25 63.5 47.5t70.5 34.5q13 4 26 6t25 2q5 0 10 -0.5t10 -1.5q25 -4 46 -20t26 -49l-36 -6q-3 16 -11 24.5t-17 12.5t-17 5t-11 1q-16 0 -33.5 -5t-35.5 -13q-25 -12 -50 -29.5t-47 -35.5
q-18 -15 -33.5 -29.5t-27.5 -26.5v-234h196v-34v0z" />
    <glyph glyph-name="s" unicode="s" 
d="M482 301l-34 -4q-6 48 -34.5 71t-61.5 31q-20 5 -39 6.5t-33 1.5q-58 0 -87 -16.5t-40 -36.5q-5 -9 -7 -17.5t-2 -15.5q0 -52 45.5 -69t100.5 -21q11 0 22 -0.5t21 -1.5h1.5h1.5q14 -1 33 -2.5t40 -5.5q36 -8 66.5 -31t30.5 -75q0 -49 -47 -89t-148 -40q-49 0 -67 6
t-27 13l-2 2t-2 1q-7 7 -18.5 12t-41.5 5q-13 0 -17 -11t-7 -25v-1v-2l-35 3q2 8 4 17t3 19l2 18t1 16q0 9 -1.5 22.5t-3.5 27.5q-1 7 -2.5 14t-2.5 13l35 5q2 -10 6 -24t13 -29q15 -26 51 -47.5t105 -21.5q68 0 102.5 18t47.5 39q7 11 9.5 21t2.5 18q0 43 -32 58t-71 18
q-11 1 -21.5 1.5t-20.5 0.5q-3 1 -6.5 1h-6.5q-16 1 -35 2.5t-38 4.5q-49 9 -90 34.5t-41 84.5q0 7 1 14.5t4 15.5q11 34 52 62.5t120 28.5q35 0 59 -5.5t43 -11.5q5 -2 9 -3.5t8 -2.5q14 -5 19.5 -6.5t8.5 -1.5q11 0 14.5 9t4.5 22l30 -4q-3 -13 -4.5 -23.5t-2.5 -20.5
v-6.5v-6.5q0 -14 2.5 -32.5t7.5 -38.5q0 -2 0.5 -4t1.5 -4v0z" />
    <glyph glyph-name="t" unicode="t" 
d="M144 562h37v-136h262v-34h-262v-241q0 -11 0.5 -24t3.5 -27q7 -30 31 -55.5t83 -25.5q22 0 39.5 3t33.5 7q10 3 19.5 6t19.5 6q1 0 2.5 0.5t2.5 1.5q18 5 36.5 12.5t44.5 20.5l6 -35q-77 -37 -127 -46t-74 -9q-63 0 -95.5 22t-46.5 49q-12 23 -14 43t-2 27v265h-70v34h70
v136v0z" />
    <glyph glyph-name="u" unicode="u" 
d="M348 426h122v-392h85v-34h-122v66q-47 -51 -91 -65.5t-72 -14.5h-0.5h-1.5q-9 0 -30.5 1.5t-45.5 11.5q-30 11 -55 42t-25 93v258h-84v34h121v-301q0 -55 37.5 -80.5t84.5 -25.5q20 0 64.5 15.5t97.5 81.5v276h-85v34v0z" />
    <glyph glyph-name="v" unicode="v" 
d="M17 426h204v-34h-89l166 -360h4l166 360h-89v34h204v-34h-74l-187 -402h-44l-187 402h-74v34v0z" />
    <glyph glyph-name="w" unicode="w" 
d="M3 426h187v-34h-106l76 -357h2l126 302h24l126 -302h2l76 357h-106v34h187v-34h-45l-87 -402h-43l-121 294h-2l-121 -294h-43l-87 402h-45v34v0z" />
    <glyph glyph-name="x" unicode="x" 
d="M43 392v34h183v-34h-70l144 -144l144 144h-70v34h183v-34h-62l-170 -169l189 -189h59v-34h-188v34h78l-163 163l-163 -163h78v-34h-188v34h59l188 189l-169 169h-62v0z" />
    <glyph glyph-name="y" unicode="y" 
d="M-12 426h176v-34h-74l173 -334l191 334h-75v34h173v-34h-55l-296 -515h96v-34h-294v34h157l82 143l-194 372h-60v34v0z" />
    <glyph glyph-name="z" unicode="z" 
d="M117 426h378v-33l-344 -359h309v94h34v-128h-388v37l339 355h-294v-91h-34v125v0z" />
    <glyph glyph-name="braceleft" unicode="{" 
d="M430 -74v-34h-10.5h-10.5q-58 0 -95.5 33.5t-37.5 90.5v148q0 36 -27 54.5t-60 19.5v38q33 2 60 20t27 54v148q0 58 38 91.5t96 33.5h5.5h4.5t4.5 -0.5t5.5 -0.5v-34q-2 0 -4 0.5t-4 0.5h-4h-4q-41 0 -71 -22t-30 -66v-150q0 -32 -19.5 -57.5t-51.5 -36.5
q32 -11 51.5 -36.5t19.5 -57.5v-150q0 -43 30.5 -65t71.5 -22h4h4q1 1 3 1h4v-1z" />
    <glyph glyph-name="bar" unicode="|" 
d="M282 -80v709h37v-709h-37v0z" />
    <glyph glyph-name="braceright" unicode="}" 
d="M170 588v34q5 1 10.5 1h10.5q58 0 95.5 -33.5t37.5 -91.5v-148q0 -36 27 -54t60 -20v-38q-33 -1 -60 -19.5t-27 -54.5v-148q0 -57 -38 -90.5t-96 -33.5h-5.5h-4.5t-4.5 0.5t-5.5 0.5v33q2 1 4 0.5t4 -0.5h4h4q41 0 71 22t30 65v150q0 32 19.5 57.5t51.5 36.5
q-32 11 -51.5 36.5t-19.5 57.5v150q0 44 -30.5 66t-71.5 22h-4h-3q-2 -1 -4 -1h-4v0z" />
    <glyph glyph-name="asciitilde" unicode="~" 
d="M503 267l31 -26l-1.5 -1.5t-0.5 -1.5q-26 -29 -63.5 -53.5t-79.5 -24.5q-21 0 -41 6t-36 13q-9 4 -16.5 8t-12.5 7q-36 20 -59 29t-40 9q-25 0 -48 -16t-38 -38l-31 25q22 29 53 47.5t65 18.5q28 0 53.5 -11t49.5 -25q6 -3 13.5 -7t16.5 -8q11 -6 24 -11t27 -8
q5 -1 10.5 -1.5t10.5 -0.5q25 0 46.5 12t37.5 26q10 9 17.5 18t11.5 14v0z" />
    <glyph glyph-name="exclamdown" unicode="&#xa1;" 
d="M3 562h204v-34h-100l199 -381l187 381h-100v34h204v-34h-67l-205 -424q-1 -3 -2.5 -5.5t-2.5 -5.5q-25 -50 -54.5 -80t-80.5 -30q-9 0 -18 2t-19 6q-14 5 -27.5 13t-25.5 18l20 31q3 -3 6.5 -6t7.5 -6q6 -4 13 -8.5t15 -8.5q7 -3 15 -5.5t14 -2.5q21 0 36.5 11t25.5 24
q7 10 12 19.5t7 13.5l16 29l-213 415h-67v34v0zM154 709h40q0 -6 1.5 -13.5t6.5 -15.5q8 -15 30.5 -27t68.5 -12t68.5 12t30.5 27q5 8 6.5 15.5t1.5 13.5h40v-1.5v-0.5v-1.5v-1.5q0 -54 -42.5 -78.5t-104.5 -24.5q-61 0 -104 25t-43 79v0.5v1.5v1.5v0.5v0z" />
    <glyph glyph-name="cent" unicode="&#xa2;" 
d="M-12 426h176v-34h-74l173 -334l191 334h-75v34h173v-34h-55l-296 -515h96v-34h-294v34h157l82 143l-194 372h-60v34v0zM125 609h40q0 -6 1.5 -13.5t6.5 -15.5q8 -15 30.5 -27t68.5 -12t68.5 12t30.5 27q5 8 6.5 15.5t1.5 13.5h40v-1.5v-0.5v-1.5v-1.5q0 -54 -42.5 -78.5
t-104.5 -24.5q-61 0 -104 25t-43 79v0.5v1.5v1.5v0.5v0z" />
    <glyph glyph-name="sterling" unicode="&#xa3;" 
d="M190 562h369v-34h-130v-348q0 -16 -1.5 -37t-6.5 -43q-10 -44 -45.5 -80.5t-118.5 -36.5q-17 0 -66 8.5t-141 51.5l-9 211h35l7 -129q2 -46 54 -77.5t122 -31.5q90 0 111 51t22 113v6.5v6.5v335h-202v34v0z" />
    <glyph glyph-name="currency" unicode="&#xa4;" 
d="M494 499l26 -24l-84 -82q7 -8 12 -16t9 -16q11 -22 14.5 -42.5t3.5 -36.5t-3.5 -36.5t-14.5 -42.5q-4 -8 -9 -16t-12 -16l84 -82l-26 -24l-82 81q-34 -28 -64.5 -34t-47.5 -6t-47.5 6t-64.5 34l-82 -81l-26 24l84 82q-7 8 -12 16t-9 16q-11 22 -14.5 42.5t-3.5 36.5
t3.5 36.5t14.5 42.5q4 8 9 16t12 16l-84 82l26 24l82 -81q34 27 64.5 33.5t47.5 6.5t47.5 -6.5t64.5 -33.5l82 81v0zM165 282v-1.5v-1.5q1 -51 37.5 -93.5t97.5 -42.5t97.5 42.5t37.5 93.5v1.5v1.5v1.5v1.5q-1 51 -37.5 93.5t-97.5 42.5t-97.5 -42.5t-37.5 -93.5v-1.5v-1.5
v0z" />
    <glyph glyph-name="yen" unicode="&#xa5;" 
d="M65 562h438v141h37v-175h-350v-494h133v-34h-258v34h88v494h-88v34v0z" />
    <glyph glyph-name="brokenbar" unicode="&#xa6;" 
d="M371 47q0 -4 -0.5 -8t-1.5 -8q-6 -17 -23 -31t-46 -14t-46 14t-23 31q-1 4 -1.5 8t-0.5 8t0.5 8t1.5 8q6 17 23 31.5t46 14.5t46 -14.5t23 -31.5q1 -4 1.5 -8t0.5 -8v0zM371 323q0 -4 -0.5 -8t-1.5 -8q-6 -17 -23 -31.5t-46 -14.5t-46 14.5t-23 31.5q-1 4 -1.5 8t-0.5 8
t0.5 8t1.5 8q6 17 23 31.5t46 14.5t46 -14.5t23 -31.5q1 -4 1.5 -8t0.5 -8v0z" />
    <glyph glyph-name="section" unicode="&#xa7;" 
d="M460 580v-125h-34v91h-181q-6 0 -13.5 -0.5t-16.5 -2.5q-14 -3 -26.5 -12t-12.5 -30q0 -18 14 -32.5t30 -27.5q3 -2 5.5 -4t5.5 -4l197 -152q3 -2 5.5 -4.5t5.5 -4.5q16 -15 29 -35.5t13 -47.5q0 -37 -25.5 -63.5t-66.5 -31.5q5 -4 12 -9t13 -12q15 -14 27 -32.5
t12 -40.5q0 -28 -22.5 -52.5t-64.5 -24.5l-238 -1v134h34v-100h193q27 1 40.5 10t17.5 20q2 3 2.5 6.5t0.5 6.5v2.5t-1 2.5q-2 14 -13 28t-23 25q-6 5 -11 9l-10 8l-169 131q-3 3 -6.5 5.5t-6.5 4.5q-23 19 -39.5 39.5t-16.5 48.5q0 7 1.5 14.5t3.5 15.5q8 23 28.5 43.5
t54.5 28.5l-20 17q-2 1 -3.5 2.5l-3.5 3.5q-1 1 -2 1.5t-2 1.5q-14 12 -26 26.5t-12 41.5q0 7 1.5 16t6.5 19q8 17 29 31.5t65 14.5h219v0zM392 265l-153 118q-37 -9 -59.5 -31t-22.5 -47q0 -14 6 -25t14 -18q4 -4 7.5 -7t6.5 -5l164 -128q39 2 64 23t25 47q0 15 -9.5 29
t-21.5 26q-5 5 -11 10t-10 8v0z" />
    <glyph glyph-name="dieresis" unicode="&#xa8;" 
d="M60 562h474l4 -173h-33l-10 139h-310v-220h181v74h34v-182h-34v74h-181v-240h319l6 140h33v-174h-483v34h88v494h-88v34v0zM210 638q0 3 0.5 5.5t1.5 5.5q3 9 11.5 17t22.5 8t22.5 -8t11.5 -17q1 -3 1.5 -5.5t0.5 -5.5q0 -2 -0.5 -5t-1.5 -6q-3 -9 -11.5 -17t-22.5 -8
t-22.5 8t-11.5 17q-1 3 -1.5 6t-0.5 5v0zM372 638q0 3 0.5 5.5t1.5 5.5q3 9 11.5 17t22.5 8t22.5 -8t11.5 -17q1 -3 1.5 -5.5t0.5 -5.5q0 -2 -0.5 -5t-1.5 -6q-3 -9 -11.5 -17t-22.5 -8t-22.5 8t-11.5 17q-1 3 -1.5 6t-0.5 5v0z" />
    <glyph glyph-name="copyright" unicode="&#xa9;" 
d="M0 281q0 134 90 214t199 85h5h6h6h5q109 -5 199 -85t90 -214q0 -135 -92 -215.5t-202 -82.5h-3.5h-2.5h-2.5h-3.5q-110 2 -202 82.5t-92 215.5v0zM300 546h-5.5h-5.5q-94 -5 -171.5 -75.5t-77.5 -189.5t77.5 -189.5t171.5 -75.5h5.5h5.5h2.5h3.5q95 2 174.5 73.5
t79.5 191.5t-79.5 191.5t-174.5 73.5h-3.5h-2.5v0zM442 343l-25 -4q-4 42 -32.5 60.5t-61.5 21.5q-5 1 -10 1h-10q-64 0 -99 -40.5t-35 -93.5v-8t1 -7q4 -48 38.5 -87.5t103.5 -39.5q31 0 54.5 8t40.5 17l10.5 7t8.5 6l15 -28q-5 -4 -12.5 -8t-15.5 -9q-20 -10 -47.5 -18.5
t-59.5 -8.5q-70 0 -120.5 46.5t-50.5 128.5q0 67 43.5 118t122.5 51q25 0 44.5 -5.5t32.5 -11.5q5 -2 9 -4.5t7 -4.5l6 -4t6 -2q5 0 7.5 4t4.5 8q0 2 0.5 4t0.5 4v3l22 -4l-3 -16q0 -2 -0.5 -3.5t-0.5 -2.5q-1 -3 -1.5 -5t-0.5 -7v-5v-4q-1 -1 -1 -2v-2v-1v-1q0 -6 1 -17
t3 -22l2 -6l2 -6v0z" />
    <glyph glyph-name="ordfeminine" unicode="&#xaa;" 
d="M373 274h-268q1 -101 63 -179.5t162 -78.5q12 0 25 1.5t25 3.5q38 8 75 25t68 42l23 -30q-39 -28 -84 -47t-91 -25q-10 -2 -19.5 -2.5t-19.5 -0.5q-104 0 -187 76.5t-83 227.5q0 138 61 202.5t134 82.5q18 4 36 6t35 2q46 0 78.5 -13t58.5 -29q3 -2 6 -3.5t6 -3.5
q5 -3 9.5 -5t8.5 -2q6 0 11 6.5t7 26.5l1 8l32 -7l-1 -5q-2 -8 -3.5 -17.5t-2.5 -18.5q-2 -13 -3 -25.5t-1 -20.5q0 -9 1 -20.5t3 -22.5q1 -12 3.5 -23.5t4.5 -20.5l-33 -7q-2 13 -7 33.5t-16 42.5q-18 35 -55.5 64t-106.5 29q-14 0 -28.5 -1.5t-29.5 -5.5
q-63 -15 -115.5 -68.5t-51.5 -162.5h269v-34v0z" />
    <glyph glyph-name="guillemotleft" unicode="&#xab;" 
d="M37 258l279 188l23 -28l-203 -160l203 -160l-23 -28l-279 188v0zM261 258l279 188l23 -28l-203 -160l203 -160l-23 -28l-279 188v0z" />
    <glyph glyph-name="logicalnot" unicode="&#xac;" 
d="M87 325h426v-261h-37v224h-389v37v0z" />
    <glyph glyph-name="sfthyphen" unicode="&#xad;" horiz-adv-x="500" 
 />
    <glyph glyph-name="registered" unicode="&#xae;" 
d="M0 281q0 134 90 214t199 85h5h6h6h5q109 -5 199 -85t90 -214q0 -135 -92 -215.5t-202 -82.5h-3.5h-2.5h-2.5h-3.5q-110 2 -202 82.5t-92 215.5v0zM300 546h-5.5h-5.5q-94 -5 -171.5 -75.5t-77.5 -189.5t77.5 -189.5t171.5 -75.5h5.5h5.5h2.5h3.5q95 2 174.5 73.5
t79.5 191.5t-79.5 191.5t-174.5 73.5h-3.5h-2.5v0zM162 428v30h165q38 0 60.5 -24t22.5 -59v-6t-1 -6q-3 -28 -20.5 -52.5t-53.5 -29.5v-1q12 -9 21.5 -19.5t19.5 -27.5q7 -12 14.5 -28.5t15.5 -38.5l3 -8h41v-30h-67q-9 36 -20 60.5t-23 41.5q-12 18 -24 27.5t-21 14.5h-55
v-114h42v-30h-120v30h44v270h-44v0zM240 428v-126h56q35 0 57.5 18t22.5 52q0 32 -18 44t-40 12h-78v0z" />
    <glyph glyph-name="overstore" unicode="&#xaf;" 
 />
    <glyph glyph-name="glyph113" unicode="&#xb0;" 
d="M372 508q0 -31 -21 -50.5t-46 -21.5h-2.5h-2.5q-31 0 -50.5 21t-21.5 46v2.5v2.5v2.5v2.5q2 25 21.5 46t50.5 21t50.5 -21t21.5 -46v-2.5v-2.5v0zM341 508v3.5t-1 3.5q-2 13 -13 23.5t-27 10.5h-3.5t-3.5 -1q-13 -2 -23.5 -13t-10.5 -27v-3.5t1 -3.5q2 -13 13 -23.5
t27 -10.5h3.5t3.5 1q13 2 23.5 13t10.5 27v0z" />
    <glyph glyph-name="plusminus" unicode="&#xb1;" 
d="M87 0v37h426v-37h-426v0zM281 514h37v-186h195v-37h-195v-186h-37v186h-194v37h194v186v0z" />
    <glyph glyph-name="twosuperior" unicode="&#xb2;" 
d="M103 562h394v-34h-178v-494h178v-34h-394v34h179v494h-179v34v0z" />
    <glyph glyph-name="threesuperior" unicode="&#xb3;" 
d="M131 426h188v-392h179v-34h-396v34h180v358h-151v34v0zM319 551h-65v106h65v-106v0z" />
    <glyph glyph-name="acute" unicode="&#xb4;" 
d="M84 426h405v136h37v-170h-285v-358h165v-34h-331v34h129v358h-120v34v0z" />
    <glyph glyph-name="mu" unicode="&#xb5;" 
d="M28 426h121v-301q0 -55 37.5 -80.5t84.5 -25.5q32 0 72.5 19.5t89.5 77.5v276h-85v34h122v-392h85v-34h-122v66l-13.5 -13.5t-16.5 -14.5q-24 -20 -58 -36t-75 -16h-3.5h-3.5q-32 1 -62 11.5t-50 40.5h-2v-195h-37v549h-84v34v0z" />
    <glyph glyph-name="paragraph" unicode="&#xb6;" 
d="M311 -78h-187v34h150v270h-13q-112 0 -158 50.5t-46 114.5q0 82 62.5 126.5t141.5 44.5h243v-34h-86v-572h86v-34h-123v606h-70v-606v0zM274 260v268h-27q-64 0 -107 -38.5t-43 -96.5q0 -11 3 -26.5t11 -32.5q13 -28 46 -51t98 -23h19v0z" />
    <glyph glyph-name="middot" unicode="&#xb7;" 
 />
    <glyph glyph-name="cedilla" unicode="&#xb8;" 
d="M524 81l17 -32q-33 -17 -76 -33t-87 -23q-17 -4 -34 -5.5t-33 -1.5q-101 0 -169.5 65t-68.5 159q0 98 67.5 164.5t170.5 66.5q14 0 29.5 -1.5t30.5 -4.5q61 -14 111.5 -61.5t50.5 -148.5v-20h-417q4 -76 55.5 -131t140.5 -55h11.5t11.5 1q40 3 79 15t70 26q11 5 21.5 10
t18.5 10v0zM116 239h379q-1 83 -56.5 125.5t-129.5 42.5q-4 0 -33.5 -3t-63.5 -20q-33 -16 -61 -50t-35 -95v0zM188 544q0 3 0.5 5.5t1.5 5.5q3 9 11.5 17t22.5 8t22.5 -8t11.5 -17q1 -3 1.5 -5.5t0.5 -5.5q0 -2 -0.5 -5t-1.5 -6q-3 -9 -11.5 -17t-22.5 -8t-22.5 8t-11.5 17
q-1 3 -1.5 6t-0.5 5v0zM360 544q0 3 0.5 5.5t1.5 5.5q3 9 11.5 17t22.5 8t22.5 -8t11.5 -17q1 -3 1.5 -5.5t0.5 -5.5q0 -2 -0.5 -5t-1.5 -6q-3 -9 -11.5 -17t-22.5 -8t-22.5 8t-11.5 17q-1 3 -1.5 6t-0.5 5v0z" />
    <glyph glyph-name="onesuperior" unicode="&#xb9;" 
d="M25 562h128l211 -530h2v496h-65v34h187v-34h-85v-541h-57l-217 542h-2v-495h65v-34h-167v34h65v494h-65v34v0zM428 75h147v-40h-147v40v0zM572 342q0 -42 -22 -68t-50 -26t-50 26t-22 68q0 41 22 67t50 26q29 0 50.5 -26t21.5 -67v0zM538 342q0 21 -8 35t-17 20
q-4 2 -7 3t-6 1t-6 -1t-7 -3q-9 -6 -17 -20t-8 -35q0 -25 12 -42.5t26 -17.5t26 17.5t12 42.5v0z" />
    <glyph glyph-name="ordmasculine" unicode="&#xba;" 
d="M373 204h-268q5 -89 72.5 -137t152.5 -48q59 0 109 17t87 41l17 -32q-3 -2 -7 -4.5t-8 -4.5q-32 -19 -80.5 -34.5t-115.5 -15.5q-125 0 -197.5 67t-72.5 165q0 99 67 161t199 62q8 0 16 -0.5t16 -0.5q23 -2 47.5 -9t54.5 -21q9 -4 16 -7t14 -5q1 0 2 -0.5t2 -0.5t2 0.5
t2 0.5q5 1 7.5 6.5t4.5 12.5q0 1 0.5 2.5t0.5 2.5l1 6l32 -5l-1 -4q0 -2 -1 -4.5t-1 -4.5q-1 -5 -2 -10.5t-2 -10.5q-1 -9 -2 -17t-1 -14v-6v-6q1 -12 3.5 -24.5t7.5 -30.5l-33 -5q-1 8 -3.5 16t-6.5 16q-15 33 -55 61t-120 28q-14 0 -29.5 -1t-30.5 -4q-61 -10 -112 -47.5
t-53 -116.5h269v-34v0z" />
    <glyph glyph-name="guillemotright" unicode="&#xbb;" 
d="M60 446l279 -188l-279 -188l-23 28l203 160l-203 160l23 28v0zM284 446l279 -188l-279 -188l-23 28l203 160l-203 160l23 28v0z" />
    <glyph glyph-name="onequarter" unicode="&#xbc;" 
d="M105 426h298v-407q0 -15 -2 -34t-9 -40q-13 -38 -51.5 -69.5t-121.5 -31.5q-18 0 -41 2t-47 6q-11 2 -21.5 4t-20.5 5l9 33q47 -10 76 -13t50 -3q71 0 100 27.5t37 61.5q3 15 4 29t1 26v370h-261v34v0zM403 551h-65v106h65v-106v0z" />
    <glyph glyph-name="onehalf" unicode="&#xbd;" 
d="M79 158l33 6q10 -76 61.5 -112t127.5 -36q75 0 112.5 22.5t52.5 48.5q10 18 13 34t3 26q0 59 -37 78.5t-81 23.5q-10 2 -20 2.5t-19 1.5q-4 0 -8.5 0.5t-8.5 0.5q-109 10 -153 56t-44 101q0 4 0.5 8.5t0.5 9.5q7 57 59 104t143 47q21 0 36.5 -2.5t28.5 -5.5q5 -2 9 -3
l8 -2q8 -2 13.5 -3.5t9.5 -2.5l4 -2l4 -2t4 -2.5t4 -2.5q4 -2 6 -3.5t4 -2.5l0.5 -0.5l0.5 -0.5q1 0 1.5 -0.5t1.5 -0.5q3 -1 4.5 -2t2.5 -1q0 -1 0.5 -1h0.5q2 -1 4.5 -2.5t5.5 -1.5q9 0 15 12t7 26v1.5v1.5l33 -7q-2 -5 -4 -13t-4 -17q-1 -5 -2.5 -10t-2.5 -11
q-2 -12 -4 -24.5t-2 -20.5v-0.5v-1.5v-1.5v-0.5l7 -73l-36 -3q-6 80 -41 116t-118 36q-80 0 -122 -42t-42 -95t33.5 -77t73.5 -33q15 -3 29.5 -5t27.5 -3q2 0 4 -0.5t4 -0.5q14 -1 30.5 -2.5t33.5 -4.5q50 -9 92.5 -36t42.5 -98v-4v-4q-4 -60 -57 -109t-149 -49
q-37 0 -65 5.5t-47 11.5q-12 4 -20 7.5t-13 6.5q-1 1 -2.5 2t-2.5 2q-1 0 -1.5 0.5t-1.5 0.5q-1 1 -2.5 1.5t-3.5 1.5q-6 3 -9.5 4t-5.5 1q-8 0 -13 -9t-7 -18q-1 -5 -1.5 -10t-0.5 -9l-34 4q3 19 4.5 30.5t2.5 21.5q1 6 1 11.5v12.5q0 19 -3 41t-12 56v0z" />
    <glyph glyph-name="threequarters" unicode="&#xbe;" 
d="M482 301l-34 -4q-6 48 -34.5 71t-61.5 31q-20 5 -39 6.5t-33 1.5q-58 0 -87 -16.5t-40 -36.5q-5 -9 -7 -17.5t-2 -15.5q0 -52 45.5 -69t100.5 -21q11 0 22 -0.5t21 -1.5h1.5h1.5q14 -1 33 -2.5t40 -5.5q36 -8 66.5 -31t30.5 -75q0 -49 -47 -89t-148 -40q-49 0 -67 6
t-27 13l-2 2t-2 1q-7 7 -18.5 12t-41.5 5q-13 0 -17 -11t-7 -25v-1v-2l-35 3q2 8 4 17t3 19l2 18t1 16q0 9 -1.5 22.5t-3.5 27.5q-1 7 -2.5 14t-2.5 13l35 5q2 -10 6 -24t13 -29q15 -26 51 -47.5t105 -21.5q68 0 102.5 18t47.5 39q7 11 9.5 21t2.5 18q0 43 -32 58t-71 18
q-11 1 -21.5 1.5t-20.5 0.5q-3 1 -6.5 1h-6.5q-16 1 -35 2.5t-38 4.5q-49 9 -90 34.5t-41 84.5q0 7 1 14.5t4 15.5q11 34 52 62.5t120 28.5q35 0 59 -5.5t43 -11.5q5 -2 9 -3.5t8 -2.5q14 -5 19.5 -6.5t8.5 -1.5q11 0 14.5 9t4.5 22l30 -4q-3 -13 -4.5 -23.5t-2.5 -20.5
v-6.5v-6.5q0 -14 2.5 -32.5t7.5 -38.5q0 -2 0.5 -4t1.5 -4v0z" />
    <glyph glyph-name="questiondown" unicode="&#xbf;" 
d="M131 426h188v-392h179v-34h-396v34h180v358h-151v34v0zM198 544q0 3 0.5 5.5t1.5 5.5q3 9 11.5 17t22.5 8t22.5 -8t11.5 -17q1 -3 1.5 -5.5t0.5 -5.5q0 -2 -0.5 -5t-1.5 -6q-3 -9 -11.5 -17t-22.5 -8t-22.5 8t-11.5 17q-1 3 -1.5 6t-0.5 5v0zM330 544q0 3 0.5 5.5
t1.5 5.5q3 9 11.5 17t22.5 8t22.5 -8t11.5 -17q1 -3 1.5 -5.5t0.5 -5.5q0 -2 -0.5 -5t-1.5 -6q-3 -9 -11.5 -17t-22.5 -8t-22.5 8t-11.5 17q-1 3 -1.5 6t-0.5 5v0z" />
    <glyph glyph-name="Agrave" unicode="&#xc0;" 
d="M115 562h208l216 -528h51v-34h-196v34h107l-63 153h-278l-65 -153h110v-34h-195v34h51l205 494h-151v34v0zM426 221l-126 307h-2l-125 -307h253v0z" />
    <glyph glyph-name="Agrave" unicode="&#x410;" 
d="M115 562h208l216 -528h51v-34h-196v34h107l-63 153h-278l-65 -153h110v-34h-195v34h51l205 494h-151v34v0zM426 221l-126 307h-2l-125 -307h253v0z" />
    <glyph glyph-name="Aacute" unicode="&#xc1;" 
d="M50 562h464l4 -173h-33l-10 139h-300v-213h164q94 0 138.5 -31t60.5 -69q8 -19 11 -37t3 -32v-5.5v-5.5q-4 -51 -47.5 -93t-142.5 -42h-312v34h88v494h-88v34v0zM175 34h129h6h7h32.5t35.5 2q47 5 85.5 28t38.5 87q0 58 -32.5 85t-72.5 36q-23 6 -45 7.5t-37 1.5h-147
v-247v0z" />
    <glyph glyph-name="Aacute" unicode="&#x411;" 
d="M50 562h464l4 -173h-33l-10 139h-300v-213h164q94 0 138.5 -31t60.5 -69q8 -19 11 -37t3 -32v-5.5v-5.5q-4 -51 -47.5 -93t-142.5 -42h-312v34h88v494h-88v34v0zM175 34h129h6h7h32.5t35.5 2q47 5 85.5 28t38.5 87q0 58 -32.5 85t-72.5 36q-23 6 -45 7.5t-37 1.5h-147
v-247v0z" />
    <glyph glyph-name="Acircumflex" unicode="&#xc2;" 
d="M138 528h-88v34h280q101 0 142.5 -42t43.5 -92v-3.5v-2.5q0 -41 -25 -76t-72 -49v-2q59 -9 96 -49t37 -100v-8t-1 -7q-5 -49 -48.5 -90t-140.5 -41h-312v34h88v494v0zM175 34h129h33t35 2q52 4 94.5 27t42.5 88q0 10 -3 24.5t-12 29.5q-15 27 -54.5 49t-117.5 22h-147
v-242v0zM175 528v-218h164q56 0 96.5 31.5t40.5 77.5q0 9 -1.5 19t-5.5 20q-10 26 -42 48t-102 22h-150v0z" />
    <glyph glyph-name="Acircumflex" unicode="&#x412;" 
d="M138 528h-88v34h280q101 0 142.5 -42t43.5 -92v-3.5v-2.5q0 -41 -25 -76t-72 -49v-2q59 -9 96 -49t37 -100v-8t-1 -7q-5 -49 -48.5 -90t-140.5 -41h-312v34h88v494v0zM175 34h129h33t35 2q52 4 94.5 27t42.5 88q0 10 -3 24.5t-12 29.5q-15 27 -54.5 49t-117.5 22h-147
v-242v0zM175 528v-218h164q56 0 96.5 31.5t40.5 77.5q0 9 -1.5 19t-5.5 20q-10 26 -42 48t-102 22h-150v0z" />
    <glyph glyph-name="Atilde" unicode="&#xc3;" 
d="M318 34v-34h-258v34h88v494h-88v34h474l4 -173h-33l-10 139h-310v-494h133v0z" />
    <glyph glyph-name="Atilde" unicode="&#x413;" 
d="M318 34v-34h-258v34h88v494h-88v34h474l4 -173h-33l-10 139h-310v-494h133v0z" />
    <glyph glyph-name="Adieresis" unicode="&#xc4;" 
d="M101 562h455v-34h-88v-494h88v-159h-37v125h-444v-125h-37v159h83q44 117 53.5 207.5t11.5 173.5v3.5v2.5l3 107h-88v34v0zM431 528h-205l-3 -108q-2 -60 -4.5 -110t-10.5 -97q-6 -42 -17 -85.5t-29 -93.5h269v494v0z" />
    <glyph glyph-name="Adieresis" unicode="&#x414;" 
d="M101 562h455v-34h-88v-494h88v-159h-37v125h-444v-125h-37v159h83q44 117 53.5 207.5t11.5 173.5v3.5v2.5l3 107h-88v34v0zM431 528h-205l-3 -108q-2 -60 -4.5 -110t-10.5 -97q-6 -42 -17 -85.5t-29 -93.5h269v494v0z" />
    <glyph glyph-name="Aring" unicode="&#xc5;" 
d="M60 562h474l4 -173h-33l-10 139h-310v-220h181v74h34v-182h-34v74h-181v-240h319l6 140h33v-174h-483v34h88v494h-88v34v0z" />
    <glyph glyph-name="Aring" unicode="&#x415;" 
d="M60 562h474l4 -173h-33l-10 139h-310v-220h181v74h34v-182h-34v74h-181v-240h319l6 140h33v-174h-483v34h88v494h-88v34v0z" />
    <glyph glyph-name="AE" unicode="&#xc6;" 
d="M222 562h157v-34h-60v-249l152 249h-44v34h120v-34h-39l-118 -194q27 -24 43.5 -50t26.5 -52q7 -17 11.5 -34.5t7.5 -34.5l23 -129h52v-34h-81l-25 135q-7 38 -20.5 81.5t-54.5 88.5l-54 -86v-185h70v-34h-177v34h70v185l-54 86q-40 -45 -54 -88.5t-21 -81.5l-25 -135
h-81v34h52l23 129q3 17 7.5 34.5t11.5 34.5q10 26 26.5 52t43.5 50l-118 194h-39v34h120v-34h-44l152 -249v249h-60v34v0z" />
    <glyph glyph-name="AE" unicode="&#x416;" 
d="M222 562h157v-34h-60v-249l152 249h-44v34h120v-34h-39l-118 -194q27 -24 43.5 -50t26.5 -52q7 -17 11.5 -34.5t7.5 -34.5l23 -129h52v-34h-81l-25 135q-7 38 -20.5 81.5t-54.5 88.5l-54 -86v-185h70v-34h-177v34h70v185l-54 86q-40 -45 -54 -88.5t-21 -81.5l-25 -135
h-81v34h52l23 129q3 17 7.5 34.5t11.5 34.5q10 26 26.5 52t43.5 50l-118 194h-39v34h120v-34h-44l152 -249v249h-60v34v0z" />
    <glyph glyph-name="Ccedilla" unicode="&#xc7;" 
d="M235 278v34h62q7 0 13.5 1t13.5 2q37 9 67.5 38.5t30.5 78.5q0 6 -2 22t-12 34q-13 22 -42 40t-87 18q-62 0 -103 -31.5t-47 -120.5l-34 3q3 14 5 27t2 25v7v6q0 25 -4.5 51t-14.5 57l33 7l1 -8q0 -3 1 -6.5t2 -6.5q2 -8 6.5 -14t10.5 -6q5 0 10 2.5t10 6.5q5 3 11.5 6.5
t14.5 7.5q18 8 44.5 14.5t63.5 6.5q77 0 116 -34t50 -74q3 -9 4 -18t1 -18q0 -10 -1.5 -21.5t-4.5 -23.5q-8 -27 -28.5 -52t-57.5 -38q62 -12 94.5 -53.5t32.5 -91.5q0 -12 -2 -25.5t-6 -26.5q-15 -46 -61 -83.5t-134 -37.5q-36 0 -89 8.5t-117 46.5l-18 11l19 37
q5 -4 11 -8t13 -8q32 -20 80 -37t106 -17q73 0 112 41t43 90v5.5v5.5q0 49 -38.5 84.5t-117.5 35.5h-63v0z" />
    <glyph glyph-name="Ccedilla" unicode="&#x417;" 
d="M235 278v34h62q7 0 13.5 1t13.5 2q37 9 67.5 38.5t30.5 78.5q0 6 -2 22t-12 34q-13 22 -42 40t-87 18q-62 0 -103 -31.5t-47 -120.5l-34 3q3 14 5 27t2 25v7v6q0 25 -4.5 51t-14.5 57l33 7l1 -8q0 -3 1 -6.5t2 -6.5q2 -8 6.5 -14t10.5 -6q5 0 10 2.5t10 6.5q5 3 11.5 6.5
t14.5 7.5q18 8 44.5 14.5t63.5 6.5q77 0 116 -34t50 -74q3 -9 4 -18t1 -18q0 -10 -1.5 -21.5t-4.5 -23.5q-8 -27 -28.5 -52t-57.5 -38q62 -12 94.5 -53.5t32.5 -91.5q0 -12 -2 -25.5t-6 -26.5q-15 -46 -61 -83.5t-134 -37.5q-36 0 -89 8.5t-117 46.5l-18 11l19 37
q5 -4 11 -8t13 -8q32 -20 80 -37t106 -17q73 0 112 41t43 90v5.5v5.5q0 49 -38.5 84.5t-117.5 35.5h-63v0z" />
    <glyph glyph-name="Egrave" unicode="&#xc8;" 
d="M39 562h191v-34h-77v-494l273 528h135v-34h-77v-494h77v-34h-191v34h77v494l-273 -528h-135v34h77v494h-77v34v0z" />
    <glyph glyph-name="Egrave" unicode="&#x418;" 
d="M39 562h191v-34h-77v-494l273 528h135v-34h-77v-494h77v-34h-191v34h77v494l-273 -528h-135v34h77v494h-77v34v0z" />
    <glyph glyph-name="Eacute" unicode="&#xc9;" 
d="M39 562h191v-34h-77v-494l273 528h135v-34h-77v-494h77v-34h-191v34h77v494l-273 -528h-135v34h77v494h-77v34v0zM160 690h37q0 -6 1.5 -13.5t5.5 -15.5q8 -16 30.5 -29t69.5 -13t69.5 13t30.5 29q4 8 5.5 15.5t1.5 13.5h37v-1.5v-0.5v-1.5v-1.5q0 -54 -42.5 -78.5
t-101.5 -24.5q-60 0 -102 25t-42 79v0.5v1.5v1.5v0.5v0z" />
    <glyph glyph-name="Eacute" unicode="&#x419;" 
d="M39 562h191v-34h-77v-494l273 528h135v-34h-77v-494h77v-34h-191v34h77v494l-273 -528h-135v34h77v494h-77v34v0zM160 690h37q0 -6 1.5 -13.5t5.5 -15.5q8 -16 30.5 -29t69.5 -13t69.5 13t30.5 29q4 8 5.5 15.5t1.5 13.5h37v-1.5v-0.5v-1.5v-1.5q0 -54 -42.5 -78.5
t-101.5 -24.5q-60 0 -102 25t-42 79v0.5v1.5v1.5v0.5v0z" />
    <glyph glyph-name="Ecircumflex" unicode="&#xca;" 
d="M45 562h213v-34h-88v-277l283 277h-94v34h186v-34h-43l-224 -219q63 -27 98.5 -70t56.5 -90q2 -3 3.5 -6t2.5 -6l45 -103h91v-34h-116l-46 111q-22 52 -57.5 99t-102.5 74l-83 -81v-169h88v-34h-213v34h88v494h-88v34v0z" />
    <glyph glyph-name="Ecircumflex" unicode="&#x41a;" 
d="M45 562h213v-34h-88v-277l283 277h-94v34h186v-34h-43l-224 -219q63 -27 98.5 -70t56.5 -90q2 -3 3.5 -6t2.5 -6l45 -103h91v-34h-116l-46 111q-22 52 -57.5 99t-102.5 74l-83 -81v-169h88v-34h-213v34h88v494h-88v34v0z" />
    <glyph glyph-name="Edieresis" unicode="&#xcb;" 
d="M106 562h455v-34h-88v-494h88v-34h-213v34h88v494h-205v-144v-17v-18v-40v-41q-2 -104 -28 -189.5t-120 -85.5q-12 0 -22.5 2t-21.5 5v34q14 -6 27 -9t24 -2q78 0 91 112.5t13 247.5v1.5v1.5v142h-88v34v0z" />
    <glyph glyph-name="Edieresis" unicode="&#x41b;" 
d="M106 562h455v-34h-88v-494h88v-34h-213v34h88v494h-205v-144v-17v-18v-40v-41q-2 -104 -28 -189.5t-120 -85.5q-12 0 -22.5 2t-21.5 5v34q14 -6 27 -9t24 -2q78 0 91 112.5t13 247.5v1.5v1.5v142h-88v34v0z" />
    <glyph glyph-name="Igrave" unicode="&#xcc;" 
d="M11 562h147l142 -360l142 360h147v-34h-77v-494h77v-34h-217v34h103v494h-6l-159 -386h-20l-159 386h-6v-494h103v-34h-217v34h77v494h-77v34v0z" />
    <glyph glyph-name="Igrave" unicode="&#x41c;" 
d="M11 562h147l142 -360l142 360h147v-34h-77v-494h77v-34h-217v34h103v494h-6l-159 -386h-20l-159 386h-6v-494h103v-34h-217v34h77v494h-77v34v0z" />
    <glyph glyph-name="Iacute" unicode="&#xcd;" 
d="M39 562h191v-34h-77v-220h294v220h-77v34h191v-34h-77v-494h77v-34h-191v34h77v240h-294v-240h77v-34h-191v34h77v494h-77v34v0z" />
    <glyph glyph-name="Iacute" unicode="&#x41d;" 
d="M39 562h191v-34h-77v-220h294v220h-77v34h191v-34h-77v-494h77v-34h-191v34h77v240h-294v-240h77v-34h-191v34h77v494h-77v34v0z" />
    <glyph glyph-name="Icircumflex" unicode="&#xce;" 
d="M557 281q0 -127 -71.5 -212.5t-185.5 -85.5t-185.5 85.5t-71.5 212.5t71.5 213t185.5 86t185.5 -86t71.5 -213v0zM86 281q0 -106 57.5 -185.5t156.5 -79.5t156.5 79.5t57.5 185.5q0 107 -57.5 186t-156.5 79t-156.5 -79t-57.5 -186v0z" />
    <glyph glyph-name="Icircumflex" unicode="&#x41e;" 
d="M557 281q0 -127 -71.5 -212.5t-185.5 -85.5t-185.5 85.5t-71.5 212.5t71.5 213t185.5 86t185.5 -86t71.5 -213v0zM86 281q0 -106 57.5 -185.5t156.5 -79.5t156.5 79.5t57.5 185.5q0 107 -57.5 186t-156.5 79t-156.5 -79t-57.5 -186v0z" />
    <glyph glyph-name="Idieresis" unicode="&#xcf;" 
d="M39 562h522v-34h-88v-494h88v-34h-202v34h77v494h-272v-494h77v-34h-202v34h88v494h-88v34v0z" />
    <glyph glyph-name="Idieresis" unicode="&#x41f;" 
d="M39 562h522v-34h-88v-494h88v-34h-202v34h77v494h-272v-494h77v-34h-202v34h88v494h-88v34v0z" />
    <glyph glyph-name="Eth" unicode="&#xd0;" 
d="M86 562h261q96 0 150 -50t54 -121q0 -13 -2 -27t-7 -28q-14 -41 -58 -75.5t-137 -34.5h-138v-192h150v-34h-273v34h86v494h-86v34v0zM209 528v-268h144q68 0 101 24t45 52q7 16 9.5 31t2.5 26q0 58 -42.5 96.5t-107.5 38.5h-152v0z" />
    <glyph glyph-name="Eth" unicode="&#x420;" 
d="M86 562h261q96 0 150 -50t54 -121q0 -13 -2 -27t-7 -28q-14 -41 -58 -75.5t-137 -34.5h-138v-192h150v-34h-273v34h86v494h-86v34v0zM209 528v-268h144q68 0 101 24t45 52q7 16 9.5 31t2.5 26q0 58 -42.5 96.5t-107.5 38.5h-152v0z" />
    <glyph glyph-name="Ntilde" unicode="&#xd1;" 
d="M533 384l-33 -7q-3 84 -59 126.5t-126 42.5q-94 0 -159 -71.5t-65 -186.5q0 -114 61.5 -193t163.5 -79q41 0 77 11.5t62 25.5q21 11 35 21t19 14l23 -30q-35 -26 -76 -44t-83 -26q-14 -2 -27.5 -3.5t-27.5 -1.5q-124 0 -197 88t-73 216q0 137 80 215t186 78q27 0 67 -8
t86 -43q1 0 1.5 -1t2.5 -1q1 -1 3.5 -2t5.5 -1q2 0 3.5 0.5t3.5 1.5q5 3 9 12t4 24v3l32 -7l-1 -5q-6 -31 -7.5 -49.5t-1.5 -31.5q0 -26 2 -45t7 -37l1.5 -3t0.5 -3v0z" />
    <glyph glyph-name="Ntilde" unicode="&#x421;" 
d="M533 384l-33 -7q-3 84 -59 126.5t-126 42.5q-94 0 -159 -71.5t-65 -186.5q0 -114 61.5 -193t163.5 -79q41 0 77 11.5t62 25.5q21 11 35 21t19 14l23 -30q-35 -26 -76 -44t-83 -26q-14 -2 -27.5 -3.5t-27.5 -1.5q-124 0 -197 88t-73 216q0 137 80 215t186 78q27 0 67 -8
t86 -43q1 0 1.5 -1t2.5 -1q1 -1 3.5 -2t5.5 -1q2 0 3.5 0.5t3.5 1.5q5 3 9 12t4 24v3l32 -7l-1 -5q-6 -31 -7.5 -49.5t-1.5 -31.5q0 -26 2 -45t7 -37l1.5 -3t0.5 -3v0z" />
    <glyph glyph-name="Ograve" unicode="&#xd2;" 
d="M521 330l-14 198h-188v-494h124v-34h-285v34h124v494h-188l-14 -198l-35 5l17 227h477l17 -227l-35 -5v0z" />
    <glyph glyph-name="Ograve" unicode="&#x422;" 
d="M521 330l-14 198h-188v-494h124v-34h-285v34h124v494h-188l-14 -198l-35 5l17 227h477l17 -227l-35 -5v0z" />
    <glyph glyph-name="Oacute" unicode="&#xd3;" 
d="M3 562h204v-34h-100l199 -381l187 381h-100v34h204v-34h-67l-205 -424q-1 -3 -2.5 -5.5t-2.5 -5.5q-25 -50 -54.5 -80t-80.5 -30q-9 0 -18 2t-19 6q-14 5 -27.5 13t-25.5 18l20 31q3 -3 6.5 -6t7.5 -6q6 -4 13 -8.5t15 -8.5q7 -3 15 -5.5t14 -2.5q21 0 36.5 11t25.5 24
q7 10 12 19.5t7 13.5l16 29l-213 415h-67v34v0z" />
    <glyph glyph-name="Oacute" unicode="&#x423;" 
d="M3 562h204v-34h-100l199 -381l187 381h-100v34h204v-34h-67l-205 -424q-1 -3 -2.5 -5.5t-2.5 -5.5q-25 -50 -54.5 -80t-80.5 -30q-9 0 -18 2t-19 6q-14 5 -27.5 13t-25.5 18l20 31q3 -3 6.5 -6t7.5 -6q6 -4 13 -8.5t15 -8.5q7 -3 15 -5.5t14 -2.5q21 0 36.5 11t25.5 24
q7 10 12 19.5t7 13.5l16 29l-213 415h-67v34v0z" />
    <glyph glyph-name="Ocircumflex" unicode="&#xd4;" 
d="M205 578h191v-34h-77v-36q109 -1 172 -66.5t67 -143.5v-4.5v-4.5v-6.5t-1 -7.5q-5 -76 -68 -140t-170 -65v-36h77v-34h-191v34h77v36q-107 1 -170 65t-68 140q-1 4 -1 7.5v6.5v4.5v4.5q4 78 67 143.5t172 66.5v36h-77v34v0zM86 289q0 -5 0.5 -9.5t0.5 -9.5q7 -61 58 -112
t137 -54v370q-86 -3 -137 -54t-58 -112q0 -5 -0.5 -9.5t-0.5 -9.5v0zM515 289q0 5 -0.5 9.5t-0.5 9.5q-7 61 -58 112t-137 54v-370q86 3 137 54t58 112q0 5 0.5 9.5t0.5 9.5v0z" />
    <glyph glyph-name="Ocircumflex" unicode="&#x424;" 
d="M205 578h191v-34h-77v-36q109 -1 172 -66.5t67 -143.5v-4.5v-4.5v-6.5t-1 -7.5q-5 -76 -68 -140t-170 -65v-36h77v-34h-191v34h77v36q-107 1 -170 65t-68 140q-1 4 -1 7.5v6.5v4.5v4.5q4 78 67 143.5t172 66.5v36h-77v34v0zM86 289q0 -5 0.5 -9.5t0.5 -9.5q7 -61 58 -112
t137 -54v370q-86 -3 -137 -54t-58 -112q0 -5 -0.5 -9.5t-0.5 -9.5v0zM515 289q0 5 -0.5 9.5t-0.5 9.5q-7 61 -58 112t-137 54v-370q86 3 137 54t58 112q0 5 0.5 9.5t0.5 9.5v0z" />
    <glyph glyph-name="Otilde" unicode="&#xd5;" 
d="M51 528v34h185v-34h-91l155 -206l155 206h-91v34h185v-34h-50l-176 -232l200 -262h47v-34h-206v34h116l-180 236l-180 -236h116v-34h-206v34h47l200 262l-176 232h-50v0z" />
    <glyph glyph-name="Otilde" unicode="&#x425;" 
d="M51 528v34h185v-34h-91l155 -206l155 206h-91v34h185v-34h-50l-176 -232l200 -262h47v-34h-206v34h116l-180 236l-180 -236h116v-34h-206v34h47l200 262l-176 232h-50v0z" />
    <glyph glyph-name="Odieresis" unicode="&#xd6;" 
d="M39 562h202v-34h-77v-494h272v494h-77v34h202v-34h-88v-494h88v-159h-37v125h-485v34h88v494h-88v34v0z" />
    <glyph glyph-name="Odieresis" unicode="&#x426;" 
d="M39 562h202v-34h-77v-494h272v494h-77v34h202v-34h-88v-494h88v-159h-37v125h-485v34h88v494h-88v34v0z" />
    <glyph glyph-name="multiply" unicode="&#xd7;" 
d="M39 562h191v-34h-66v-92v-8v-7v-14v-14q1 -44 24 -80t112 -36q36 0 69.5 5.5t66.5 15.5v230h-77v34h202v-34h-88v-494h88v-34h-235v34h110v230q-50 -16 -89 -18.5t-58 -2.5h-1.5h-1.5q-119 0 -139 58t-20 131v3.5v3.5v89h-88v34v0z" />
    <glyph glyph-name="multiply" unicode="&#x427;" 
d="M39 562h191v-34h-66v-92v-8v-7v-14v-14q1 -44 24 -80t112 -36q36 0 69.5 5.5t66.5 15.5v230h-77v34h202v-34h-88v-494h88v-34h-235v34h110v230q-50 -16 -89 -18.5t-58 -2.5h-1.5h-1.5q-119 0 -139 58t-20 131v3.5v3.5v89h-88v34v0z" />
    <glyph glyph-name="Oslash" unicode="&#xd8;" 
d="M29 562h165v-34h-50v-494h138v494h-50v34h137v-34h-50v-494h138v494h-50v34h164v-34h-77v-494h77v-34h-542v34h78v494h-78v34v0z" />
    <glyph glyph-name="Oslash" unicode="&#x428;" 
d="M29 562h165v-34h-50v-494h138v494h-50v34h137v-34h-50v-494h138v494h-50v34h164v-34h-77v-494h77v-34h-542v34h78v494h-78v34v0z" />
    <glyph glyph-name="Ugrave" unicode="&#xd9;" 
d="M31 562h165v-34h-50v-494h137v494h-50v34h137v-34h-50v-494h137v494h-50v34h164v-34h-77v-494h76v-159h-37v125h-502v34h78v494h-78v34v0z" />
    <glyph glyph-name="Ugrave" unicode="&#x429;" 
d="M31 562h165v-34h-50v-494h137v494h-50v34h137v-34h-50v-494h137v494h-50v34h164v-34h-77v-494h76v-159h-37v125h-502v34h78v494h-78v34v0z" />
    <glyph glyph-name="Uacute" unicode="&#xda;" 
d="M193 528h-131l-9 -139h-33l3 173h292v-34h-85v-213h118q94 0 138.5 -31t60.5 -69q8 -19 11 -37t3 -32v-5.5v-5.5q-4 -51 -47.5 -93t-142.5 -42h-266v34h88v494v0zM230 34h83h6h7h32.5t35.5 2q47 5 85.5 28t38.5 87q0 58 -32.5 85t-72.5 36q-23 6 -45 7.5t-37 1.5h-101
v-247v0z" />
    <glyph glyph-name="Uacute" unicode="&#x42a;" 
d="M193 528h-131l-9 -139h-33l3 173h292v-34h-85v-213h118q94 0 138.5 -31t60.5 -69q8 -19 11 -37t3 -32v-5.5v-5.5q-4 -51 -47.5 -93t-142.5 -42h-266v34h88v494v0zM230 34h83h6h7h32.5t35.5 2q47 5 85.5 28t38.5 87q0 58 -32.5 85t-72.5 36q-23 6 -45 7.5t-37 1.5h-101
v-247v0z" />
    <glyph glyph-name="Ucircumflex" unicode="&#xdb;" 
d="M25 562h188v-34h-91v-213h74q112 0 158.5 -46t53.5 -101q0 -5 0.5 -10.5t0.5 -11.5q0 -67 -50 -106.5t-140 -39.5h-194v34h60v494h-60v34v0zM192 281h-70v-247h72h0.5h0.5q13 0 34 1t44 6q35 8 64 32.5t29 77.5q0 58 -41.5 94t-132.5 36v0zM473 528h-60v34h157v-34h-60
v-494h60v-34h-157v34h60v494v0z" />
    <glyph glyph-name="Ucircumflex" unicode="&#x42b;" 
d="M25 562h188v-34h-91v-213h74q112 0 158.5 -46t53.5 -101q0 -5 0.5 -10.5t0.5 -11.5q0 -67 -50 -106.5t-140 -39.5h-194v34h60v494h-60v34v0zM192 281h-70v-247h72h0.5h0.5q13 0 34 1t44 6q35 8 64 32.5t29 77.5q0 58 -41.5 94t-132.5 36v0zM473 528h-60v34h157v-34h-60
v-494h60v-34h-157v34h60v494v0z" />
    <glyph glyph-name="Udieresis" unicode="&#xdc;" 
d="M50 562h234v-34h-109v-213h164q94 0 138.5 -31t60.5 -69q8 -19 11 -37t3 -32v-5.5v-5.5q-4 -51 -47.5 -93t-142.5 -42h-312v34h88v494h-88v34v0zM175 34h129h6h7h32.5t35.5 2q47 5 85.5 28t38.5 87q0 58 -32.5 85t-72.5 36q-23 6 -45 7.5t-37 1.5h-147v-247v0z" />
    <glyph glyph-name="Udieresis" unicode="&#x42c;" 
d="M50 562h234v-34h-109v-213h164q94 0 138.5 -31t60.5 -69q8 -19 11 -37t3 -32v-5.5v-5.5q-4 -51 -47.5 -93t-142.5 -42h-312v34h88v494h-88v34v0zM175 34h129h6h7h32.5t35.5 2q47 5 85.5 28t38.5 87q0 58 -32.5 85t-72.5 36q-23 6 -45 7.5t-37 1.5h-147v-247v0z" />
    <glyph glyph-name="Yacute" unicode="&#xdd;" 
d="M227 274v34h269q1 109 -51.5 162.5t-115.5 68.5q-15 4 -29.5 5.5t-28.5 1.5q-69 0 -106.5 -29t-55.5 -64q-11 -22 -16 -42.5t-7 -33.5l-33 7q7 31 9 47.5t2 30.5v4.5v4.5q0 14 -1 32t-8 50l-1 5l32 7l1 -8q2 -20 7 -26.5t11 -6.5q5 0 9.5 2t8.5 5q3 2 6 3.5t6 3.5
q26 16 58.5 29t78.5 13q17 0 35 -2t36 -6q73 -18 134 -82.5t61 -202.5q0 -151 -83 -227.5t-187 -76.5q-10 0 -19.5 0.5t-19.5 2.5q-46 6 -91 25t-84 47l23 30q32 -25 68.5 -42t74.5 -25q12 -2 25 -3.5t25 -1.5q101 0 162.5 78.5t62.5 179.5h-268v0z" />
    <glyph glyph-name="Yacute" unicode="&#x42d;" 
d="M227 274v34h269q1 109 -51.5 162.5t-115.5 68.5q-15 4 -29.5 5.5t-28.5 1.5q-69 0 -106.5 -29t-55.5 -64q-11 -22 -16 -42.5t-7 -33.5l-33 7q7 31 9 47.5t2 30.5v4.5v4.5q0 14 -1 32t-8 50l-1 5l32 7l1 -8q2 -20 7 -26.5t11 -6.5q5 0 9.5 2t8.5 5q3 2 6 3.5t6 3.5
q26 16 58.5 29t78.5 13q17 0 35 -2t36 -6q73 -18 134 -82.5t61 -202.5q0 -151 -83 -227.5t-187 -76.5q-10 0 -19.5 0.5t-19.5 2.5q-46 6 -91 25t-84 47l23 30q32 -25 68.5 -42t74.5 -25q12 -2 25 -3.5t25 -1.5q101 0 162.5 78.5t62.5 179.5h-268v0z" />
    <glyph glyph-name="Thorn" unicode="&#xde;" 
d="M141 308h66q2 122 55.5 197t123.5 75q14 0 30.5 -4.5t32.5 -13.5q44 -25 80.5 -91t36.5 -190t-36.5 -190t-80.5 -91q-16 -8 -32.5 -12.5t-30.5 -4.5q-6 0 -12 0.5t-12 2.5q-59 13 -107.5 83.5t-48.5 191.5v3.5v3.5v3v3h-65v-240h65v-34h-167v34h65v494h-65v34h167v-34
h-65v-220v0zM249 281q0 -122 33 -182.5t73 -76.5q8 -3 15.5 -4.5t15.5 -1.5t15.5 1.5t15.5 4.5q40 16 73 76.5t33 182.5t-33 182.5t-73 76.5q-8 3 -15.5 4.5t-15.5 1.5t-15.5 -1.5t-15.5 -4.5q-40 -16 -73 -76.5t-33 -182.5v0z" />
    <glyph glyph-name="Thorn" unicode="&#x42e;" 
d="M141 308h66q2 122 55.5 197t123.5 75q14 0 30.5 -4.5t32.5 -13.5q44 -25 80.5 -91t36.5 -190t-36.5 -190t-80.5 -91q-16 -8 -32.5 -12.5t-30.5 -4.5q-6 0 -12 0.5t-12 2.5q-59 13 -107.5 83.5t-48.5 191.5v3.5v3.5v3v3h-65v-240h65v-34h-167v34h65v494h-65v34h167v-34
h-65v-220v0zM249 281q0 -122 33 -182.5t73 -76.5q8 -3 15.5 -4.5t15.5 -1.5t15.5 1.5t15.5 4.5q40 16 73 76.5t33 182.5t-33 182.5t-73 76.5q-8 3 -15.5 4.5t-15.5 1.5t-15.5 -1.5t-15.5 -4.5q-40 -16 -73 -76.5t-33 -182.5v0z" />
    <glyph glyph-name="germandbls" unicode="&#xdf;" 
d="M286 562h295v-34h-84v-494h84v-34h-213v34h92v228h-134l-175 -262h-106v34h79l156 231q-67 4 -111 46t-44 109q0 66 49 104t112 38v0zM460 528h-156q-61 0 -89.5 -21.5t-38.5 -47.5q-5 -12 -6.5 -23t-1.5 -20v-5.5v-5.5q4 -41 37 -75t116 -34h139v232v0z" />
    <glyph glyph-name="germandbls" unicode="&#x42f;" 
d="M286 562h295v-34h-84v-494h84v-34h-213v34h92v228h-134l-175 -262h-106v34h79l156 231q-67 4 -111 46t-44 109q0 66 49 104t112 38v0zM460 528h-156q-61 0 -89.5 -21.5t-38.5 -47.5q-5 -12 -6.5 -23t-1.5 -20v-5.5v-5.5q4 -41 37 -75t116 -34h139v232v0z" />
    <glyph glyph-name="agrave" unicode="&#xe0;" 
d="M462 34h90v-34h-127v84l-4 -4l-4 -4q-34 -34 -85 -62t-110 -28q-68 0 -115 39.5t-47 98.5q0 11 2 22.5t7 23.5q15 38 58.5 69.5t124.5 31.5q17 0 37 -1t41 -3q13 -1 27 -2t26 -2q12 -2 22.5 -3t19.5 -2v41q0 55 -36 81.5t-98 26.5q-21 0 -43.5 -3t-45.5 -9
q-21 -6 -41 -13t-39 -16l-14 32q67 29 113 36t72 7q78 0 115 -28t48 -62q3 -9 4.5 -18.5t1.5 -18.5v-280v0zM425 133v90q-6 1 -13.5 2t-15.5 2q-9 1 -19 2l-20 2q-23 3 -44.5 4.5t-36.5 1.5q-76 0 -114.5 -25t-50.5 -54q-4 -10 -6 -19t-2 -17q0 -5 0.5 -10t1.5 -10
q8 -31 37.5 -57t79.5 -26q11 0 22.5 1.5t22.5 4.5q44 11 85.5 40t72.5 68v0z" />
    <glyph glyph-name="agrave" unicode="&#x430;" 
d="M462 34h90v-34h-127v84l-4 -4l-4 -4q-34 -34 -85 -62t-110 -28q-68 0 -115 39.5t-47 98.5q0 11 2 22.5t7 23.5q15 38 58.5 69.5t124.5 31.5q17 0 37 -1t41 -3q13 -1 27 -2t26 -2q12 -2 22.5 -3t19.5 -2v41q0 55 -36 81.5t-98 26.5q-21 0 -43.5 -3t-45.5 -9
q-21 -6 -41 -13t-39 -16l-14 32q67 29 113 36t72 7q78 0 115 -28t48 -62q3 -9 4.5 -18.5t1.5 -18.5v-280v0zM425 133v90q-6 1 -13.5 2t-15.5 2q-9 1 -19 2l-20 2q-23 3 -44.5 4.5t-36.5 1.5q-76 0 -114.5 -25t-50.5 -54q-4 -10 -6 -19t-2 -17q0 -5 0.5 -10t1.5 -10
q8 -31 37.5 -57t79.5 -26q11 0 22.5 1.5t22.5 4.5q44 11 85.5 40t72.5 68v0z" />
    <glyph glyph-name="aacute" unicode="&#xe1;" 
d="M472 634l12 -36q-21 -9 -39 -15t-36 -9q-17 -3 -33.5 -4.5t-35.5 -2.5q-2 -1 -3.5 -1h-3.5q-16 -1 -34 -2.5t-36 -4.5q-28 -5 -55.5 -15.5t-47.5 -31.5q-28 -29 -40.5 -81t-17.5 -132h3q23 63 76 95t120 32q99 0 165 -64t66 -159q0 -90 -67 -153.5t-164 -63.5
q-113 0 -161 57t-62 126q-7 32 -8.5 62.5t-1.5 55.5q0 209 67 258t180 59q7 1 13.5 1.5t12.5 0.5q23 3 43 5.5t40 7.5q12 2 23.5 6t24.5 9v0zM489 203q0 76 -50.5 132.5t-137.5 56.5q-88 0 -137.5 -57t-49.5 -132q0 -72 50.5 -128t136.5 -56q84 0 136 55.5t52 128.5v0z" />
    <glyph glyph-name="aacute" unicode="&#x431;" 
d="M472 634l12 -36q-21 -9 -39 -15t-36 -9q-17 -3 -33.5 -4.5t-35.5 -2.5q-2 -1 -3.5 -1h-3.5q-16 -1 -34 -2.5t-36 -4.5q-28 -5 -55.5 -15.5t-47.5 -31.5q-28 -29 -40.5 -81t-17.5 -132h3q23 63 76 95t120 32q99 0 165 -64t66 -159q0 -90 -67 -153.5t-164 -63.5
q-113 0 -161 57t-62 126q-7 32 -8.5 62.5t-1.5 55.5q0 209 67 258t180 59q7 1 13.5 1.5t12.5 0.5q23 3 43 5.5t40 7.5q12 2 23.5 6t24.5 9v0zM489 203q0 76 -50.5 132.5t-137.5 56.5q-88 0 -137.5 -57t-49.5 -132q0 -72 50.5 -128t136.5 -56q84 0 136 55.5t52 128.5v0z" />
    <glyph glyph-name="acircumflex" unicode="&#xe2;" 
d="M75 426h287q60 0 89.5 -20.5t40.5 -44.5q4 -11 6 -21.5t2 -19.5q0 -37 -19.5 -59.5t-43.5 -32.5q-1 0 -2.5 -1t-2.5 -1v-2q47 -9 72.5 -40.5t25.5 -72.5q0 -8 -2.5 -22.5t-11.5 -29.5q-12 -22 -42 -40.5t-88 -18.5h-311v34h85v358h-85v34v0zM197 205v-171h153
q11 0 25 0.5t29 2.5q31 4 57 20t26 57q0 54 -43 72.5t-101 18.5h-146v0zM197 392v-153h159q41 0 63.5 14.5t31.5 31.5q5 9 7 17.5t2 15.5q0 36 -22.5 51.5t-49.5 19.5q-11 2 -22.5 2.5t-20.5 0.5h-148v0z" />
    <glyph glyph-name="acircumflex" unicode="&#x432;" 
d="M75 426h287q60 0 89.5 -20.5t40.5 -44.5q4 -11 6 -21.5t2 -19.5q0 -37 -19.5 -59.5t-43.5 -32.5q-1 0 -2.5 -1t-2.5 -1v-2q47 -9 72.5 -40.5t25.5 -72.5q0 -8 -2.5 -22.5t-11.5 -29.5q-12 -22 -42 -40.5t-88 -18.5h-311v34h85v358h-85v34v0zM197 205v-171h153
q11 0 25 0.5t29 2.5q31 4 57 20t26 57q0 54 -43 72.5t-101 18.5h-146v0zM197 392v-153h159q41 0 63.5 14.5t31.5 31.5q5 9 7 17.5t2 15.5q0 36 -22.5 51.5t-49.5 19.5q-11 2 -22.5 2.5t-20.5 0.5h-148v0z" />
    <glyph glyph-name="atilde" unicode="&#xe3;" 
d="M84 426h444l13 -170l-36 -4l-14 140h-250v-358h165v-34h-331v34h129v358h-120v34v0z" />
    <glyph glyph-name="atilde" unicode="&#x433;" 
d="M84 426h444l13 -170l-36 -4l-14 140h-250v-358h165v-34h-331v34h129v358h-120v34v0z" />
    <glyph glyph-name="adieresis" unicode="&#xe4;" 
d="M194 392h-85v34h446v-34h-85v-358h85v-154h-37v120h-441v-120h-37v154h86q19 36 32 66t20 59q9 35 12.5 71t3.5 83v79v0zM433 392h-202v-77q0 -61 -5.5 -107t-19.5 -89q-8 -20 -17.5 -41t-21.5 -44h266v358v0z" />
    <glyph glyph-name="adieresis" unicode="&#x434;" 
d="M194 392h-85v34h446v-34h-85v-358h85v-154h-37v120h-441v-120h-37v154h86q19 36 32 66t20 59q9 35 12.5 71t3.5 83v79v0zM433 392h-202v-77q0 -61 -5.5 -107t-19.5 -89q-8 -20 -17.5 -41t-21.5 -44h266v358v0z" />
    <glyph glyph-name="aring" unicode="&#xe5;" 
d="M524 81l17 -32q-33 -17 -76 -33t-87 -23q-17 -4 -34 -5.5t-33 -1.5q-101 0 -169.5 65t-68.5 159q0 98 67.5 164.5t170.5 66.5q14 0 29.5 -1.5t30.5 -4.5q61 -14 111.5 -61.5t50.5 -148.5v-20h-417q4 -76 55.5 -131t140.5 -55h11.5t11.5 1q40 3 79 15t70 26q11 5 21.5 10
t18.5 10v0zM116 239h379q-1 83 -56.5 125.5t-129.5 42.5q-4 0 -33.5 -3t-63.5 -20q-33 -16 -61 -50t-35 -95v0z" />
    <glyph glyph-name="aring" unicode="&#x435;" 
d="M524 81l17 -32q-33 -17 -76 -33t-87 -23q-17 -4 -34 -5.5t-33 -1.5q-101 0 -169.5 65t-68.5 159q0 98 67.5 164.5t170.5 66.5q14 0 29.5 -1.5t30.5 -4.5q61 -14 111.5 -61.5t50.5 -148.5v-20h-417q4 -76 55.5 -131t140.5 -55h11.5t11.5 1q40 3 79 15t70 26q11 5 21.5 10
t18.5 10v0zM116 239h379q-1 83 -56.5 125.5t-129.5 42.5q-4 0 -33.5 -3t-63.5 -20q-33 -16 -61 -50t-35 -95v0z" />
    <glyph glyph-name="ae" unicode="&#xe6;" 
d="M221 426h157v-34h-60v-181l152 181h-44v34h120v-34h-39l-113 -134q26 -19 42 -41t27 -44q7 -16 11.5 -31.5t8.5 -29.5l20 -78h50v-34h-81l-22 90q-9 38 -24 74.5t-54 67.5l-54 -66v-132h70v-34h-177v34h70v132l-54 66q-39 -31 -54 -67.5t-24 -74.5l-22 -90h-81v34h50
l20 78q4 14 8.5 29.5t11.5 31.5q11 22 27 44t42 41l-113 134h-39v34h120v-34h-44l152 -181v181h-60v34v0z" />
    <glyph glyph-name="ae" unicode="&#x436;" 
d="M221 426h157v-34h-60v-181l152 181h-44v34h120v-34h-39l-113 -134q26 -19 42 -41t27 -44q7 -16 11.5 -31.5t8.5 -29.5l20 -78h50v-34h-81l-22 90q-9 38 -24 74.5t-54 67.5l-54 -66v-132h70v-34h-177v34h70v132l-54 66q-39 -31 -54 -67.5t-24 -74.5l-22 -90h-81v34h50
l20 78q4 14 8.5 29.5t11.5 31.5q11 22 27 44t42 41l-113 134h-39v34h120v-34h-44l152 -181v181h-60v34v0z" />
    <glyph glyph-name="ccedilla" unicode="&#xe7;" 
d="M252 207v34h55q52 0 88.5 25.5t36.5 60.5q0 3 -0.5 6.5t-1.5 7.5q-6 25 -38 45.5t-103 20.5q-64 0 -103 -21.5t-47 -86.5l-34 2q4 14 5.5 26t1.5 24q0 11 -1.5 21t-3.5 20q-2 9 -5.5 19.5t-8.5 20.5l33 5l1 -6q0 -2 1 -5t2 -5q3 -6 7.5 -10.5t9.5 -4.5q3 0 8 2l15 6
q5 2 11 5t15 6q17 6 43 11t62 5q78 0 118 -27.5t50 -60.5q1 -5 2 -11t1 -12q0 -5 -0.5 -10t-1.5 -10q-7 -27 -29.5 -51t-60.5 -31q57 -4 92 -36t35 -74q0 -9 -2 -19.5t-7 -20.5q-15 -35 -61 -63.5t-133 -28.5q-76 0 -122 13.5t-84 29.5l-18 8l17 32q7 -3 15 -7t17 -7
q33 -14 80 -25t100 -11q67 0 101.5 21.5t46.5 47.5q4 8 5.5 16.5t1.5 15.5t-2 16t-7 17q-11 21 -44 37.5t-103 16.5h-56v0z" />
    <glyph glyph-name="ccedilla" unicode="&#x437;" 
d="M252 207v34h55q52 0 88.5 25.5t36.5 60.5q0 3 -0.5 6.5t-1.5 7.5q-6 25 -38 45.5t-103 20.5q-64 0 -103 -21.5t-47 -86.5l-34 2q4 14 5.5 26t1.5 24q0 11 -1.5 21t-3.5 20q-2 9 -5.5 19.5t-8.5 20.5l33 5l1 -6q0 -2 1 -5t2 -5q3 -6 7.5 -10.5t9.5 -4.5q3 0 8 2l15 6
q5 2 11 5t15 6q17 6 43 11t62 5q78 0 118 -27.5t50 -60.5q1 -5 2 -11t1 -12q0 -5 -0.5 -10t-1.5 -10q-7 -27 -29.5 -51t-60.5 -31q57 -4 92 -36t35 -74q0 -9 -2 -19.5t-7 -20.5q-15 -35 -61 -63.5t-133 -28.5q-76 0 -122 13.5t-84 29.5l-18 8l17 32q7 -3 15 -7t17 -7
q33 -14 80 -25t100 -11q67 0 101.5 21.5t46.5 47.5q4 8 5.5 16.5t1.5 15.5t-2 16t-7 17q-11 21 -44 37.5t-103 16.5h-56v0z" />
    <glyph glyph-name="egrave" unicode="&#xe8;" 
d="M33 392v34h207v-34h-85v-348l278 382h136v-34h-85v-358h85v-34h-207v34h85v354l-283 -388h-131v34h85v358h-85v0z" />
    <glyph glyph-name="egrave" unicode="&#x438;" 
d="M33 392v34h207v-34h-85v-348l278 382h136v-34h-85v-358h85v-34h-207v34h85v354l-283 -388h-131v34h85v358h-85v0z" />
    <glyph glyph-name="eacute" unicode="&#xe9;" 
d="M33 392v34h207v-34h-85v-348l278 382h136v-34h-85v-358h85v-34h-207v34h85v354l-283 -388h-131v34h85v358h-85v0zM157 609h40q0 -6 1.5 -13.5t6.5 -15.5q8 -15 30.5 -27t68.5 -12t68.5 12t30.5 27q5 8 6.5 15.5t1.5 13.5h40v-1.5v-0.5v-1.5v-1.5q0 -54 -42.5 -78.5
t-104.5 -24.5q-61 0 -104 25t-43 79v0.5v1.5v1.5v0.5v0z" />
    <glyph glyph-name="eacute" unicode="&#x439;" 
d="M33 392v34h207v-34h-85v-348l278 382h136v-34h-85v-358h85v-34h-207v34h85v354l-283 -388h-131v34h85v358h-85v0zM157 609h40q0 -6 1.5 -13.5t6.5 -15.5q8 -15 30.5 -27t68.5 -12t68.5 12t30.5 27q5 8 6.5 15.5t1.5 13.5h40v-1.5v-0.5v-1.5v-1.5q0 -54 -42.5 -78.5
t-104.5 -24.5q-61 0 -104 25t-43 79v0.5v1.5v1.5v0.5v0z" />
    <glyph glyph-name="ecircumflex" unicode="&#xea;" 
d="M50 392v34h201v-34h-79v-188l215 188h-67v34h200v-34h-82l-156 -138l204 -220h72v-34h-197v34h72l-179 197l-82 -71v-126h85v-34h-207v34h85v358h-85v0z" />
    <glyph glyph-name="ecircumflex" unicode="&#x43a;" 
d="M50 392v34h201v-34h-79v-188l215 188h-67v34h200v-34h-82l-156 -138l204 -220h72v-34h-197v34h72l-179 197l-82 -71v-126h85v-34h-207v34h85v358h-85v0z" />
    <glyph glyph-name="edieresis" unicode="&#xeb;" 
d="M109 426h446v-34h-85v-358h85v-34h-207v34h85v358h-202v-101q0 -121 -18.5 -209t-122.5 -88q-13 0 -26.5 3.5t-24.5 8.5l10 34q1 -1 2 -1.5t2 -0.5q7 -4 18 -7.5t25 -3.5q68 0 83 63.5t15 145.5v156h-85v34v0z" />
    <glyph glyph-name="edieresis" unicode="&#x43b;" 
d="M109 426h446v-34h-85v-358h85v-34h-207v34h85v358h-202v-101q0 -121 -18.5 -209t-122.5 -88q-13 0 -26.5 3.5t-24.5 8.5l10 34q1 -1 2 -1.5t2 -0.5q7 -4 18 -7.5t25 -3.5q68 0 83 63.5t15 145.5v156h-85v34v0z" />
    <glyph glyph-name="igrave" unicode="&#xec;" 
d="M11 426h141l148 -278l147 278h142v-34h-77v-358h77v-34h-217v34h103v358h-6l-159 -298h-20l-159 298h-6v-358h103v-34h-217v34h77v358h-77v34v0z" />
    <glyph glyph-name="igrave" unicode="&#x43c;" 
d="M11 426h141l148 -278l147 278h142v-34h-77v-358h77v-34h-217v34h103v358h-6l-159 -298h-20l-159 298h-6v-358h103v-34h-217v34h77v358h-77v34v0z" />
    <glyph glyph-name="iacute" unicode="&#xed;" 
d="M32 392v34h207v-34h-85v-153h292v153h-85v34h207v-34h-85v-358h85v-34h-207v34h85v171h-292v-171h85v-34h-207v34h85v358h-85v0z" />
    <glyph glyph-name="iacute" unicode="&#x43d;" 
d="M32 392v34h207v-34h-85v-153h292v153h-85v34h207v-34h-85v-358h85v-34h-207v34h85v171h-292v-171h85v-34h-207v34h85v358h-85v0z" />
    <glyph glyph-name="icircumflex" unicode="&#xee;" 
d="M538 210q0 -93 -57.5 -148t-126.5 -70q-14 -3 -27.5 -4.5t-26.5 -1.5t-26.5 1.5t-27.5 4.5q-69 15 -126.5 70t-57.5 148q0 98 67.5 164.5t170.5 66.5q104 0 171 -66.5t67 -164.5v0zM495 210q0 78 -52 137.5t-143 59.5t-143 -59.5t-52 -137.5q0 -75 53.5 -133t141.5 -58
q89 0 142 58t53 133v0z" />
    <glyph glyph-name="icircumflex" unicode="&#x43e;" 
d="M538 210q0 -93 -57.5 -148t-126.5 -70q-14 -3 -27.5 -4.5t-26.5 -1.5t-26.5 1.5t-27.5 4.5q-69 15 -126.5 70t-57.5 148q0 98 67.5 164.5t170.5 66.5q104 0 171 -66.5t67 -164.5v0zM495 210q0 78 -52 137.5t-143 59.5t-143 -59.5t-52 -137.5q0 -75 53.5 -133t141.5 -58
q89 0 142 58t53 133v0z" />
    <glyph glyph-name="idieresis" unicode="&#xef;" 
d="M32 426h536v-34h-85v-358h85v-34h-207v34h85v358h-292v-358h85v-34h-207v34h85v358h-85v34v0z" />
    <glyph glyph-name="idieresis" unicode="&#x43f;" 
d="M32 426h536v-34h-85v-358h85v-34h-207v34h85v358h-292v-358h85v-34h-207v34h85v358h-85v34v0z" />
    <glyph glyph-name="eth" unicode="&#xf0;" 
d="M291 -157h-275v34h85v515h-85v34h122v-89h2q32 54 81.5 79t102.5 25q104 0 162.5 -69.5t61.5 -152.5v-5v-4q0 -95 -66 -157.5t-144 -66.5h-5h-4q-18 0 -38 3.5t-41 10.5q-30 13 -59.5 36t-50.5 60h-2v-219h153v-34v0zM505 209q0 79 -46.5 138.5t-132.5 59.5h-2.5h-3.5
q-70 -2 -128 -52t-58 -135v-6.5v-7.5q5 -70 55.5 -128.5t131.5 -58.5q73 0 128.5 52.5t55.5 137.5v0z" />
    <glyph glyph-name="eth" unicode="&#x440;" 
d="M291 -157h-275v34h85v515h-85v34h122v-89h2q32 54 81.5 79t102.5 25q104 0 162.5 -69.5t61.5 -152.5v-5v-4q0 -95 -66 -157.5t-144 -66.5h-5h-4q-18 0 -38 3.5t-41 10.5q-30 13 -59.5 36t-50.5 60h-2v-219h153v-34v0zM505 209q0 79 -46.5 138.5t-132.5 59.5h-2.5h-3.5
q-70 -2 -128 -52t-58 -135v-6.5v-7.5q5 -70 55.5 -128.5t131.5 -58.5q73 0 128.5 52.5t55.5 137.5v0z" />
    <glyph glyph-name="ntilde" unicode="&#xf1;" 
d="M515 286l-33 -5q-6 61 -50 93.5t-113 32.5q-94 0 -148.5 -55t-54.5 -140q0 -79 53 -136t138 -57q32 0 59 6t52 18q20 10 40.5 23t43.5 29l20 -29q-67 -52 -118.5 -66t-92.5 -14q-106 0 -161.5 54t-70.5 119q-3 13 -4.5 26t-1.5 25q0 98 67.5 164.5t170.5 66.5
q13 0 49.5 -4.5t82.5 -27.5q2 -1 4.5 -2t5.5 -2q2 -1 4.5 -1.5t4.5 -0.5q11 0 15 12t5 26l33 -6q-1 -4 -2 -7.5t-2 -7.5q-4 -18 -5.5 -34t-1.5 -24q0 -7 1 -16t2 -19q1 -5 2 -10.5t2 -10.5q1 -6 2 -11t2 -9v0z" />
    <glyph glyph-name="ntilde" unicode="&#x441;" 
d="M515 286l-33 -5q-6 61 -50 93.5t-113 32.5q-94 0 -148.5 -55t-54.5 -140q0 -79 53 -136t138 -57q32 0 59 6t52 18q20 10 40.5 23t43.5 29l20 -29q-67 -52 -118.5 -66t-92.5 -14q-106 0 -161.5 54t-70.5 119q-3 13 -4.5 26t-1.5 25q0 98 67.5 164.5t170.5 66.5
q13 0 49.5 -4.5t82.5 -27.5q2 -1 4.5 -2t5.5 -2q2 -1 4.5 -1.5t4.5 -0.5q11 0 15 12t5 26l33 -6q-1 -4 -2 -7.5t-2 -7.5q-4 -18 -5.5 -34t-1.5 -24q0 -7 1 -16t2 -19q1 -5 2 -10.5t2 -10.5q1 -6 2 -11t2 -9v0z" />
    <glyph glyph-name="ograve" unicode="&#xf2;" 
d="M68 426h462l18 -172l-36 -4l-14 142h-180v-358h124v-34h-286v34h124v358h-180l-14 -142l-36 4l18 172v0z" />
    <glyph glyph-name="ograve" unicode="&#x442;" 
d="M68 426h462l18 -172l-36 -4l-14 142h-180v-358h124v-34h-286v34h124v358h-180l-14 -142l-36 4l18 172v0z" />
    <glyph glyph-name="oacute" unicode="&#xf3;" 
d="M-12 426h176v-34h-74l173 -334l191 334h-75v34h173v-34h-55l-296 -515h96v-34h-294v34h157l82 143l-194 372h-60v34v0z" />
    <glyph glyph-name="oacute" unicode="&#x443;" 
d="M-12 426h176v-34h-74l173 -334l191 334h-75v34h173v-34h-55l-296 -515h96v-34h-294v34h157l82 143l-194 372h-60v34v0z" />
    <glyph glyph-name="ocircumflex" unicode="&#xf4;" 
d="M319 -123h120v-34h-277v34h120v108q-106 9 -167.5 76t-61.5 149q0 86 61 155t168 76v150l-97 -7l-3 34l137 11v-188q107 -7 168 -76t61 -155q0 -82 -61.5 -149t-167.5 -75v-109v0zM282 19v388q-83 -5 -130.5 -58.5t-54.5 -116.5q0 -6 -0.5 -11.5t-0.5 -10.5v-3.5v-2.5
q2 -66 51 -122t135 -63v0zM319 407v-388q86 7 135 63t51 122v2.5v3.5q0 5 -0.5 10.5t-0.5 11.5q-7 63 -54.5 116.5t-130.5 58.5v0z" />
    <glyph glyph-name="ocircumflex" unicode="&#x444;" 
d="M319 -123h120v-34h-277v34h120v108q-106 9 -167.5 76t-61.5 149q0 86 61 155t168 76v150l-97 -7l-3 34l137 11v-188q107 -7 168 -76t61 -155q0 -82 -61.5 -149t-167.5 -75v-109v0zM282 19v388q-83 -5 -130.5 -58.5t-54.5 -116.5q0 -6 -0.5 -11.5t-0.5 -10.5v-3.5v-2.5
q2 -66 51 -122t135 -63v0zM319 407v-388q86 7 135 63t51 122v2.5v3.5q0 5 -0.5 10.5t-0.5 11.5q-7 63 -54.5 116.5t-130.5 58.5v0z" />
    <glyph glyph-name="otilde" unicode="&#xf5;" 
d="M43 392v34h183v-34h-70l144 -144l144 144h-70v34h183v-34h-62l-170 -169l189 -189h59v-34h-188v34h78l-163 163l-163 -163h78v-34h-188v34h59l188 189l-169 169h-62v0z" />
    <glyph glyph-name="otilde" unicode="&#x445;" 
d="M43 392v34h183v-34h-70l144 -144l144 144h-70v34h183v-34h-62l-170 -169l189 -189h59v-34h-188v34h78l-163 163l-163 -163h78v-34h-188v34h59l188 189l-169 169h-62v0z" />
    <glyph glyph-name="odieresis" unicode="&#xf6;" 
d="M32 392v34h207v-34h-85v-358h292v358h-85v34h207v-34h-85v-358h85v-154h-37v120h-499v34h85v358h-85v0z" />
    <glyph glyph-name="odieresis" unicode="&#x446;" 
d="M32 392v34h207v-34h-85v-358h292v358h-85v34h207v-34h-85v-358h85v-154h-37v120h-499v34h85v358h-85v0z" />
    <glyph glyph-name="divide" unicode="&#xf7;" 
d="M40 426h188v-34h-66v-62q0 -66 23 -93t113 -27q26 0 49.5 2t46.5 6l20 4l20 4v166h-77v34h199v-34h-85v-358h85v-34h-232v34h110v158q-15 -3 -28.5 -6t-27.5 -4q-22 -3 -45 -4.5t-49 -1.5q-119 0 -139 48t-20 108v0.5v0.5v59h-85v34v0z" />
    <glyph glyph-name="divide" unicode="&#x447;" 
d="M40 426h188v-34h-66v-62q0 -66 23 -93t113 -27q26 0 49.5 2t46.5 6l20 4l20 4v166h-77v34h199v-34h-85v-358h85v-34h-232v34h110v158q-15 -3 -28.5 -6t-27.5 -4q-22 -3 -45 -4.5t-49 -1.5q-119 0 -139 48t-20 108v0.5v0.5v59h-85v34v0z" />
    <glyph glyph-name="oslash" unicode="&#xf8;" 
d="M31 392v34h165v-34h-50v-358h137v358h-50v34h137v-34h-50v-358h137v358h-50v34h164v-34h-77v-358h77v-34h-540v34h78v358h-78v0z" />
    <glyph glyph-name="oslash" unicode="&#x448;" 
d="M31 392v34h165v-34h-50v-358h137v358h-50v34h137v-34h-50v-358h137v358h-50v34h164v-34h-77v-358h77v-34h-540v34h78v358h-78v0z" />
    <glyph glyph-name="ugrave" unicode="&#xf9;" 
d="M29 392v34h165v-34h-50v-358h137v358h-50v34h137v-34h-50v-358h137v358h-50v34h164v-34h-77v-358h80v-155h-37v121h-506v34h78v358h-78v0z" />
    <glyph glyph-name="ugrave" unicode="&#x449;" 
d="M29 392v34h165v-34h-50v-358h137v358h-50v34h137v-34h-50v-358h137v358h-50v34h164v-34h-77v-358h80v-155h-37v121h-506v34h78v358h-78v0z" />
    <glyph glyph-name="uacute" unicode="&#xfa;" 
d="M191 392h-131l-9 -97h-31l3 131h290v-34h-85v-149h118q16 0 42.5 -1t54.5 -7q44 -10 80 -37.5t36 -86.5q0 -50 -32.5 -73t-72.5 -31q-24 -5 -47 -6t-38 -1h-266v34h88v358v0zM228 209v-175h83h4h5h2h2q73 0 132.5 10t59.5 70q0 52 -38 70.5t-84 22.5q-17 2 -33.5 2h-31.5
h-101v0z" />
    <glyph glyph-name="uacute" unicode="&#x44a;" 
d="M191 392h-131l-9 -97h-31l3 131h290v-34h-85v-149h118q16 0 42.5 -1t54.5 -7q44 -10 80 -37.5t36 -86.5q0 -50 -32.5 -73t-72.5 -31q-24 -5 -47 -6t-38 -1h-266v34h88v358v0zM228 209v-175h83h4h5h2h2q73 0 132.5 10t59.5 70q0 52 -38 70.5t-84 22.5q-17 2 -33.5 2h-31.5
h-101v0z" />
    <glyph glyph-name="ucircumflex" unicode="&#xfb;" 
d="M30 426h188v-34h-91v-149h74q17 0 42 -1.5t51 -6.5q45 -10 82.5 -37.5t37.5 -86.5q0 -50 -34 -73t-74 -31q-23 -5 -44.5 -6t-37.5 -1h-194v34h60v358h-60v34v0zM127 34h91h1.5h1.5q12 0 29.5 0.5t35.5 3.5q32 5 58.5 21.5t26.5 54.5q0 8 -1 16.5t-5 17.5q-8 23 -39.5 42
t-107.5 19h-91v-175v0zM476 34v358h-60v34h157v-34h-60v-358h60v-34h-157v34h60v0z" />
    <glyph glyph-name="ucircumflex" unicode="&#x44b;" 
d="M30 426h188v-34h-91v-149h74q17 0 42 -1.5t51 -6.5q45 -10 82.5 -37.5t37.5 -86.5q0 -50 -34 -73t-74 -31q-23 -5 -44.5 -6t-37.5 -1h-194v34h60v358h-60v34v0zM127 34h91h1.5h1.5q12 0 29.5 0.5t35.5 3.5q32 5 58.5 21.5t26.5 54.5q0 8 -1 16.5t-5 17.5q-8 23 -39.5 42
t-107.5 19h-91v-175v0zM476 34v358h-60v34h157v-34h-60v-358h60v-34h-157v34h60v0z" />
    <glyph glyph-name="udieresis" unicode="&#xfc;" 
d="M60 392v34h231v-34h-109v-149h154q18 0 41.5 -1t48.5 -5q46 -8 84.5 -35t38.5 -91q0 -50 -31.5 -73t-70.5 -31q-25 -5 -48 -6t-38 -1h-0.5h-1.5h-299v34h85v358h-85v0zM182 34h155h1.5h1.5q62 0 114 12t52 64q0 63 -47.5 81t-122.5 18h-154v-175v0z" />
    <glyph glyph-name="udieresis" unicode="&#x44c;" 
d="M60 392v34h231v-34h-109v-149h154q18 0 41.5 -1t48.5 -5q46 -8 84.5 -35t38.5 -91q0 -50 -31.5 -73t-70.5 -31q-25 -5 -48 -6t-38 -1h-0.5h-1.5h-299v34h85v358h-85v0zM182 34h155h1.5h1.5q62 0 114 12t52 64q0 63 -47.5 81t-122.5 18h-154v-175v0z" />
    <glyph glyph-name="yacute" unicode="&#xfd;" 
d="M227 204v34h269q-2 79 -53 116.5t-112 47.5q-15 3 -30.5 4t-29.5 1q-80 0 -120 -28t-55 -61q-4 -8 -6.5 -16t-3.5 -16l-33 5q5 18 7.5 30.5t3.5 24.5v6v6q0 6 -1 14t-2 17q-1 5 -2 10.5t-2 10.5q0 2 -0.5 4.5t-1.5 4.5l-1 4l32 5l1 -6q0 -1 0.5 -2.5t0.5 -2.5
q2 -7 4.5 -12.5t7.5 -6.5q1 0 2 -0.5t2 -0.5t2 0.5t2 0.5q7 2 14 5t16 7q30 14 54.5 21t47.5 9q8 0 16 0.5t16 0.5q132 0 199 -62t67 -161q0 -98 -72 -165t-198 -67q-67 0 -115.5 15.5t-80.5 34.5q-4 2 -7.5 4.5t-7.5 4.5l17 32q37 -24 87 -41t109 -17q85 0 152.5 48
t72.5 137h-268v0z" />
    <glyph glyph-name="yacute" unicode="&#x44d;" 
d="M227 204v34h269q-2 79 -53 116.5t-112 47.5q-15 3 -30.5 4t-29.5 1q-80 0 -120 -28t-55 -61q-4 -8 -6.5 -16t-3.5 -16l-33 5q5 18 7.5 30.5t3.5 24.5v6v6q0 6 -1 14t-2 17q-1 5 -2 10.5t-2 10.5q0 2 -0.5 4.5t-1.5 4.5l-1 4l32 5l1 -6q0 -1 0.5 -2.5t0.5 -2.5
q2 -7 4.5 -12.5t7.5 -6.5q1 0 2 -0.5t2 -0.5t2 0.5t2 0.5q7 2 14 5t16 7q30 14 54.5 21t47.5 9q8 0 16 0.5t16 0.5q132 0 199 -62t67 -161q0 -98 -72 -165t-198 -67q-67 0 -115.5 15.5t-80.5 34.5q-4 2 -7.5 4.5t-7.5 4.5l17 32q37 -24 87 -41t109 -17q85 0 152.5 48
t72.5 137h-268v0z" />
    <glyph glyph-name="thorn" unicode="&#xfe;" 
d="M141 238h65q4 92 57 147.5t123 55.5q80 0 130 -65t50 -163q0 -97 -50.5 -162t-129.5 -65t-130 65.5t-50 152.5h-65v-170h65v-34h-167v34h65v358h-65v34h167v-34h-65v-154v0zM249 213q0 -94 42 -144t95 -50t95 50t42 144t-42 144t-95 50t-95 -50t-42 -144v0z" />
    <glyph glyph-name="thorn" unicode="&#x44e;" 
d="M141 238h65q4 92 57 147.5t123 55.5q80 0 130 -65t50 -163q0 -97 -50.5 -162t-129.5 -65t-130 65.5t-50 152.5h-65v-170h65v-34h-167v34h65v358h-65v34h167v-34h-65v-154v0zM249 213q0 -94 42 -144t95 -50t95 50t42 144t-42 144t-95 50t-95 -50t-42 -144v0z" />
    <glyph glyph-name="ydieresis" unicode="&#xff;" 
d="M557 0h-214v34h92v160h-136l-173 -194h-106v34h87l143 160q-76 1 -113 38.5t-37 85.5q0 8 1.5 16t3.5 16q11 28 46 52t110 24h296v-34h-85v-358h85v-34v0zM435 392h-156h-2.5h-2.5q-11 0 -26 -0.5t-30 -2.5q-28 -5 -51.5 -21t-23.5 -53q0 -42 28 -59.5t62 -23.5
q17 -3 33.5 -3.5t29.5 -0.5h139v164v0z" />
    <glyph glyph-name="ydieresis" unicode="&#x44f;" 
d="M557 0h-214v34h92v160h-136l-173 -194h-106v34h87l143 160q-76 1 -113 38.5t-37 85.5q0 8 1.5 16t3.5 16q11 28 46 52t110 24h296v-34h-85v-358h85v-34v0zM435 392h-156h-2.5h-2.5q-11 0 -26 -0.5t-30 -2.5q-28 -5 -51.5 -21t-23.5 -53q0 -42 28 -59.5t62 -23.5
q17 -3 33.5 -3.5t29.5 -0.5h139v164v0z" />
    <glyph glyph-name="Abreve" unicode="&#x102;" 
 />
    <glyph glyph-name="abreve" unicode="&#x103;" 
 />
    <glyph glyph-name="Aogonek" unicode="&#x104;" 
 />
    <glyph glyph-name="aogonek" unicode="&#x105;" 
 />
    <glyph glyph-name="Cacute" unicode="&#x106;" 
 />
    <glyph glyph-name="cacute" unicode="&#x107;" 
 />
    <glyph glyph-name="Ccaron" unicode="&#x10c;" 
 />
    <glyph glyph-name="ccaron" unicode="&#x10d;" 
 />
    <glyph glyph-name="Dcaron" unicode="&#x10e;" 
 />
    <glyph glyph-name="dcaron" unicode="&#x10f;" 
 />
    <glyph glyph-name="Dslash" unicode="&#x110;" 
 />
    <glyph glyph-name="dslash" unicode="&#x111;" 
 />
    <glyph glyph-name="Eogonek" unicode="&#x118;" 
 />
    <glyph glyph-name="eogonek" unicode="&#x119;" 
 />
    <glyph glyph-name="Ecaron" unicode="&#x11a;" 
 />
    <glyph glyph-name="ecaron" unicode="&#x11b;" 
 />
    <glyph glyph-name="Gbreve" unicode="&#x11e;" 
 />
    <glyph glyph-name="gbreve" unicode="&#x11f;" 
 />
    <glyph glyph-name="Idot" unicode="&#x130;" 
 />
    <glyph glyph-name="dotlessi" unicode="&#x131;" horiz-adv-x="500" 
 />
    <glyph glyph-name="Lacute" unicode="&#x139;" 
 />
    <glyph glyph-name="lacute" unicode="&#x13a;" 
 />
    <glyph glyph-name="Lcaron" unicode="&#x13d;" 
 />
    <glyph glyph-name="lcaron" unicode="&#x13e;" 
 />
    <glyph glyph-name="Ldot" unicode="&#x13f;" 
 />
    <glyph glyph-name="ldot" unicode="&#x140;" 
 />
    <glyph glyph-name="Lslash" unicode="&#x141;" horiz-adv-x="500" 
 />
    <glyph glyph-name="lslash" unicode="&#x142;" horiz-adv-x="500" 
 />
    <glyph glyph-name="Nacute" unicode="&#x143;" 
 />
    <glyph glyph-name="nacute" unicode="&#x144;" 
 />
    <glyph glyph-name="Ncaron" unicode="&#x147;" 
 />
    <glyph glyph-name="ncaron" unicode="&#x148;" 
 />
    <glyph glyph-name="Odblacute" unicode="&#x150;" 
 />
    <glyph glyph-name="odblacute" unicode="&#x151;" 
 />
    <glyph glyph-name="OE" unicode="&#x152;" horiz-adv-x="500" 
 />
    <glyph glyph-name="oe" unicode="&#x153;" horiz-adv-x="500" 
 />
    <glyph glyph-name="Racute" unicode="&#x154;" 
 />
    <glyph glyph-name="racute" unicode="&#x155;" 
 />
    <glyph glyph-name="Rcaron" unicode="&#x158;" 
 />
    <glyph glyph-name="rcaron" unicode="&#x159;" 
 />
    <glyph glyph-name="Sacute" unicode="&#x15a;" 
 />
    <glyph glyph-name="sacute" unicode="&#x15b;" 
 />
    <glyph glyph-name="Scedilla" unicode="&#x15e;" 
 />
    <glyph glyph-name="scedilla" unicode="&#x15f;" 
 />
    <glyph glyph-name="Scaron" unicode="&#x160;" 
 />
    <glyph glyph-name="scaron" unicode="&#x161;" horiz-adv-x="500" 
 />
    <glyph glyph-name="Tcedilla" unicode="&#x162;" 
 />
    <glyph glyph-name="tcedilla" unicode="&#x163;" 
 />
    <glyph glyph-name="Tcaron" unicode="&#x164;" 
 />
    <glyph glyph-name="tcaron" unicode="&#x165;" 
 />
    <glyph glyph-name="Uring" unicode="&#x16e;" 
 />
    <glyph glyph-name="uring" unicode="&#x16f;" 
 />
    <glyph glyph-name="udblacute" unicode="&#x170;" 
 />
    <glyph glyph-name="Udblacute" unicode="&#x171;" 
 />
    <glyph glyph-name="Ydieresis" unicode="&#x178;" 
d="M33 392v34h207v-34h-85v-358h291v358h-85v34h207v-34h-85v-358h85v-34h-249v-120h-37v120h-249v34h85v358h-85v0z" />
    <glyph glyph-name="Zacute" unicode="&#x179;" 
 />
    <glyph glyph-name="zacute" unicode="&#x17a;" 
 />
    <glyph glyph-name="Zdot" unicode="&#x17b;" 
 />
    <glyph glyph-name="zdot" unicode="&#x17c;" 
 />
    <glyph glyph-name="Zcaron" unicode="&#x17d;" 
 />
    <glyph glyph-name="zcaron" unicode="&#x17e;" 
 />
    <glyph glyph-name="florin" unicode="&#x192;" 
d="M84 426h444l13 -170l-36 -4l-14 140h-250v-358h165v-34h-331v34h129v358h-120v34v0z" />
    <glyph glyph-name="hungarumlaut" unicode="&#x2ba;" horiz-adv-x="500" 
 />
    <glyph glyph-name="tilde" unicode="&#x2c6;" horiz-adv-x="500" 
 />
    <glyph glyph-name="caron" unicode="&#x2c7;" horiz-adv-x="500" 
 />
    <glyph glyph-name="macron" unicode="&#x2c9;" 
d="M103 562h394v-34h-178v-494h178v-34h-394v34h179v494h-179v34v0zM190 644q0 3 0.5 5.5t1.5 5.5q3 9 11.5 17t22.5 8t22.5 -8t11.5 -17q1 -3 1.5 -5.5t0.5 -5.5q0 -2 -0.5 -5t-1.5 -6q-3 -9 -11.5 -17t-22.5 -8t-22.5 8t-11.5 17q-1 3 -1.5 6t-0.5 5v0zM339 644
q0 3 0.5 5.5t1.5 5.5q3 9 11.5 17t22.5 8t22.5 -8t11.5 -17q1 -3 1.5 -5.5t0.5 -5.5q0 -2 -0.5 -5t-1.5 -6q-3 -9 -11.5 -17t-22.5 -8t-22.5 8t-11.5 17q-1 3 -1.5 6t-0.5 5v0z" />
    <glyph glyph-name="breve" unicode="&#x2d8;" horiz-adv-x="500" 
 />
    <glyph glyph-name="dotaccent" unicode="&#x2d9;" horiz-adv-x="500" 
 />
    <glyph glyph-name="ring" unicode="&#x2da;" horiz-adv-x="500" 
 />
    <glyph glyph-name="ogonek" unicode="&#x2db;" horiz-adv-x="500" 
 />
    <glyph glyph-name="circumflex" unicode="&#x2dc;" horiz-adv-x="500" 
 />
    <glyph glyph-name="Gamma" unicode="&#x393;" horiz-adv-x="500" 
 />
    <glyph glyph-name="Theta" unicode="&#x398;" horiz-adv-x="500" 
 />
    <glyph glyph-name="summation" unicode="&#x3a3;" horiz-adv-x="500" 
 />
    <glyph glyph-name="Phi" unicode="&#x3a6;" horiz-adv-x="500" 
 />
    <glyph glyph-name="Omega" unicode="&#x3a9;" horiz-adv-x="500" 
 />
    <glyph glyph-name="alpha" unicode="&#x3b1;" horiz-adv-x="500" 
 />
    <glyph glyph-name="delta" unicode="&#x3b4;" horiz-adv-x="500" 
 />
    <glyph glyph-name="epsilon" unicode="&#x3b5;" horiz-adv-x="500" 
 />
    <glyph glyph-name="pi" unicode="&#x3c0;" horiz-adv-x="500" 
 />
    <glyph glyph-name="sigma" unicode="&#x3c3;" 
 />
    <glyph glyph-name="tau" unicode="&#x3c4;" horiz-adv-x="500" 
 />
    <glyph glyph-name="phi" unicode="&#x3c6;" 
 />
    <glyph glyph-name="glyph276" unicode="&#x2013;" 
d="M87 330h426v-37h-426v37v0z" />
    <glyph glyph-name="emdash" unicode="&#x2014;" 
d="M0 278h600v-40h-600v40v0z" />
    <glyph glyph-name="underscoredbl" unicode="&#x2017;" horiz-adv-x="500" 
 />
    <glyph glyph-name="quoteleft" unicode="&#x2018;" 
d="M313 328h-89l105 234h58l-74 -234v0z" />
    <glyph glyph-name="quoteright" unicode="&#x2019;" 
d="M287 562h89l-105 -234h-58l74 234v0z" />
    <glyph glyph-name="quotesinglbase" unicode="&#x201a;" 
d="M287 100h89l-105 -234h-58l74 234v0z" />
    <glyph glyph-name="quotedblleft" unicode="&#x201c;" 
d="M248 562h58l-74 -234h-89l105 234v0zM399 562h58l-74 -234h-89l105 234v0z" />
    <glyph glyph-name="quotedblright" unicode="&#x201d;" 
d="M217 562h89l-105 -234h-58l74 234v0zM368 562h89l-105 -234h-58l74 234v0z" />
    <glyph glyph-name="quotedblbase" unicode="&#x201e;" 
d="M217 100h89l-105 -234h-58l74 234v0zM368 100h89l-105 -234h-58l74 234v0z" />
    <glyph glyph-name="dagger" unicode="&#x2020;" 
d="M319 366v-444h-37v444h-134v34h134v180h37v-180h133v-34h-133v0z" />
    <glyph glyph-name="daggerdbl" unicode="&#x2021;" 
d="M91 339h93q-17 46 -21.5 72.5t-4.5 41.5q0 65 50 111.5t125 46.5h3.5h3.5q48 -2 92.5 -25.5t72.5 -72.5l-32 -15q-19 35 -48.5 53.5t-61.5 23.5q-7 1 -14.5 1.5t-14.5 0.5q-61 0 -100 -36t-39 -88q0 -12 2 -26.5t5 -28.5q4 -16 9 -31t10 -28h220v-34h-211q1 -3 2.5 -8
t3.5 -11q3 -13 6 -31t3 -43q0 -24 -5.5 -55.5t-20.5 -63.5q-8 -18 -19 -35.5t-26 -33.5l2 -2q15 9 32 15.5t35 10.5q8 1 15.5 2t15.5 1q13 0 29.5 -3.5t33.5 -9.5q2 -1 4.5 -1.5t4.5 -1.5l4 -2t4 -1l1 -1h1q10 -4 22.5 -8t31.5 -4q9 0 17 1t16 3q12 4 25 12t29 22l21 -26
q-31 -28 -57.5 -36.5t-50.5 -8.5q-12 0 -21 1.5t-18 4.5q-4 1 -8 2.5t-8 2.5q-9 3 -13.5 4t-8.5 3v0v0q-2 0 -3 0.5l-3 1.5q-1 1 -2.5 1.5t-2.5 0.5q-9 3 -21 6t-31 3q-33 0 -63 -10.5t-53 -26.5l-26 33q35 37 59 87.5t24 111.5q0 24 -3 43t-7 32l-3.5 10.5l-2.5 7.5h-104
v34v0z" />
    <glyph glyph-name="glyph287" unicode="&#x2022;" 
d="M179 258q0 47 35.5 80.5t77.5 37.5h4h4h4h4q42 -4 77.5 -37.5t35.5 -80.5q0 -46 -34 -80.5t-74 -39.5q-3 -1 -6.5 -1h-6.5h-6.5t-6.5 1q-40 5 -74 39.5t-34 80.5v0z" />
    <glyph glyph-name="ellipsis" unicode="&#x2026;" 
d="M44 41v4.5t1 4.5q3 18 18 32.5t37 14.5q23 0 37.5 -14.5t17.5 -32.5q1 -2 1 -4.5v-4.5v-4.5t-1 -4.5q-3 -18 -17.5 -32t-37.5 -14q-22 0 -37 14t-18 32q-1 2 -1 4.5v4.5v0zM244 41v4.5t1 4.5q3 18 18 32.5t37 14.5q23 0 37.5 -14.5t17.5 -32.5q1 -2 1 -4.5v-4.5v-4.5
t-1 -4.5q-3 -18 -17.5 -32t-37.5 -14q-22 0 -37 14t-18 32q-1 2 -1 4.5v4.5v0zM444 41v4.5t1 4.5q3 18 18 32.5t37 14.5q23 0 37.5 -14.5t17.5 -32.5q1 -2 1 -4.5v-4.5v-4.5t-1 -4.5q-3 -18 -17.5 -32t-37.5 -14q-22 0 -37 14t-18 32q-1 2 -1 4.5v4.5v0z" />
    <glyph glyph-name="perthousand" unicode="&#x2030;" 
d="M41 114q0 51 37.5 90t92.5 39t92 -39.5t37 -89.5t-37 -89t-92 -39t-92.5 39t-37.5 89v0zM81 114q0 -43 28 -69t62 -26t61.5 26t27.5 69t-27.5 69t-61.5 26t-62 -26t-28 -69v0zM341 114q0 51 37.5 90t92.5 39t92 -39.5t37 -89.5t-37 -89t-92 -39t-92.5 39t-37.5 89v0z
M381 114q0 -43 28 -69t62 -26t61.5 26t27.5 69t-27.5 69t-61.5 26t-62 -26t-28 -69v0zM406 433l15 -34l-404 -178l-14 34l403 178v0zM6 493q0 50 37.5 89.5t92.5 39.5t92 -39.5t37 -89.5q0 -49 -37 -89t-92 -40t-92.5 40t-37.5 89v0zM46 493q0 -43 28 -69t62 -26t61.5 26
t27.5 69t-27.5 69t-61.5 26t-62 -26t-28 -69v0z" />
    <glyph glyph-name="guilsinglleft" unicode="&#x2039;" horiz-adv-x="500" 
 />
    <glyph glyph-name="guilsinglright" unicode="&#x203a;" horiz-adv-x="500" 
 />
    <glyph glyph-name="exclamdbl" unicode="&#x203c;" horiz-adv-x="500" 
 />
    <glyph glyph-name="nsuperior" unicode="&#x207f;" horiz-adv-x="500" 
 />
    <glyph glyph-name="franc" unicode="&#x20a3;" horiz-adv-x="500" 
 />
    <glyph glyph-name="peseta" unicode="&#x20a7;" horiz-adv-x="500" 
 />
    <glyph glyph-name="trademark" unicode="&#x2122;" 
d="M220 461v74h-76v-245h60v-27h-151v27h60v245h-76v-74h-27v101h237v-101h-27v0zM283 535v27h92l61 -191h2l61 191h92v-27h-30v-245h30v-27h-111v27h50v245h-7l-67 -196h-38l-67 196h-7v-245h50v-27h-111v27h30v245h-30v0z" />
    <glyph glyph-name="arrowleft" unicode="&#x2190;" 
 />
    <glyph glyph-name="arrowup" unicode="&#x2191;" 
 />
    <glyph glyph-name="arrowright" unicode="&#x2192;" horiz-adv-x="500" 
 />
    <glyph glyph-name="arrowdown" unicode="&#x2193;" 
 />
    <glyph glyph-name="arrowboth" unicode="&#x2194;" 
 />
    <glyph glyph-name="arrowupdn" unicode="&#x2195;" 
 />
    <glyph glyph-name="arrowupdnbase" unicode="&#x21a8;" 
 />
    <glyph glyph-name="partialdiff" unicode="&#x2202;" horiz-adv-x="500" 
 />
    <glyph glyph-name="Delta" unicode="&#x2206;" horiz-adv-x="500" 
 />
    <glyph glyph-name="product" unicode="&#x220f;" 
 />
    <glyph glyph-name="minus" unicode="&#x2212;" horiz-adv-x="500" 
 />
    <glyph glyph-name="fraction" unicode="&#x2215;" horiz-adv-x="500" 
 />
    <glyph glyph-name="periodcentered" unicode="&#x2219;" 
d="M371 214q0 -4 -0.5 -8t-1.5 -8q-6 -17 -23 -31.5t-46 -14.5t-46 14.5t-23 31.5q-1 4 -1.5 8t-0.5 8t0.5 8t1.5 8q6 17 23 31.5t46 14.5t46 -14.5t23 -31.5q1 -4 1.5 -8t0.5 -8v0z" />
    <glyph glyph-name="radical" unicode="&#x221a;" horiz-adv-x="500" 
 />
    <glyph glyph-name="infinity" unicode="&#x221e;" 
 />
    <glyph glyph-name="orthogonal" unicode="&#x221f;" 
 />
    <glyph glyph-name="intersection" unicode="&#x2229;" 
 />
    <glyph glyph-name="integral" unicode="&#x222b;" 
 />
    <glyph glyph-name="approxequal" unicode="&#x2248;" horiz-adv-x="500" 
 />
    <glyph glyph-name="notequal" unicode="&#x2260;" horiz-adv-x="500" 
 />
    <glyph glyph-name="equivalence" unicode="&#x2261;" 
 />
    <glyph glyph-name="lessequal" unicode="&#x2264;" horiz-adv-x="500" 
 />
    <glyph glyph-name="greaterequal" unicode="&#x2265;" horiz-adv-x="500" 
 />
    <glyph glyph-name="house" unicode="&#x2302;" 
 />
    <glyph glyph-name="revlogicalnot" unicode="&#x2310;" 
 />
    <glyph glyph-name="integraltp" unicode="&#x2320;" 
 />
    <glyph glyph-name="integralbt" unicode="&#x2321;" 
 />
    <glyph glyph-name="2500" unicode="&#x2500;" 
 />
    <glyph glyph-name="2502" unicode="&#x2502;" 
 />
    <glyph glyph-name="250c" unicode="&#x250c;" 
 />
    <glyph glyph-name="2510" unicode="&#x2510;" 
 />
    <glyph glyph-name="2514" unicode="&#x2514;" 
 />
    <glyph glyph-name="2518" unicode="&#x2518;" 
 />
    <glyph glyph-name="251c" unicode="&#x251c;" 
 />
    <glyph glyph-name="2524" unicode="&#x2524;" 
 />
    <glyph glyph-name="252c" unicode="&#x252c;" 
 />
    <glyph glyph-name="2534" unicode="&#x2534;" 
 />
    <glyph glyph-name="253c" unicode="&#x253c;" 
 />
    <glyph glyph-name="2550" unicode="&#x2550;" 
 />
    <glyph glyph-name="2551" unicode="&#x2551;" 
 />
    <glyph glyph-name="2552" unicode="&#x2552;" 
 />
    <glyph glyph-name="2553" unicode="&#x2553;" 
 />
    <glyph glyph-name="2554" unicode="&#x2554;" 
 />
    <glyph glyph-name="2555" unicode="&#x2555;" 
 />
    <glyph glyph-name="2556" unicode="&#x2556;" 
 />
    <glyph glyph-name="2557" unicode="&#x2557;" 
 />
    <glyph glyph-name="2558" unicode="&#x2558;" 
 />
    <glyph glyph-name="2559" unicode="&#x2559;" 
 />
    <glyph glyph-name="255a" unicode="&#x255a;" 
 />
    <glyph glyph-name="255b" unicode="&#x255b;" 
 />
    <glyph glyph-name="255c" unicode="&#x255c;" 
 />
    <glyph glyph-name="255d" unicode="&#x255d;" 
 />
    <glyph glyph-name="255e" unicode="&#x255e;" 
 />
    <glyph glyph-name="255f" unicode="&#x255f;" 
 />
    <glyph glyph-name="2560" unicode="&#x2560;" 
 />
    <glyph glyph-name="2561" unicode="&#x2561;" 
 />
    <glyph glyph-name="2562" unicode="&#x2562;" 
 />
    <glyph glyph-name="2563" unicode="&#x2563;" 
 />
    <glyph glyph-name="2564" unicode="&#x2564;" 
 />
    <glyph glyph-name="2565" unicode="&#x2565;" 
 />
    <glyph glyph-name="2566" unicode="&#x2566;" 
 />
    <glyph glyph-name="2567" unicode="&#x2567;" 
 />
    <glyph glyph-name="2568" unicode="&#x2568;" 
 />
    <glyph glyph-name="2569" unicode="&#x2569;" 
 />
    <glyph glyph-name="256a" unicode="&#x256a;" 
 />
    <glyph glyph-name="256b" unicode="&#x256b;" 
 />
    <glyph glyph-name="256c" unicode="&#x256c;" 
 />
    <glyph glyph-name="upblock" unicode="&#x2580;" 
 />
    <glyph glyph-name="dnblock" unicode="&#x2584;" 
 />
    <glyph glyph-name="block" unicode="&#x2588;" 
 />
    <glyph glyph-name="lfblock" unicode="&#x258c;" 
 />
    <glyph glyph-name="rtblock" unicode="&#x2590;" 
 />
    <glyph glyph-name="ltshade" unicode="&#x2591;" 
 />
    <glyph glyph-name="shade" unicode="&#x2592;" 
 />
    <glyph glyph-name="dkshade" unicode="&#x2593;" 
 />
    <glyph glyph-name="filledbox" unicode="&#x25a0;" horiz-adv-x="500" 
 />
    <glyph glyph-name="filledrect" unicode="&#x25ac;" 
 />
    <glyph glyph-name="triagup" unicode="&#x25b2;" 
 />
    <glyph glyph-name="triagrt" unicode="&#x25ba;" 
 />
    <glyph glyph-name="triagdn" unicode="&#x25bc;" 
 />
    <glyph glyph-name="triaglf" unicode="&#x25c4;" 
 />
    <glyph glyph-name="lozenge" unicode="&#x25ca;" horiz-adv-x="500" 
 />
    <glyph glyph-name="circle" unicode="&#x25cb;" 
 />
    <glyph glyph-name="invbullet" unicode="&#x25d8;" 
 />
    <glyph glyph-name="invcircle" unicode="&#x25d9;" 
 />
    <glyph glyph-name="smileface" unicode="&#x263a;" 
 />
    <glyph glyph-name="invsmileface" unicode="&#x263b;" 
 />
    <glyph glyph-name="sun" unicode="&#x263c;" 
 />
    <glyph glyph-name="female" unicode="&#x2640;" 
 />
    <glyph glyph-name="male" unicode="&#x2642;" 
 />
    <glyph glyph-name="spade" unicode="&#x2660;" 
 />
    <glyph glyph-name="club" unicode="&#x2663;" 
 />
    <glyph glyph-name="heart" unicode="&#x2665;" 
 />
    <glyph glyph-name="diamond" unicode="&#x2666;" 
 />
    <glyph glyph-name="musicalnote" unicode="&#x266a;" 
 />
    <glyph glyph-name="musicalnotedbl" unicode="&#x266b;" 
 />
    <glyph glyph-name="apple" unicode="&#xf000;" 
 />
    <glyph glyph-name="fi" unicode="&#xf001;" horiz-adv-x="500" 
 />
    <glyph glyph-name="fl" unicode="&#xf002;" horiz-adv-x="500" 
 />
    <glyph glyph-name="degree" 
d="M372 508q0 -31 -21 -50.5t-46 -21.5h-2.5h-2.5q-31 0 -50.5 21t-21.5 46v2.5v2.5v2.5v2.5q2 25 21.5 46t50.5 21t50.5 -21t21.5 -46v-2.5v-2.5v0zM341 508v3.5t-1 3.5q-2 13 -13 23.5t-27 10.5h-3.5t-3.5 -1q-13 -2 -23.5 -13t-10.5 -27v-3.5t1 -3.5q2 -13 13 -23.5
t27 -10.5h3.5t3.5 1q13 2 23.5 13t10.5 27v0z" />
    <glyph glyph-name="bullet" 
d="M179 258q0 47 35.5 80.5t77.5 37.5h4h4h4h4q42 -4 77.5 -37.5t35.5 -80.5q0 -46 -34 -80.5t-74 -39.5q-3 -1 -6.5 -1h-6.5h-6.5t-6.5 1q-40 5 -74 39.5t-34 80.5v0z" />
    <glyph glyph-name="endash" 
d="M87 330h426v-37h-426v37v0z" />
    </font>
</defs>
</svg>
