<?xml version="1.0" encoding="utf-8"?>
<!-- Generator: Adobe Illustrator 16.0.0, SVG Export Plug-In . SVG Version: 6.00 Build 0)  -->
<!DOCTYPE svg PUBLIC "-//W3C//DTD SVG 1.1//EN" "http://www.w3.org/Graphics/SVG/1.1/DTD/svg11.dtd">
<svg version="1.1" id="Layer_1" xmlns="http://www.w3.org/2000/svg" xmlns:xlink="http://www.w3.org/1999/xlink" x="0px" y="0px"
	 width="17.679px" height="17.679px" viewBox="0 0 17.679 17.679" enable-background="new 0 0 17.679 17.679" xml:space="preserve">
<g>
	<defs>
		<rect id="SVGID_1_" y="0" width="17.679" height="17.679"/>
	</defs>
	<clipPath id="SVGID_2_">
		<use xlink:href="#SVGID_1_"  overflow="visible"/>
	</clipPath>
	<path clip-path="url(#SVGID_2_)" fill="#FFFFFF" d="M9.473,8.839l8.075-8.075c0.175-0.175,0.175-0.458,0-0.633
		c-0.176-0.175-0.458-0.175-0.634,0L8.84,8.207L0.764,0.131c-0.175-0.175-0.458-0.175-0.633,0c-0.175,0.175-0.175,0.458,0,0.633
		l8.075,8.075l-8.075,8.075c-0.175,0.175-0.175,0.458,0,0.633c0.087,0.088,0.202,0.132,0.317,0.132c0.114,0,0.229-0.044,0.316-0.132
		L8.84,9.472l8.074,8.075c0.087,0.088,0.202,0.132,0.317,0.132c0.114,0,0.229-0.044,0.316-0.132c0.175-0.175,0.175-0.458,0-0.633
		L9.473,8.839z"/>
</g>
</svg>
