<?xml version="1.0" encoding="utf-8"?>
<!-- Generator: Adobe Illustrator 16.0.0, SVG Export Plug-In . SVG Version: 6.00 Build 0)  -->
<!DOCTYPE svg PUBLIC "-//W3C//DTD SVG 1.1//EN" "http://www.w3.org/Graphics/SVG/1.1/DTD/svg11.dtd">
<svg version="1.1" id="Layer_1" xmlns="http://www.w3.org/2000/svg" xmlns:xlink="http://www.w3.org/1999/xlink" x="0px" y="0px"
	 width="133.226px" height="119.767px" viewBox="0 0 133.226 119.767" enable-background="new 0 0 133.226 119.767"
	 xml:space="preserve">
<g>
	<defs>
		<rect id="SVGID_1_" width="133.226" height="119.767"/>
	</defs>
	<clipPath id="SVGID_2_">
		<use xlink:href="#SVGID_1_"  overflow="visible"/>
	</clipPath>
	<path clip-path="url(#SVGID_2_)" fill="#E2E2E2" d="M132.977,13.066c-1.898-8.721-10.143-14.348-18.79-12.814
		c-8.643,1.536-14.425,9.82-12.891,18.465c1.033,5.807,5.309,10.631,10.959,12.422L96.775,60.206
		c-0.022,0.032-0.042,0.064-0.062,0.097c-1.787-0.395-3.718-0.395-5.89-0.009c-2.243,0.398-4.46,1.355-6.422,2.772L56.147,51.21
		c1.979-3.453,2.715-7.321,2.071-10.947c-1.537-8.645-9.828-14.43-18.465-12.888c-4.159,0.739-7.796,3.077-10.242,6.582
		c-2.446,3.504-3.385,7.724-2.648,11.884c0.956,5.376,4.506,9.757,9.536,11.805L21.456,88.909c-2.586-0.996-5.452-1.253-8.319-0.746
		C4.493,89.704-1.29,97.985,0.248,106.628c1.371,7.707,8.101,13.139,15.671,13.139c0.921,0,1.854-0.082,2.795-0.246
		c8.643-1.541,14.426-9.822,12.89-18.468c-0.722-4.063-3.062-7.776-6.436-10.242l15.426-32.011c1.651,0.212,3.279,0.188,4.736-0.069
		c3.002-0.534,5.791-1.938,8.085-4.066L81.053,66.4c-2.708,3.529-3.861,8.168-3.089,12.52c0.741,4.161,3.077,7.796,6.583,10.244
		c3.505,2.45,7.728,3.383,11.881,2.647c4.16-0.74,7.798-3.078,10.242-6.582c2.448-3.506,3.389-7.726,2.648-11.884
		c-0.858-4.841-4.01-9.088-8.462-11.441l16.072-30.096c0.968-0.017,2.074-0.065,3.165-0.26
		C128.735,30.011,134.517,21.727,132.977,13.066 M105.023,73.941c1.133,6.381-3.138,12.495-9.518,13.629
		c-6.369,1.144-12.497-3.129-13.632-9.513c-1.137-6.382,3.136-12.495,9.515-13.632c0.693-0.125,1.383-0.184,2.066-0.184
		C99.041,64.242,104.009,68.251,105.023,73.941 M119.003,27.337c-6.384,1.132-12.497-3.133-13.629-9.514
		c-1.137-6.381,3.134-12.497,9.513-13.631c0.684-0.121,1.369-0.182,2.048-0.182c2.378,0,4.711,0.733,6.724,2.14
		c2.588,1.808,4.316,4.49,4.861,7.557C129.653,20.088,125.384,26.202,119.003,27.337 M44.601,54.625
		c-3.071,0.545-6.183-0.149-8.771-1.957c-2.59-1.807-4.316-4.491-4.86-7.557c-1.135-6.381,3.133-12.496,9.515-13.632
		c0.692-0.124,1.383-0.183,2.063-0.183c5.586,0,10.557,4.01,11.568,9.698C55.249,47.375,50.98,53.49,44.601,54.625 M27.498,101.781
		c0.546,3.069-0.149,6.182-1.958,8.772c-1.806,2.59-4.491,4.313-7.558,4.861c-6.377,1.136-12.496-3.136-13.631-9.516
		c-1.134-6.382,3.134-12.497,9.516-13.633c0.703-0.123,1.406-0.185,2.105-0.185c1.655,0,3.292,0.348,4.856,1.023l0.581,0.407
		c0.252,0.173,0.492,0.185,0.671,0.169C24.966,95.471,26.888,98.341,27.498,101.781"/>
</g>
</svg>
