<?xml version="1.0" encoding="utf-8"?>
<!-- Generator: Adobe Illustrator 16.0.0, SVG Export Plug-In . SVG Version: 6.00 Build 0)  -->
<!DOCTYPE svg PUBLIC "-//W3C//DTD SVG 1.1//EN" "http://www.w3.org/Graphics/SVG/1.1/DTD/svg11.dtd">
<svg version="1.1" id="Layer_1" xmlns="http://www.w3.org/2000/svg" xmlns:xlink="http://www.w3.org/1999/xlink" x="0px" y="0px"
	 width="324.701px" height="33.954px" viewBox="0 -10.123 324.701 33.954" enable-background="new 0 -10.123 324.701 33.954"
	 xml:space="preserve">
<polygon fill="#545454" points="208.42,6.869 213.494,-1.719 209.59,-1.719 206.477,3.55 203.393,-1.719 199.496,-1.719 
	204.521,6.863 199.373,15.578 203.272,15.578 206.463,10.182 209.618,15.578 213.511,15.578 "/>
<polygon fill="#545454" points="225.092,15.584 225.092,8.331 219.226,8.331 219.226,15.584 215.843,15.584 215.843,-1.745 
	219.226,-1.745 219.226,5.338 225.092,5.338 225.092,-1.745 228.475,-1.745 228.475,15.584 "/>
<rect x="231.785" y="-1.745" fill="#545454" width="3.384" height="17.329"/>
<polygon fill="#545454" points="238.475,15.584 238.475,-1.745 241.858,-1.745 241.858,12.565 249.722,12.565 249.722,15.584 "/>
<path fill="#545454" d="M263.423,15.584l-1.024-3.065h-6.156l-1.046,3.065h-3.531l6.306-17.329h2.651l6.327,17.329H263.423z
	 M259.383,3.366l-2.19,6.305h4.306L259.383,3.366z"/>
<g>
	<defs>
		<rect id="SVGID_1_" x="0" y="-10.123" width="324.701" height="33.954"/>
	</defs>
	<clipPath id="SVGID_2_">
		<use xlink:href="#SVGID_1_"  overflow="visible"/>
	</clipPath>
	<path clip-path="url(#SVGID_2_)" fill="#545454" d="M278.18,15.584l-3.386-6.911h-2.433v6.911h-3.382V-1.745h6.789
		c3.528,0,5.624,2.41,5.624,5.306c0,2.433-1.485,3.945-3.166,4.549l3.871,7.473H278.18z M275.549,1.273h-3.187v4.576h3.187
		c1.485,0,2.461-0.949,2.461-2.287S277.034,1.273,275.549,1.273"/>
</g>
<g>
	<defs>
		<rect id="SVGID_3_" x="0" y="-10.123" width="324.701" height="33.954"/>
	</defs>
	<clipPath id="SVGID_4_">
		<use xlink:href="#SVGID_3_"  overflow="visible"/>
	</clipPath>
	<path clip-path="url(#SVGID_4_)" fill="#545454" d="M295.246,15.584l-1.026-3.065h-6.154l-1.049,3.065h-3.528l6.303-17.329h2.651
		l6.328,17.329H295.246z M291.2,3.366l-2.187,6.305h4.304L291.2,3.366z"/>
</g>
<g>
	<defs>
		<rect id="SVGID_5_" x="0" y="-10.123" width="324.701" height="33.954"/>
	</defs>
	<clipPath id="SVGID_6_">
		<use xlink:href="#SVGID_5_"  overflow="visible"/>
	</clipPath>
	<polygon clip-path="url(#SVGID_6_)" fill="#545454" points="306.289,1.273 306.289,15.584 302.907,15.584 302.907,1.273 
		298.379,1.273 298.379,-1.745 310.816,-1.745 310.816,1.273 	"/>
</g>
<g>
	<defs>
		<rect id="SVGID_7_" x="0" y="-10.123" width="324.701" height="33.954"/>
	</defs>
	<clipPath id="SVGID_8_">
		<use xlink:href="#SVGID_7_"  overflow="visible"/>
	</clipPath>
	<polygon clip-path="url(#SVGID_8_)" fill="#545454" points="313.285,15.584 313.285,-1.745 324.701,-1.745 324.701,1.275 
		316.669,1.275 316.669,5.338 323.509,5.338 323.509,8.354 316.669,8.354 316.669,12.565 324.701,12.565 324.701,15.584 	"/>
</g>
<g>
	<defs>
		<rect id="SVGID_9_" x="0" y="-10.123" width="324.701" height="33.954"/>
	</defs>
	<clipPath id="SVGID_10_">
		<use xlink:href="#SVGID_9_"  overflow="visible"/>
	</clipPath>
	<polygon clip-path="url(#SVGID_10_)" fill="#545454" points="168.627,13.28 174.901,23.832 180.247,23.832 173.97,13.28 
		170.15,6.855 173.97,0.426 180.247,-10.123 174.901,-10.123 168.627,0.426 164.805,6.855 	"/>
</g>
<g>
	<defs>
		<rect id="SVGID_11_" x="0" y="-10.123" width="324.701" height="33.954"/>
	</defs>
	<clipPath id="SVGID_12_">
		<use xlink:href="#SVGID_11_"  overflow="visible"/>
	</clipPath>
	<polygon clip-path="url(#SVGID_12_)" fill="#545454" points="148.119,6.855 145.132,11.876 140.232,20.118 145.809,20.118 
		145.809,20.118 151.438,20.118 151.438,20.118 157.013,20.118 159.275,16.316 161.534,20.118 167.112,20.118 162.212,11.876 
		162.065,11.627 159.275,6.939 156.486,11.627 154.18,15.497 148.557,15.497 150.712,11.876 153.695,6.855 150.712,1.833 
		148.557,-1.792 154.18,-1.792 156.486,2.081 159.275,6.772 162.065,2.081 162.212,1.833 167.112,-6.411 161.534,-6.411 
		159.275,-2.609 157.013,-6.411 156.453,-6.411 151.438,-6.411 144.478,-6.411 140.232,-6.411 145.132,1.833 	"/>
</g>
<g>
	<defs>
		<rect id="SVGID_13_" x="0" y="-10.123" width="324.701" height="33.954"/>
	</defs>
	<clipPath id="SVGID_14_">
		<use xlink:href="#SVGID_13_"  overflow="visible"/>
	</clipPath>
	<polygon clip-path="url(#SVGID_14_)" fill="#545454" points="175.495,6.855 178.48,11.876 180.685,15.584 186.03,15.584 
		183.823,11.876 180.838,6.855 183.823,1.833 185.984,-1.803 180.639,-1.803 178.48,1.833 	"/>
</g>
<g>
	<defs>
		<rect id="SVGID_15_" x="0" y="-10.123" width="324.701" height="33.954"/>
	</defs>
	<clipPath id="SVGID_16_">
		<use xlink:href="#SVGID_15_"  overflow="visible"/>
	</clipPath>
	<path clip-path="url(#SVGID_16_)" fill="#545454" d="M11.574,12.03c-0.427,1.104-1.118,1.969-2.073,2.607
		c-0.956,0.631-2.105,0.947-3.455,0.947c-1.053,0-1.957-0.165-2.716-0.503c-0.753-0.336-1.382-0.795-1.881-1.368
		c-0.5-0.577-0.867-1.249-1.098-2.013C0.117,10.935,0,10.131,0,9.292V4.381c0-0.84,0.122-1.633,0.363-2.383
		c0.241-0.746,0.611-1.409,1.11-1.988c0.499-0.573,1.125-1.03,1.883-1.368c0.758-0.336,1.656-0.506,2.69-0.506
		c1.333,0,2.468,0.312,3.405,0.938c0.938,0.625,1.63,1.456,2.072,2.494L9.971,2.282C9.659,1.525,9.17,0.908,8.503,0.431
		c-0.667-0.478-1.476-0.718-2.43-0.718c-0.776,0-1.441,0.132-2,0.396C3.511,0.373,3.057,0.724,2.701,1.16
		C2.348,1.594,2.09,2.102,1.926,2.676C1.76,3.254,1.679,3.845,1.679,4.456v4.761c0,0.625,0.08,1.226,0.247,1.802
		c0.164,0.576,0.418,1.087,0.765,1.529c0.344,0.447,0.797,0.803,1.357,1.074c0.559,0.271,1.233,0.408,2.025,0.408
		c0.971,0,1.789-0.246,2.455-0.74c0.667-0.495,1.163-1.161,1.493-2.003L11.574,12.03z"/>
</g>
<g>
	<defs>
		<rect id="SVGID_17_" x="0" y="-10.123" width="324.701" height="33.954"/>
	</defs>
	<clipPath id="SVGID_18_">
		<use xlink:href="#SVGID_17_"  overflow="visible"/>
	</clipPath>
	<path clip-path="url(#SVGID_18_)" fill="#545454" d="M23.447,15.438l-3.479-7.75h-4.419v7.75H13.87V-1.741h6.837
		c0.706,0,1.362,0.108,1.962,0.321c0.6,0.215,1.123,0.523,1.567,0.926c0.443,0.403,0.79,0.886,1.035,1.443
		c0.248,0.561,0.371,1.186,0.371,1.877c0,1.218-0.362,2.239-1.084,3.061c-0.725,0.823-1.679,1.375-2.863,1.654l3.65,7.896H23.447z
		 M23.916,2.839c0-0.541-0.095-1.009-0.286-1.403c-0.188-0.392-0.443-0.711-0.763-0.958c-0.319-0.244-0.696-0.43-1.123-0.553
		c-0.43-0.121-0.888-0.185-1.382-0.185h-4.813v6.468h4.715c1.036,0,1.905-0.287,2.603-0.86C23.565,4.772,23.916,3.938,23.916,2.839"
		/>
</g>
<g>
	<defs>
		<rect id="SVGID_19_" x="0" y="-10.123" width="324.701" height="33.954"/>
	</defs>
	<clipPath id="SVGID_20_">
		<use xlink:href="#SVGID_19_"  overflow="visible"/>
	</clipPath>
	<polygon clip-path="url(#SVGID_20_)" fill="#545454" points="28.457,15.438 28.457,-1.741 39.118,-1.741 39.118,-0.21 
		30.135,-0.21 30.135,6.009 37.787,6.009 37.787,7.49 30.135,7.49 30.135,13.907 39.118,13.907 39.118,15.438 	"/>
</g>
<g>
	<defs>
		<rect id="SVGID_21_" x="0" y="-10.123" width="324.701" height="33.954"/>
	</defs>
	<clipPath id="SVGID_22_">
		<use xlink:href="#SVGID_21_"  overflow="visible"/>
	</clipPath>
	<path clip-path="url(#SVGID_22_)" fill="#545454" d="M52.347,15.438c-0.246-0.678-0.49-1.346-0.727-2.024
		c-0.24-0.675-0.474-1.357-0.705-2.047h-7.699c-0.249,0.69-0.491,1.373-0.728,2.047c-0.24,0.679-0.474,1.347-0.705,2.024h-1.75
		c1.037-2.88,2.076-5.74,3.12-8.589c1.046-2.847,2.095-5.709,3.147-8.589h1.531l6.294,17.178H52.347z M47.016,0.408
		C46.884,0.834,46.68,1.451,46.4,2.257C46.12,3.063,45.823,3.909,45.51,4.8c-0.361,0.987-0.703,1.945-1.022,2.876
		c-0.322,0.929-0.591,1.68-0.803,2.258h6.738l-1.926-5.554l-1.409-3.973H47.016z"/>
</g>
<g>
	<defs>
		<rect id="SVGID_23_" x="0" y="-10.123" width="324.701" height="33.954"/>
	</defs>
	<clipPath id="SVGID_24_">
		<use xlink:href="#SVGID_23_"  overflow="visible"/>
	</clipPath>
	<polygon clip-path="url(#SVGID_24_)" fill="#545454" points="60.222,-0.261 60.222,15.438 58.542,15.438 58.542,-0.261 
		53.509,-0.261 53.509,-1.741 65.209,-1.741 65.209,-0.261 	"/>
</g>
<g>
	<defs>
		<rect id="SVGID_25_" x="0" y="-10.123" width="324.701" height="33.954"/>
	</defs>
	<clipPath id="SVGID_26_">
		<use xlink:href="#SVGID_25_"  overflow="visible"/>
	</clipPath>
	<polygon clip-path="url(#SVGID_26_)" fill="#545454" points="67.206,15.438 67.206,-1.741 77.869,-1.741 77.869,-0.21 
		68.885,-0.21 68.885,6.009 76.536,6.009 76.536,7.49 68.885,7.49 68.885,13.907 77.869,13.907 77.869,15.438 	"/>
</g>
<g>
	<defs>
		<rect id="SVGID_27_" x="0" y="-10.123" width="324.701" height="33.954"/>
	</defs>
	<clipPath id="SVGID_28_">
		<use xlink:href="#SVGID_27_"  overflow="visible"/>
	</clipPath>
	<path clip-path="url(#SVGID_28_)" fill="#545454" d="M86.039-1.741c1.284,0,2.417,0.248,3.407,0.74
		c0.987,0.495,1.742,1.301,2.27,2.42c0.296,0.625,0.477,1.365,0.542,2.221c0.066,0.855,0.1,1.827,0.1,2.912
		c0,1.22-0.029,2.275-0.085,3.173c-0.058,0.896-0.228,1.684-0.507,2.357c-0.281,0.642-0.626,1.177-1.035,1.604
		c-0.412,0.427-0.881,0.769-1.408,1.025c-0.528,0.253-1.1,0.44-1.715,0.554c-0.618,0.116-1.272,0.173-1.962,0.173h-5.208V-1.741
		H86.039z M90.678,5.22c0-1.021-0.115-1.879-0.344-2.58c-0.231-0.699-0.556-1.259-0.976-1.676c-0.421-0.421-0.926-0.723-1.519-0.903
		c-0.591-0.181-1.242-0.272-1.95-0.272h-3.776v14.119h3.776c0.889,0,1.642-0.129,2.259-0.382c0.617-0.256,1.111-0.618,1.481-1.088
		c0.368-0.469,0.637-1.028,0.802-1.678c0.162-0.648,0.246-1.371,0.246-2.16V5.22z"/>
</g>
<g>
	<defs>
		<rect id="SVGID_29_" x="0" y="-10.123" width="324.701" height="33.954"/>
	</defs>
	<clipPath id="SVGID_30_">
		<use xlink:href="#SVGID_29_"  overflow="visible"/>
	</clipPath>
	<path clip-path="url(#SVGID_30_)" fill="#545454" d="M112.768,10.74c0,0.727-0.123,1.377-0.37,1.954
		c-0.248,0.576-0.583,1.067-1.01,1.471c-0.428,0.404-0.918,0.716-1.478,0.938c-0.56,0.224-1.158,0.335-1.797,0.335h-7.071V-1.742
		h6.395c0.808,0,1.519,0.111,2.137,0.334c0.615,0.222,1.133,0.529,1.552,0.923c0.42,0.396,0.737,0.863,0.951,1.405
		c0.214,0.543,0.32,1.135,0.32,1.775c0,0.328-0.04,0.673-0.121,1.035c-0.085,0.362-0.229,0.715-0.439,1.059
		c-0.204,0.346-0.486,0.667-0.844,0.963c-0.356,0.295-0.806,0.542-1.353,0.738v0.075c0.542,0.115,1.007,0.322,1.405,0.618
		c0.392,0.296,0.717,0.639,0.97,1.027c0.256,0.384,0.445,0.8,0.567,1.247C112.707,9.9,112.768,10.328,112.768,10.74 M102.722-0.262
		v6.146h4.467c1.137,0,2.008-0.289,2.617-0.87c0.607-0.579,0.911-1.316,0.911-2.215c0-0.865-0.301-1.59-0.901-2.177
		c-0.6-0.59-1.477-0.885-2.627-0.885H102.722z M102.722,7.367v6.541h4.838c0.592,0,1.11-0.086,1.552-0.26
		c0.445-0.172,0.816-0.405,1.112-0.704c0.298-0.295,0.514-0.646,0.653-1.047c0.139-0.404,0.211-0.828,0.211-1.274
		c0-0.428-0.072-0.837-0.211-1.233c-0.139-0.394-0.355-0.742-0.653-1.038c-0.296-0.295-0.667-0.534-1.112-0.715
		c-0.442-0.182-0.96-0.271-1.552-0.271h-4.838V7.367z"/>
</g>
<g>
	<defs>
		<rect id="SVGID_31_" x="0" y="-10.123" width="324.701" height="33.954"/>
	</defs>
	<clipPath id="SVGID_32_">
		<use xlink:href="#SVGID_31_"  overflow="visible"/>
	</clipPath>
	<path clip-path="url(#SVGID_32_)" fill="#545454" d="M120.568,15.438h-1.556V8.353l-5.157-10.094h1.754l2.64,5.333l1.542,3.257
		c0.29-0.577,0.576-1.16,0.855-1.752c0.275-0.591,0.555-1.184,0.836-1.777c0.426-0.84,0.852-1.679,1.27-2.518
		c0.42-0.838,0.834-1.687,1.246-2.542h1.705c-0.872,1.694-1.731,3.377-2.58,5.047c-0.848,1.67-1.697,3.352-2.555,5.046V15.438z"/>
</g>
</svg>
