<?xml version="1.0" encoding="utf-8"?>
<!-- Generator: Adobe Illustrator 16.0.0, SVG Export Plug-In . SVG Version: 6.00 Build 0)  -->
<!DOCTYPE svg PUBLIC "-//W3C//DTD SVG 1.1//EN" "http://www.w3.org/Graphics/SVG/1.1/DTD/svg11.dtd">
<svg version="1.1" id="Layer_1" xmlns="http://www.w3.org/2000/svg" xmlns:xlink="http://www.w3.org/1999/xlink" x="0px" y="0px"
	 width="83.196px" height="77.879px" viewBox="0 0 83.196 77.879" enable-background="new 0 0 83.196 77.879" xml:space="preserve">
<g>
	<defs>
		<rect id="SVGID_1_" width="83.196" height="77.879"/>
	</defs>
	<clipPath id="SVGID_2_">
		<use xlink:href="#SVGID_1_"  overflow="visible"/>
	</clipPath>
	<path clip-path="url(#SVGID_2_)" fill="#04B5C0" d="M29.624,37.82c-0.317,0-0.613,0.122-0.84,0.343L20,46.782
		c-0.229,0.225-0.36,0.538-0.36,0.856c0,0.321,0.131,0.631,0.36,0.856l8.783,8.62c0.216,0.211,0.558,0.337,0.851,0.329
		c0.325-0.003,0.634-0.13,0.846-0.348c0.462-0.472,0.455-1.232-0.016-1.694l-7.912-7.763l7.912-7.762
		c0.471-0.462,0.479-1.224,0.015-1.696C30.253,37.949,29.949,37.82,29.624,37.82"/>
	<path clip-path="url(#SVGID_2_)" fill="#04B5C0" d="M52.277,37.821c-0.324,0-0.627,0.128-0.855,0.359
		c-0.463,0.473-0.454,1.233,0.02,1.696l7.909,7.762l-7.911,7.763c-0.472,0.462-0.48,1.224-0.018,1.696
		c0.213,0.216,0.521,0.342,0.848,0.345c0.003,0,0.008,0.001,0.013,0.001c0.318,0,0.623-0.121,0.835-0.329l8.784-8.62
		c0.228-0.224,0.359-0.535,0.359-0.856c0-0.319-0.132-0.631-0.359-0.854l-8.782-8.622C52.895,37.943,52.594,37.821,52.277,37.821"/>
	<path clip-path="url(#SVGID_2_)" fill="#04B5C0" d="M44.328,31.571c-0.551,0-1.027,0.371-1.166,0.903l-7.61,29.951
		c-0.162,0.642,0.228,1.295,0.866,1.458c0.639,0.158,1.294-0.229,1.458-0.868l7.614-29.95c0.162-0.641-0.228-1.294-0.869-1.458
		C44.526,31.584,44.427,31.571,44.328,31.571"/>
	<path clip-path="url(#SVGID_2_)" fill="#04B5C0" d="M9.159,0C4.108,0,0,4.108,0,9.16v59.56c0,5.052,4.107,9.16,9.159,9.16h64.878
		c5.049,0,9.159-4.108,9.159-9.16V9.16c0-5.051-4.11-9.16-9.159-9.16H9.159z M74.037,75.482H9.159c-3.729,0-6.761-3.034-6.761-6.763
		V22.53h78.4v46.189C80.798,72.448,77.766,75.482,74.037,75.482 M80.798,20.132h-78.4V9.16c0-3.729,3.033-6.762,6.761-6.762h64.878
		c3.729,0,6.761,3.033,6.761,6.762V20.132z"/>
</g>
</svg>
