<?xml version="1.0" encoding="utf-8"?>
<!-- Generator: Adobe Illustrator 19.0.0, SVG Export Plug-In . SVG Version: 6.00 Build 0)  -->
<svg version="1.1" id="Layer_1" xmlns="http://www.w3.org/2000/svg" xmlns:xlink="http://www.w3.org/1999/xlink" x="0px" y="0px"
	 viewBox="0 0 285.2 285.2" style="enable-background:new 0 0 285.2 285.2;" xml:space="preserve">
<style type="text/css">
	.st0{clip-path:url(#SVGID_2_);fill:#6FCAD2;}
</style>
<g>
	<defs>
		<rect id="SVGID_1_" width="285.2" height="285.2"/>
	</defs>
	<clipPath id="SVGID_2_">
		<use xlink:href="#SVGID_1_"  style="overflow:visible;"/>
	</clipPath>
	<path class="st0" d="M0.4,278.7v6.4l65.1-14.7c3.3-0.8,4-1.6,4-5c0-6.9,0-13.7,0-20.6l0-13.1l21.2,0c16.3,0,33.1,0,49.7,0.1
		c2.9,0,4.9-0.8,6.7-2.9c6.2-7,12.6-14.1,18.8-21c6.2-6.9,12.6-14,18.9-21.1c1.9-2.1,3.9-3,6.8-3h0c24.4,0.1,49.1,0.1,73.1,0.1
		l20.3,0v-6.6h-62.2l0-14.3c0-7.1,0-14.2,0-21.4c0-7.6-4.1-12.4-11.6-13.7c-3.3-0.6-6.6-1.1-10-1.7l-6.5-1.1l3.5-17.8h42.1v28.4h6.5
		l0-20.7c0-21.9,0-44.6-0.1-66.9c0-3.4,1.1-5.2,4.1-6.7c7.2-3.5,14.6-7.2,21.6-10.7c3.3-1.7,6.7-3.3,10-5c1.8-0.9,2.6-1.9,2.6-3.4
		c0-1.5-0.8-2.5-2.6-3.4c-1.1-0.5-2.2-1.1-3.3-1.6l-10.2-5.1c-7.7-3.9-15.5-7.7-23.2-11.6c-1.5-0.7-2.8-0.9-3.7-0.6
		c-0.6,0.2-1.1,0.7-1.4,1.5c-0.4,0.9-0.5,2.2-0.5,3.5c0,19.5,0,38.9,0,58.4l0,17.7h-39.8l1.3-2.3c9.6-16.7,8.5-29.6-3.6-39.4
		c-10.8-8.8-25.1-8.2-35.7,1.5c-4.9,4.5-7.7,10.1-8.4,16.7c-0.9,9,2.1,16.7,9.3,23.6l1.3,1.3l-1.5,1c-0.2,0.1-0.4,0.3-0.5,0.4
		c-0.2,0.1-0.3,0.2-0.5,0.3l-12.4,11c-8.9,7.9-17.8,15.8-26.7,23.7c-0.8,0.7-1.8,1.4-2.9,1.9c-9.5,4.8-16.8,8.4-23.6,11.8
		c-1,0.5-2.4,1-3.8,0.8c-3-0.4-5.9-0.9-9-1.4c-1.1-0.2-2.3-0.4-3.5-0.6l-2.7-0.4l3.8-4.2c6.2-6.8,8.5-16.2,6.3-25.1
		C85.5,93.2,79,86,70.4,83c-11.6-4.1-25.3,0.5-31.8,10.8c-6.9,11-5.6,24.9,3.2,33.8c1.9,1.9,2.3,3.7,1.3,6.2
		c-2.9,7.3-5.8,14.8-8.6,22.1c-1.7,4.5-3.5,9-5.2,13.5c-2.2,5.7-2.5,10.9-0.7,15.7c0.7,2,1.8,4,3,6c0.6,1,1.1,2,1.7,3.1l0.4,0.7
		l-0.4,0.7c-0.8,1.4-1.7,2.8-2.6,4.2c-2.1,3.4-4.2,6.9-6.2,10.5c-2.5,4.4-5.6,8.4-9.5,12.2c-3.5,3.4-7,7.1-10.4,10.6
		c-1.4,1.5-2.9,3-4.3,4.5l-0.1,0.1C0.1,237.7,0,237.9,0,238c0,0.2,0.1,0.3,0.2,0.4l0.3,0.4c1.4,1.4,2.8,2.9,4.1,4.3
		c3.7,3.9,7.6,7.9,11.5,11.8c0.7,0.7,1.5,1,2.2,1c0.8,0,1.5-0.4,2.2-1.1c3.2-3.4,6.6-6.7,9.9-9.8c7.3-7,14.9-14.3,20.3-23.2
		c1.8-3,3.8-5.8,5.7-8.6c1.6-2.4,3.3-4.8,4.8-7.3c1.4-2.3,3.5-4.7,7.6-3.3c0.2,0.1,0.6,0.1,1.1,0.1c0.3,0,0.6,0,1,0l1.4,0.1v22.5
		l-2.6,0c-0.8,0-1.6,0-2.4,0c-3.3,0.1-4.4,1.2-4.4,4.4l0,0.3c0,10-0.1,20.4,0,30.5c0,2.7-1,4.1-3.6,4.6c-10.6,2.4-21.3,4.9-31.8,7.3
		c-7.4,1.7-14.7,3.4-22.1,5.1c-0.6,0.1-1.3,0.3-2.1,0.5C2.4,278.2,1.4,278.5,0.4,278.7 M18.3,247.3l-9.7-9.9l1.3-1
		c11-8.6,20-20.2,28.3-36.6l0.5-1l16.8,3l-1,1.8c-8.3,15.5-20.1,29.9-35.1,42.8L18.3,247.3z M118.3,225.2c-2.3,0-4.5,0-6.9,0l-8.4,0
		l0-13.8c0-7,0-14,0-20.9c0-8.7-4-13.4-12.7-14.8c-3.1-0.5-6.1-1-9.3-1.6c-1.4-0.3-2.9-0.5-4.4-0.8l-1.6-0.3l3.3-13.2h1.2
		c1.7,0,3.5,0,5.2,0c4.4,0,8.9,0,13.3-0.1c1.7-0.1,3.5-0.5,4.9-1.3c9.6-5.4,20-11.2,30.4-17.4c2.8-1.7,5.5-3.7,8.1-5.6
		c1.1-0.8,2.3-1.7,3.3-2.4l1.4-1l2.2,4.1c1.5,2.8,3.1,5.7,4.5,8.6c0.5,1,0.3,2.5-0.3,3.4c-3.9,6.7-7.9,13.4-12,20
		c-0.5,0.9-1.2,1.5-1.8,2.1l-0.4,0.4c-1.9,2-3.9,3.9-5.9,5.9c-3.5,3.5-7,6.9-10.4,10.4c-2.1,2.2-2.2,3.7-0.2,5.8
		c4.3,4.4,8.8,8.9,13.5,13.5c1.9,1.9,3.6,1.9,5.6,0c7.9-7.8,15.8-15.8,23.2-23.2c0.5-0.6,1-1.3,1.5-2l0.3-0.5c4-6,8-12,12-17.9
		l2.5-3.8c3.5-5.3,4.1-5.5,10.6-3.9l1.2,0.3v20.8l-0.6,0.4c0,0-0.1,0.1-0.1,0.1c-0.2,0.2-0.8,0.7-1.5,0.5c-4.1-0.6-6.5,1.2-10,5.1
		c-10.2,11.6-20.7,23.2-30.9,34.5l-5.7,6.3c-0.7,0.7-2,2-3.5,2C132.6,225.2,125.6,225.2,118.3,225.2 M150.1,146.2L150.1,146.2z
		 M95.6,225.1H79v-22.9c0-4.9-0.4-5.4-5.1-5.8c-8.1-0.8-16.2-1.5-23.2-2.1c-9.3-0.8-15.1-5.7-16.3-13.8c-0.5-3.6,0.5-7.1,1.2-8.9
		c2.3-6.3,4.8-12.7,7.1-18.8c1.7-4.5,3.5-9.1,5.2-13.7c0.9-2.5,2.5-3.1,4.6-3.2c10.9-0.7,21.5,1.3,31.8,3.1c1.8,0.3,3.5,0.6,5.3,1
		c4.3,0.8,7.5,0.3,10.8-1.5c4.8-2.6,9.8-5.1,14.7-7.5c2.1-1,4.2-2,6.3-3.1l1.2-0.6l6,9l-1.4,0.8c-2,1.1-4,2.2-6,3.3
		c-4.5,2.5-8.7,4.8-12.8,7.5c-6.6,4.3-13.3,6.1-20.5,5.4c-2.7-0.3-5.6-0.2-8.4-0.1c-1,0-2,0.1-2.9,0.1c-2.6,0-3.5,0.8-4.2,3.3
		c-1.4,5.2-2.9,11.3-4.4,17.4c-0.4,1.6-0.3,2.8,0.2,3.6c0.5,0.8,1.6,1.3,3.2,1.6c4,0.7,8.1,1.4,12,2c2.3,0.4,4.5,0.7,6.8,1.1
		c4.2,0.7,6.2,2.9,6.2,6.9c0.1,8.6,0,17.2,0,25.6l0,8.1c0,0.5-0.2,0.8-0.3,1.1c0,0.1-0.1,0.1-0.1,0.2L95.6,225.1z M138,199.4
		l-9.5-9.5l1.1-1.1c1.1-1.1,2.3-2.2,3.4-3.4c2.7-2.6,5.5-5.3,8.1-8.1c2.7-2.9,5.2-6.1,7.4-9.5c2.7-4,5.1-8.3,7.5-12.4l1.3-2.2
		c1.2-2.1,2.7-2.7,5-2c2.5,0.7,5.1,1.2,7.7,1.6c1.1,0.2,2.2,0.4,3.2,0.6l2,0.4l-1,1.8c-8.5,15.8-20,29.8-35.2,42.9L138,199.4z
		 M215.7,177.2h-16.8l0-11c0-4.2,0-8.4,0-12.6c0-4.1-0.8-4.9-4.9-5.3c-2.9-0.3-5.8-0.5-8.6-0.8c-5.3-0.5-10.8-1-16.2-1.5
		c-5.5-0.6-10.1-3.3-12.8-7.4c-2.6-4.1-3-9.3-1.1-14.4C159,114,163,103.7,167,93.7l1.2-3c0.5-1.3,2.2-2.7,3.7-2.7
		c20.1-0.1,40.4-0.1,60.2,0l5.9,0c0.4,0,0.7,0.1,0.9,0.2c0.1,0,0.2,0.1,0.3,0.1l1.1,0.3v12l-15.4,0c-9,0-18.1,0-27.1,0
		c-4,0-4.7,0.6-5.5,4.6c-1.4,6.9-2.8,13.8-4.2,20.6c-0.4,1.8-0.3,3.1,0.2,3.9c0.5,0.8,1.7,1.3,3.5,1.6c2.6,0.4,5.1,0.9,7.7,1.3
		c3.7,0.6,7.4,1.3,11.1,1.9c3.9,0.7,5.8,2.9,5.8,6.5c0,9,0,18.2,0,27l0,6.7c0,0.4-0.1,0.8-0.2,1c0,0.1-0.1,0.2-0.1,0.3L215.7,177.2z
		 M134.1,132.7l-6.1-9.1l26.1-23.2l2.4,1.8l-1.7,4.5c-1.7,4.5-3.4,9-5.2,13.5c-0.3,0.9-1,1.5-1.5,1.9c-3.2,2.5-6.4,4.9-9.8,7.4
		L134.1,132.7z M61.4,129.3c-5.5,0-10.6-2.1-14.5-5.9c-3.9-3.9-6.1-9-6.1-14.5C40.7,97.5,49.9,88.1,61.2,88c5.4-0.1,10.5,2,14.5,5.9
		c4,3.9,6.3,9.1,6.3,14.6c0.1,11.3-9.1,20.6-20.5,20.7C61.4,129.3,61.4,129.3,61.4,129.3 M181.2,81.4L181.2,81.4
		c-5.5,0-10.7-2.2-14.6-6.2c-3.9-3.9-6.1-9.1-6-14.5c0-11.3,9.3-20.6,20.7-20.6h0c5.5,0,10.7,2.2,14.6,6.1c3.9,3.9,6,9.1,6,14.6
		c0,5.5-2.2,10.7-6.1,14.6C191.9,79.2,186.7,81.4,181.2,81.4 M247.1,36.1V8.7l27.5,13.7L247.1,36.1z"/>
</g>
</svg>
