<?xml version="1.0" encoding="utf-8"?>
<!-- Generator: Adobe Illustrator 16.0.0, SVG Export Plug-In . SVG Version: 6.00 Build 0)  -->
<!DOCTYPE svg PUBLIC "-//W3C//DTD SVG 1.1//EN" "http://www.w3.org/Graphics/SVG/1.1/DTD/svg11.dtd">
<svg version="1.1" id="Layer_1" xmlns="http://www.w3.org/2000/svg" xmlns:xlink="http://www.w3.org/1999/xlink" x="0px" y="0px"
	 width="319.25px" height="71.524px" viewBox="0 0 319.25 71.524" enable-background="new 0 0 319.25 71.524" xml:space="preserve">
<g>
	<defs>
		<rect id="SVGID_1_" width="319.25" height="71.524"/>
	</defs>
	<clipPath id="SVGID_2_">
		<use xlink:href="#SVGID_1_"  overflow="visible"/>
	</clipPath>
	<path clip-path="url(#SVGID_2_)" fill="#F58220" d="M0,21.5h17.237c10.202,0,16.673,5.839,16.673,15.548
		c0,9.64-6.472,15.481-16.673,15.481H9.85v18.643H0V21.5z M16.603,43.662c4.363,0,7.176-2.392,7.176-6.683
		c0-4.292-2.813-6.613-7.176-6.613H9.85v13.296H16.603z"/>
	<rect x="38.833" y="21.5" clip-path="url(#SVGID_2_)" fill="#F58220" width="9.851" height="49.672"/>
	<polygon clip-path="url(#SVGID_2_)" fill="#F58220" points="57.123,21.5 68.098,21.5 82.168,52.809 82.168,21.5 91.527,21.5 
		91.527,71.172 80.622,71.172 66.479,39.582 66.479,71.172 57.123,71.172 	"/>
	<polygon clip-path="url(#SVGID_2_)" fill="#F58220" points="99.965,21.5 110.941,21.5 125.011,52.809 125.011,21.5 134.369,21.5 
		134.369,71.172 123.465,71.172 109.323,39.582 109.323,71.172 99.965,71.172 	"/>
	<path clip-path="url(#SVGID_2_)" fill="#F58220" d="M180.022,37.612c0-10.061,6.682-16.462,16.532-16.462
		s16.534,6.473,16.534,16.462v0.916H203.1c0-5.771-2.394-8.515-6.545-8.515c-4.148,0-6.473,2.815-6.473,8.583v15.549
		c0,5.7,2.324,8.514,6.473,8.514c4.151,0,6.545-2.745,6.545-8.441h9.989v0.841c0,9.992-6.684,16.466-16.534,16.466
		s-16.532-6.402-16.532-16.393V37.612z"/>
	<polygon clip-path="url(#SVGID_2_)" fill="#F58220" points="219.065,21.5 228.913,21.5 228.913,61.815 247.069,61.815 
		247.069,71.172 219.065,71.172 	"/>
	<polygon clip-path="url(#SVGID_2_)" fill="#F58220" points="251.988,21.5 279.92,21.5 279.92,30.998 261.838,30.998 
		261.838,40.849 273.587,40.849 273.587,50.346 261.838,50.346 261.838,61.743 280.13,61.743 280.13,71.172 251.988,71.172 	"/>
	<path clip-path="url(#SVGID_2_)" fill="#F58220" d="M152.587,21.5h11.538l12.735,49.672h-10.553l-1.761-8.02h-13.79l-1.969,8.02
		h-10.202L152.587,21.5z M162.719,54.778l-4.645-21.528l-5.276,21.528H162.719z"/>
	<path clip-path="url(#SVGID_2_)" fill="#949494" d="M288.731,45.391c6.479-8.271,10.635-12.386,10.635-16.379
		c0-1.956-0.897-3.097-2.405-3.097c-1.711,0-2.486,1.343-2.486,3.544v0.61h-5.621v-0.775c0-4.48,3.096-7.944,8.188-7.944
		c4.482,0,8.027,2.894,8.027,7.742c0,5.134-4.154,9.902-9.494,16.093h9.535v5.135h-16.379V45.391z"/>
	<path clip-path="url(#SVGID_2_)" fill="#949494" d="M313.465,28.319l-6.521,1.384l-0.61-3.625c1.955-0.734,6.844-2.812,7.412-4.522
		h5.505v28.768h-5.785V28.319z"/>
	<line clip-path="url(#SVGID_2_)" fill="#F58220" x1="171.958" y1="41.004" x2="171.958" y2="40.638"/>
	<polygon clip-path="url(#SVGID_2_)" fill="#F58220" points="158.611,0.001 153.157,19.387 163.585,19.387 	"/>
</g>
</svg>
