<?xml version="1.0" encoding="utf-8"?>
<!-- Generator: Adobe Illustrator 16.0.0, SVG Export Plug-In . SVG Version: 6.00 Build 0)  -->
<!DOCTYPE svg PUBLIC "-//W3C//DTD SVG 1.1//EN" "http://www.w3.org/Graphics/SVG/1.1/DTD/svg11.dtd">
<svg version="1.1" id="Layer_1" xmlns="http://www.w3.org/2000/svg" xmlns:xlink="http://www.w3.org/1999/xlink" x="0px" y="0px"
	 width="459.494px" height="321.333px" viewBox="0 0 459.494 321.333" enable-background="new 0 0 459.494 321.333"
	 xml:space="preserve">
<g>
	<defs>
		<rect id="SVGID_1_" width="459.494" height="321.333"/>
	</defs>
	<clipPath id="SVGID_2_">
		<use xlink:href="#SVGID_1_"  overflow="visible"/>
	</clipPath>
	<path clip-path="url(#SVGID_2_)" fill="none" stroke="#242424" stroke-miterlimit="10" d="M353.618,228.998l-37.783-64.859
		c-3.15-5.668-8.816-8.816-15.112-8.816H225.47c-6.611,0-11.964,3.148-15.427,8.816l-37.468,64.859
		c-3.148,5.666-3.148,12.278,0,17.633l37.468,65.175c3.463,5.667,8.815,8.814,15.427,8.814h75.253
		c6.296,0,11.962-3.147,15.112-8.814l37.783-65.175C356.766,241.276,356.766,234.664,353.618,228.998z"/>
	<path clip-path="url(#SVGID_2_)" fill="none" stroke="#242424" stroke-miterlimit="10" d="M335.865,59.94L305.491,7.799
		c-2.528-4.555-7.086-7.087-12.146-7.087H232.85c-5.316,0-9.62,2.532-12.402,7.087L190.325,59.94c-2.529,4.556-2.529,9.872,0,14.174
		l30.122,52.394c2.782,4.557,7.086,7.087,12.402,7.087h60.496c5.06,0,9.617-2.53,12.146-7.087l30.374-52.394
		C338.397,69.813,338.397,64.497,335.865,59.94z"/>
	<path clip-path="url(#SVGID_2_)" fill="none" stroke="#242424" stroke-miterlimit="10" d="M114.853,232.388l-23.515-40.366
		c-1.958-3.528-5.487-5.486-9.405-5.486H35.102c-4.116,0-7.446,1.958-9.603,5.486L2.18,232.388c-1.957,3.527-1.957,7.643,0,10.973
		l23.319,40.56c2.157,3.529,5.487,5.487,9.603,5.487h46.831c3.918,0,7.447-1.958,9.405-5.487l23.515-40.56
		C116.81,240.03,116.81,235.915,114.853,232.388z"/>
	<path clip-path="url(#SVGID_2_)" fill="none" stroke="#242424" stroke-miterlimit="10" d="M414.825,135.332l-18.319-31.445
		c-1.526-2.748-4.273-4.274-7.326-4.274h-36.484c-3.205,0-5.799,1.526-7.48,4.274l-18.162,31.445c-1.528,2.747-1.528,5.954,0,8.548
		l18.162,31.598c1.682,2.749,4.275,4.274,7.48,4.274h36.484c3.053,0,5.8-1.526,7.326-4.274l18.319-31.598
		C416.349,141.285,416.349,138.079,414.825,135.332z"/>
	<path clip-path="url(#SVGID_2_)" fill="none" stroke="#242424" stroke-miterlimit="10" d="M458.132,84.588l-10.4-17.857
		c-0.867-1.557-2.428-2.425-4.159-2.425h-20.716c-1.82,0-3.294,0.868-4.248,2.425l-10.313,17.857c-0.865,1.561-0.865,3.38,0,4.854
		l10.313,17.939c0.954,1.561,2.428,2.427,4.248,2.427h20.716c1.731,0,3.292-0.866,4.159-2.427l10.4-17.939
		C458.999,87.968,458.999,86.148,458.132,84.588z"/>
</g>
</svg>
