<?xml version="1.0" encoding="utf-8"?>
<!-- Generator: Adobe Illustrator 16.0.0, SVG Export Plug-In . SVG Version: 6.00 Build 0)  -->
<!DOCTYPE svg PUBLIC "-//W3C//DTD SVG 1.1//EN" "http://www.w3.org/Graphics/SVG/1.1/DTD/svg11.dtd">
<svg version="1.1" id="Layer_1" xmlns="http://www.w3.org/2000/svg" xmlns:xlink="http://www.w3.org/1999/xlink" x="0px" y="0px"
	 width="536.239px" height="304.25px" viewBox="0 0 536.239 304.25" enable-background="new 0 0 536.239 304.25"
	 xml:space="preserve">
<g>
	<defs>
		<rect id="SVGID_1_" width="536.239" height="304.25"/>
	</defs>
	<clipPath id="SVGID_2_">
		<use xlink:href="#SVGID_1_"  overflow="visible"/>
	</clipPath>
	<path clip-path="url(#SVGID_2_)" fill="none" stroke="#252525" stroke-miterlimit="10" d="M261.045,101.303l-75.146-0.384
		c-6.488-0.165-12.085,3.122-15.287,8.552l-38.25,64.901c-3.362,5.702-3.367,11.921-0.24,17.789l36.893,65.284
		c3.288,5.598,8.991,8.956,15.208,8.963l75.257,0.815c6.647-0.105,12.085-3.121,15.446-8.824l38.251-64.902
		c3.201-5.431,3.368-11.918,0.081-17.517l-37.006-65.716C273.236,104.831,267.534,101.469,261.045,101.303z"/>
	<path clip-path="url(#SVGID_2_)" fill="none" stroke="#252525" stroke-miterlimit="10" d="M106.214,30.676l-60.41-0.31
		c-5.215-0.132-9.715,2.511-12.288,6.877L2.766,89.418C0.063,94.001,0.06,99,2.573,103.717l29.66,52.484
		c2.643,4.499,7.227,7.201,12.225,7.205l60.5,0.655c5.345-0.086,9.715-2.511,12.417-7.096l30.75-52.174
		c2.575-4.365,2.705-9.581,0.063-14.08l-29.747-52.831C116.015,33.51,111.431,30.81,106.214,30.676z"/>
	<path clip-path="url(#SVGID_2_)" fill="none" stroke="#252525" stroke-miterlimit="10" d="M501.544,132.561l-46.769-0.238
		c-4.036-0.104-7.519,1.943-9.513,5.321l-23.806,40.391c-2.091,3.55-2.093,7.418-0.148,11.072l22.961,40.628
		c2.047,3.481,5.595,5.574,9.465,5.578l46.834,0.509c4.14-0.066,7.523-1.945,9.614-5.492l23.807-40.391
		c1.989-3.381,2.094-7.418,0.049-10.9l-23.032-40.899C509.13,134.756,505.583,132.663,501.544,132.561z"/>
	<path clip-path="url(#SVGID_2_)" fill="none" stroke="#252525" stroke-miterlimit="10" d="M211.373,0.901l-36.431-0.186
		c-3.146-0.082-5.859,1.512-7.411,4.146l-18.545,31.465c-1.629,2.766-1.632,5.78-0.117,8.623l17.888,31.652
		c1.594,2.712,4.358,4.342,7.373,4.345l36.485,0.396c3.224-0.051,5.857-1.513,7.488-4.279l18.543-31.466
		c1.554-2.632,1.633-5.777,0.04-8.491l-17.941-31.86C217.284,2.61,214.521,0.981,211.373,0.901z"/>
	<path clip-path="url(#SVGID_2_)" fill="none" stroke="#252525" stroke-miterlimit="10" d="M323.205,257.863l-20.688-0.105
		c-1.786-0.043-3.326,0.858-4.207,2.354l-10.531,17.865c-0.923,1.569-0.925,3.281-0.065,4.897l10.156,17.971
		c0.905,1.539,2.476,2.467,4.187,2.468l20.717,0.225c1.829-0.03,3.326-0.859,4.253-2.431l10.528-17.865
		c0.883-1.495,0.928-3.28,0.022-4.819l-10.187-18.094C326.56,258.835,324.989,257.908,323.205,257.863z"/>
</g>
</svg>
