<?xml version="1.0" encoding="utf-8"?>
<!-- Generator: Adobe Illustrator 16.0.0, SVG Export Plug-In . SVG Version: 6.00 Build 0)  -->
<!DOCTYPE svg PUBLIC "-//W3C//DTD SVG 1.1//EN" "http://www.w3.org/Graphics/SVG/1.1/DTD/svg11.dtd">
<svg version="1.1" id="Layer_1" xmlns="http://www.w3.org/2000/svg" xmlns:xlink="http://www.w3.org/1999/xlink" x="0px" y="0px"
	 width="460.306px" height="321.9px" viewBox="0 -96.239 460.306 321.9" enable-background="new 0 -96.239 460.306 321.9"
	 xml:space="preserve">
<g>
	<g>
		<g>
			<defs>
				<rect id="SVGID_1_" y="-96.239" width="460.306" height="321.9"/>
			</defs>
			<clipPath id="SVGID_2_">
				<use xlink:href="#SVGID_1_"  overflow="visible"/>
			</clipPath>
			<path clip-path="url(#SVGID_2_)" fill="none" stroke="#252525" stroke-miterlimit="10" d="M354.242,133.162l-37.85-64.975
				c-3.155-5.675-8.83-8.829-15.138-8.829H225.87c-6.625,0-11.987,3.154-15.455,8.829l-37.535,64.976
				c-3.154,5.679-3.154,12.301,0,17.667l37.535,65.289c3.467,5.68,8.83,8.83,15.455,8.83h75.382c6.309,0,11.983-3.15,15.141-8.83
				l37.848-65.289C357.395,145.463,357.395,138.842,354.242,133.162z"/>
		</g>
	</g>
	<g>
		<g>
			<defs>
				<rect id="SVGID_3_" y="-96.239" width="460.306" height="321.9"/>
			</defs>
			<clipPath id="SVGID_4_">
				<use xlink:href="#SVGID_3_"  overflow="visible"/>
			</clipPath>
			<path clip-path="url(#SVGID_4_)" fill="none" stroke="#252525" stroke-miterlimit="10" d="M336.46-36.193l-30.43-52.233
				c-2.533-4.563-7.101-7.099-12.168-7.099h-60.6c-5.325,0-9.636,2.537-12.425,7.099l-30.175,52.233
				c-2.537,4.563-2.537,9.888,0,14.198l30.175,52.487c2.789,4.565,7.1,7.099,12.425,7.099h60.6c5.07,0,9.635-2.534,12.168-7.099
				l30.43-52.487C338.993-26.304,338.993-31.63,336.46-36.193z"/>
		</g>
	</g>
	<g>
		<g>
			<defs>
				<rect id="SVGID_5_" y="-96.239" width="460.306" height="321.9"/>
			</defs>
			<clipPath id="SVGID_6_">
				<use xlink:href="#SVGID_5_"  overflow="visible"/>
			</clipPath>
			<path clip-path="url(#SVGID_6_)" fill="none" stroke="#252525" stroke-miterlimit="10" d="M115.053,136.56L91.499,96.122
				c-1.963-3.535-5.496-5.495-9.421-5.495H35.163c-4.124,0-7.459,1.96-9.619,5.495L2.183,136.56c-1.961,3.533-1.961,7.654,0,10.989
				l23.362,40.633c2.16,3.538,5.495,5.498,9.619,5.498h46.914c3.925,0,7.458-1.96,9.421-5.498l23.555-40.633
				C117.017,144.214,117.017,140.093,115.053,136.56z"/>
		</g>
	</g>
	<g>
		<g>
			<defs>
				<rect id="SVGID_7_" y="-96.239" width="460.306" height="321.9"/>
			</defs>
			<clipPath id="SVGID_8_">
				<use xlink:href="#SVGID_7_"  overflow="visible"/>
			</clipPath>
			<path clip-path="url(#SVGID_8_)" fill="none" stroke="#252525" stroke-miterlimit="10" d="M415.556,39.331L397.207,7.83
				c-1.529-2.753-4.282-4.281-7.345-4.281h-36.544c-3.21,0-5.81,1.528-7.491,4.281l-18.2,31.501c-1.525,2.753-1.525,5.964,0,8.563
				l18.2,31.653c1.682,2.755,4.282,4.281,7.493,4.281h36.544c3.063,0,5.813-1.526,7.344-4.281l18.351-31.653
				C417.085,45.297,417.085,42.084,415.556,39.331z"/>
		</g>
	</g>
	<g>
		<g>
			<defs>
				<rect id="SVGID_9_" y="-96.239" width="460.306" height="321.9"/>
			</defs>
			<clipPath id="SVGID_10_">
				<use xlink:href="#SVGID_9_"  overflow="visible"/>
			</clipPath>
			<path clip-path="url(#SVGID_10_)" fill="none" stroke="#252525" stroke-miterlimit="10" d="M458.94-11.502l-10.421-17.887
				c-0.865-1.562-2.43-2.431-4.164-2.431h-20.752c-1.827,0-3.3,0.869-4.254,2.431l-10.333,17.887c-0.865,1.563-0.865,3.386,0,4.862
				l10.333,17.973c0.954,1.563,2.427,2.432,4.254,2.432h20.752c1.734,0,3.299-0.868,4.164-2.432L458.94-6.64
				C459.808-8.116,459.808-9.939,458.94-11.502z"/>
		</g>
	</g>
</g>
</svg>
