<?xml version="1.0" encoding="utf-8"?>
<!-- Generator: Adobe Illustrator 16.0.0, SVG Export Plug-In . SVG Version: 6.00 Build 0)  -->
<!DOCTYPE svg PUBLIC "-//W3C//DTD SVG 1.1//EN" "http://www.w3.org/Graphics/SVG/1.1/DTD/svg11.dtd">
<svg version="1.1" id="Layer_1" xmlns="http://www.w3.org/2000/svg" xmlns:xlink="http://www.w3.org/1999/xlink" x="0px" y="0px"
	 width="535.292px" height="303.712px" viewBox="0 -90.288 535.292 303.712" enable-background="new 0 -90.288 535.292 303.712"
	 xml:space="preserve">
<g>
	<path fill="none" stroke="#252525" stroke-miterlimit="10" d="M260.583,10.837l-75.013-0.383
		c-6.475-0.165-12.063,3.117-15.258,8.538l-38.184,64.787c-3.355,5.692-3.361,11.898-0.238,17.758l36.828,65.169
		c3.282,5.588,8.976,8.94,15.181,8.946l75.123,0.813c6.638-0.104,12.063-3.115,15.42-8.808l38.185-64.787
		c3.194-5.421,3.362-11.895,0.08-17.483l-36.939-65.602C272.754,14.357,267.059,11.002,260.583,10.837z"/>
	<path fill="none" stroke="#252525" stroke-miterlimit="10" d="M106.026-59.666l-60.303-0.309
		c-5.207-0.131-9.698,2.506-12.267,6.865L2.76-1.027c-2.696,4.576-2.7,9.564-0.192,14.272l29.608,52.389
		c2.637,4.493,7.213,7.191,12.202,7.196l60.392,0.654c5.336-0.087,9.699-2.507,12.396-7.085l30.695-52.081
		c2.57-4.357,2.702-9.563,0.065-14.056l-29.696-52.734C115.809-56.836,111.233-59.533,106.026-59.666z"/>
	<path fill="none" stroke="#252525" stroke-miterlimit="10" d="M500.656,42.039l-46.685-0.238c-4.032-0.104-7.506,1.938-9.499,5.313
		l-23.762,40.32c-2.088,3.543-2.092,7.404-0.15,11.051l22.919,40.556c2.048,3.478,5.587,5.565,9.451,5.571l46.751,0.505
		c4.131-0.067,7.511-1.939,9.599-5.484l23.761-40.316c1.987-3.376,2.092-7.405,0.049-10.883l-22.987-40.826
		C508.228,44.229,504.688,42.142,500.656,42.039z"/>
	<path fill="none" stroke="#252525" stroke-miterlimit="10" d="M210.999-89.388l-36.367-0.185c-3.14-0.081-5.85,1.51-7.397,4.139
		l-18.513,31.409c-1.626,2.761-1.628,5.769-0.117,8.608l17.856,31.596c1.591,2.708,4.351,4.335,7.36,4.337l36.421,0.394
		c3.217-0.05,5.849-1.51,7.475-4.27l18.513-31.41c1.547-2.628,1.629-5.767,0.039-8.477l-17.912-31.804
		C216.898-87.682,214.139-89.308,210.999-89.388z"/>
	<path fill="none" stroke="#252525" stroke-miterlimit="10" d="M322.632,167.121l-20.65-0.106c-1.783-0.045-3.322,0.857-4.2,2.349
		l-10.512,17.835c-0.923,1.568-0.924,3.276-0.065,4.89l10.139,17.938c0.903,1.536,2.47,2.459,4.181,2.462l20.679,0.223
		c1.823-0.031,3.316-0.858,4.245-2.426l10.51-17.834c0.881-1.492,0.924-3.275,0.022-4.811l-10.168-18.06
		C325.982,168.088,324.415,167.164,322.632,167.121z"/>
	<rect y="-90.288" fill="none" width="535.292" height="303.712"/>
</g>
</svg>
