<?xml version="1.0" encoding="utf-8"?>
<!-- Generator: Adobe Illustrator 25.0.0, SVG Export Plug-In . SVG Version: 6.00 Build 0)  -->
<svg version="1.1" id="Layer_1" xmlns="http://www.w3.org/2000/svg" xmlns:xlink="http://www.w3.org/1999/xlink" x="0px" y="0px"
	 width="95.2px" height="162.1px" viewBox="0 0 95.2 162.1" style="enable-background:new 0 0 95.2 162.1;" xml:space="preserve">
<style type="text/css">
	.st0{fill:#FFFFFF;}
	.st1{fill:#949494;}
</style>
<g>
	<polygon class="st0" points="0.9,136 0.9,0.9 94.3,0.9 94.3,136 47.6,161.1 	"/>
	<path class="st1" d="M93.4,1.8v133.6l-45.8,24.7L1.8,135.4V1.8H93.4 M95.2,0H0v136.5l47.6,25.6l47.6-25.6V0L95.2,0z"/>
</g>
<g>
	<path class="st1" d="M44.2,141.1v3.5c0,0.8-0.2,1.4-0.7,1.8c-0.4,0.4-1.1,0.7-1.8,0.7s-1.4-0.2-1.8-0.7c-0.4-0.4-0.7-1-0.7-1.8
		v-3.5h1.2v3.5c0,0.9,0.4,1.4,1.3,1.4c0.8,0,1.3-0.5,1.3-1.4v-3.5H44.2z"/>
	<path class="st1" d="M48.8,141.5c0.4,0.3,0.6,0.8,0.6,1.3l-1.2,0.1c0-0.5-0.4-0.8-0.9-0.8c-0.5,0-0.9,0.3-0.9,0.7
		c0,0.2,0.1,0.4,0.2,0.5c0.2,0.1,0.5,0.2,0.9,0.3c0.7,0.2,1.2,0.4,1.5,0.6c0.3,0.2,0.5,0.6,0.5,1.1c0,0.6-0.2,1-0.6,1.3
		c-0.4,0.3-0.9,0.5-1.5,0.5c-0.7,0-1.3-0.2-1.7-0.5c-0.4-0.3-0.7-0.8-0.7-1.4l1.2-0.1c0,0.5,0.5,0.9,1.1,0.9c0.6,0,0.9-0.2,0.9-0.7
		c0-0.4-0.3-0.6-1.2-0.8c-0.3-0.1-0.6-0.1-0.8-0.2c-0.2-0.1-0.4-0.2-0.6-0.3c-0.4-0.3-0.6-0.7-0.6-1.2c0-0.5,0.2-0.9,0.5-1.3
		c0.4-0.3,0.9-0.5,1.5-0.5C47.9,141,48.4,141.1,48.8,141.5z"/>
	<path class="st1" d="M55.8,146.9h-1.3l-0.5-1.1h-2.4l-0.5,1.1h-1.3l2.5-5.9h1L55.8,146.9z M52,144.8h1.6l-0.8-1.9L52,144.8z"/>
</g>
<g>
	<rect x="0" y="0" class="st1" width="95.2" height="95.2"/>
	<g>
		<g>
			<path class="st0" d="M23.7,14.7V16c0,2.4-0.8,4.3-2.3,5.8c-1.5,1.5-3.5,2.2-5.9,2.2c-2.6,0-4.7-0.8-6.4-2.5
				c-1.7-1.7-2.5-3.7-2.5-6.2c0-2.4,0.8-4.5,2.5-6.2c1.7-1.7,3.8-2.5,6.3-2.5c3.1,0,5.8,1.5,7.3,3.9l-2.8,1.6
				c-0.8-1.4-2.5-2.3-4.5-2.3c-1.6,0-2.9,0.5-3.9,1.6c-1,1-1.5,2.3-1.5,3.9c0,1.6,0.5,2.9,1.6,3.9c1.1,1,2.4,1.5,4.2,1.5
				c2.6,0,4.3-1.2,4.9-3.2h-5.1v-2.9H23.7z"/>
			<path class="st0" d="M28.6,13.8c0.5-1.5,1.9-2.3,3.4-2.3v3.4c-0.9-0.1-1.7,0.1-2.4,0.6c-0.7,0.5-1,1.3-1,2.5v5.7h-2.9V11.7h2.9
				V13.8z"/>
			<path class="st0" d="M37,18.9c0.4,1.5,1.5,2.2,3.4,2.2c1.2,0,2.1-0.4,2.7-1.2l2.5,1.4c-1.2,1.7-2.9,2.6-5.2,2.6
				c-2,0-3.6-0.6-4.8-1.8c-1.2-1.2-1.8-2.7-1.8-4.5c0-1.8,0.6-3.3,1.8-4.5c1.2-1.2,2.7-1.8,4.5-1.8c1.7,0,3.2,0.6,4.3,1.8
				c1.1,1.2,1.7,2.7,1.7,4.5c0,0.4,0,0.8-0.1,1.3H37z M43,16.6c-0.4-1.6-1.6-2.4-3-2.4c-1.6,0-2.8,0.9-3.1,2.4H43z"/>
			<path class="st0" d="M57.2,11.7h3.1v11.9h-3.1v-1.4C56.3,23.4,55,24,53.3,24c-1.6,0-3-0.6-4.1-1.8c-1.1-1.2-1.7-2.7-1.7-4.5
				c0-1.8,0.6-3.2,1.7-4.5c1.1-1.2,2.5-1.8,4.1-1.8c1.7,0,3,0.6,3.9,1.7V11.7z M53.9,21c1,0,1.7-0.3,2.4-0.9c0.6-0.6,1-1.5,1-2.4
				s-0.3-1.8-1-2.4c-0.6-0.6-1.4-1-2.4-1c-1,0-1.7,0.3-2.4,1c-0.6,0.6-0.9,1.4-0.9,2.4s0.3,1.8,0.9,2.4C52.2,20.7,53,21,53.9,21z"/>
			<path class="st0" d="M70.4,14.7h-2.7v5c0,1.3,0.9,1.3,2.7,1.2v2.8c-4.2,0.5-5.8-0.7-5.8-4v-5h-2.1v-3h2.1V9.3l3.1-0.9v3.3h2.7
				V14.7z"/>
			<path class="st0" d="M14.9,27.9c1.6,0,3,0.5,4.1,1.6c1.1,1.1,1.6,2.4,1.6,4c0,1.6-0.5,2.9-1.6,4c-1.1,1.1-2.5,1.6-4.1,1.6H12v5.5
				H8.7V27.9H14.9z M14.9,36.1c1.4,0,2.4-1.1,2.4-2.5c0-1.5-1-2.5-2.4-2.5H12v5.1H14.9z"/>
			<path class="st0" d="M22.9,44.6V28.1H26v16.6H22.9z"/>
			<path class="st0" d="M38.3,32.7h3.1v11.9h-3.1v-1.4c-0.9,1.2-2.2,1.7-3.9,1.7c-1.6,0-3-0.6-4.1-1.8c-1.1-1.2-1.7-2.7-1.7-4.5
				c0-1.8,0.6-3.2,1.7-4.5c1.1-1.2,2.5-1.8,4.1-1.8c1.7,0,3,0.6,3.9,1.7V32.7z M35,42c1,0,1.7-0.3,2.4-0.9c0.6-0.6,1-1.5,1-2.4
				c0-1-0.3-1.8-1-2.4c-0.6-0.6-1.4-1-2.4-1c-1,0-1.7,0.3-2.4,1c-0.6,0.6-0.9,1.4-0.9,2.4c0,1,0.3,1.8,0.9,2.4
				C33.3,41.7,34.1,42,35,42z"/>
			<path class="st0" d="M45.9,43.2c-1.2-1.2-1.8-2.7-1.8-4.5c0-1.8,0.6-3.3,1.8-4.5c1.2-1.2,2.7-1.8,4.5-1.8c2.3,0,4.4,1.2,5.3,3.1
				L53.1,37c-0.5-1-1.5-1.6-2.7-1.6c-1.8,0-3.2,1.4-3.2,3.3c0,0.9,0.3,1.7,0.9,2.3c0.6,0.6,1.4,0.9,2.3,0.9c1.2,0,2.3-0.6,2.7-1.6
				l2.7,1.5c-1.1,1.9-3.1,3.1-5.4,3.1C48.6,45,47.1,44.4,45.9,43.2z"/>
			<path class="st0" d="M60.7,39.9c0.4,1.5,1.5,2.2,3.4,2.2c1.2,0,2.1-0.4,2.7-1.2l2.5,1.4C68,44.1,66.3,45,64,45
				c-2,0-3.6-0.6-4.8-1.8c-1.2-1.2-1.8-2.7-1.8-4.5c0-1.8,0.6-3.3,1.8-4.5c1.2-1.2,2.7-1.8,4.5-1.8c1.7,0,3.2,0.6,4.3,1.8
				c1.1,1.2,1.7,2.7,1.7,4.5c0,0.4,0,0.8-0.1,1.3H60.7z M66.7,37.5c-0.4-1.6-1.6-2.4-3-2.4c-1.6,0-2.8,0.9-3.1,2.4H66.7z"/>
			<path class="st0" d="M18.8,49.7v3h-4.5v12.9H11V52.7H6.5v-3H18.8z"/>
			<path class="st0" d="M23.9,66c-1.8,0-3.3-0.6-4.5-1.8c-1.2-1.2-1.8-2.7-1.8-4.5c0-1.8,0.6-3.2,1.8-4.5c1.2-1.2,2.7-1.8,4.5-1.8
				c1.8,0,3.3,0.6,4.5,1.8c1.2,1.2,1.8,2.7,1.8,4.5c0,1.8-0.6,3.3-1.8,4.5C27.2,65.4,25.7,66,23.9,66z M23.9,62.9
				c0.9,0,1.7-0.3,2.3-0.9c0.6-0.6,0.9-1.4,0.9-2.4s-0.3-1.7-0.9-2.4c-0.6-0.6-1.4-0.9-2.3-0.9c-0.9,0-1.7,0.3-2.3,0.9
				c-0.6,0.6-0.9,1.4-0.9,2.4s0.3,1.7,0.9,2.4C22.3,62.6,23,62.9,23.9,62.9z"/>
			<path class="st0" d="M11.7,87.6L7,70.9h3.5l3.2,12.4l3.5-12.4h2.8l3.5,12.4l3.2-12.4h3.5l-4.7,16.7h-3.7l-3.2-11l-3.1,11H11.7z"
				/>
			<path class="st0" d="M36.1,87.9c-1.8,0-3.3-0.6-4.5-1.8s-1.8-2.7-1.8-4.5c0-1.8,0.6-3.2,1.8-4.5c1.2-1.2,2.7-1.8,4.5-1.8
				c1.8,0,3.3,0.6,4.5,1.8c1.2,1.2,1.8,2.7,1.8,4.5c0,1.8-0.6,3.3-1.8,4.5C39.4,87.3,37.9,87.9,36.1,87.9z M36.1,84.9
				c0.9,0,1.7-0.3,2.3-0.9c0.6-0.6,0.9-1.4,0.9-2.4s-0.3-1.7-0.9-2.4c-0.6-0.6-1.4-0.9-2.3-0.9c-0.9,0-1.7,0.3-2.3,0.9
				c-0.6,0.6-0.9,1.4-0.9,2.4s0.3,1.7,0.9,2.4C34.4,84.6,35.2,84.9,36.1,84.9z"/>
			<path class="st0" d="M47.7,77.7c0.6-1.5,2-2.3,3.6-2.3v3.4c-0.9-0.1-1.8,0.1-2.5,0.6c-0.7,0.5-1.1,1.3-1.1,2.5v5.7h-3.1V75.7h3.1
				V77.7z"/>
			<path class="st0" d="M64.6,87.6H61l-4.3-5.4v5.4h-3.1V70.9h3.1v10l4.1-5.3h3.7l-4.8,5.9L64.6,87.6z"/>
		</g>
		<g>
			<path class="st0" d="M65.7,85.4c0-1.5,1.2-2.7,2.7-2.7c1.5,0,2.7,1.2,2.7,2.7c0,1.5-1.2,2.7-2.7,2.7C66.9,88.1,65.7,87,65.7,85.4
				z M70.6,85.4c0-1.3-0.9-2.2-2.2-2.2c-1.3,0-2.2,0.9-2.2,2.3c0,1.3,1,2.2,2.2,2.2C69.7,87.7,70.6,86.7,70.6,85.4z M67.5,84.1h0.9
				c0.6,0,1,0.3,1,0.8v0c0,0.4-0.2,0.6-0.5,0.7l0.7,1.1H69l-0.6-1h-0.3v1h-0.6V84.1z M68.4,85.3c0.3,0,0.5-0.1,0.5-0.4v0
				c0-0.3-0.2-0.4-0.5-0.4h-0.3v0.8H68.4z"/>
		</g>
	</g>
</g>
<g>
	<g>
		<path class="st1" d="M18.8,105.4c1.3,1,2.1,2.3,2.3,4l-3.1,0.3c-0.4-2-1.8-3.1-3.9-3.1c-1.3,0-2.3,0.4-3.1,1.3
			c-0.8,0.9-1.1,2-1.1,3.5c0,1.5,0.4,2.7,1.2,3.5c0.8,0.8,1.8,1.3,3.1,1.3c2,0,3.5-1.1,3.8-3.1l3.1,0.3c-0.3,1.7-1,3-2.3,4
			c-1.3,1-2.8,1.5-4.6,1.5c-2.2,0-4-0.7-5.3-2c-1.4-1.3-2.1-3.2-2.1-5.4c0-2.3,0.7-4.1,2.1-5.4c1.4-1.3,3.1-2,5.3-2
			C16,103.9,17.6,104.4,18.8,105.4z"/>
		<path class="st1" d="M32,114.5h-6.9c0.1,1.3,0.8,2,2.1,2c1,0,1.6-0.4,1.8-1.1l2.9,0.1c-0.2,1-0.7,1.7-1.6,2.3
			c-0.9,0.6-1.9,0.9-3,0.9c-1.6,0-2.8-0.5-3.8-1.4c-1-1-1.4-2.2-1.4-3.8c0-1.6,0.5-2.9,1.4-3.8c1-1,2.2-1.4,3.7-1.4
			c1.5,0,2.6,0.4,3.5,1.3c0.9,0.9,1.3,2.1,1.3,3.6V114.5z M25.1,112.6h4c-0.1-1.3-0.7-2-2-2C26,110.6,25.2,111.4,25.1,112.6z"/>
		<path class="st1" d="M38.8,111.2c-1.6,0-2.7,0.9-2.7,2.3v5.1h-2.8v-10h2.7v1.1c0.5-0.8,1.5-1.2,2.8-1.2V111.2z"/>
		<path class="st1" d="M44.7,111l0,3.7c0,1,0.6,1.5,1.5,1.5c0.2,0,0.5,0,0.9-0.1v2.5c-0.5,0.1-1.1,0.1-1.6,0.1
			c-2.3,0-3.7-1.1-3.6-3.4l0-4.4H40v-2.4h1.8l0-3.3h2.8l0,3.3h2.3v2.4H44.7z"/>
		<path class="st1" d="M51.7,105.3c0,0.5-0.2,0.9-0.5,1.2c-0.6,0.6-1.8,0.6-2.4,0c-1.1-1-0.2-3,1.2-2.9
			C50.9,103.6,51.7,104.4,51.7,105.3z M51.4,118.6h-2.8v-10h2.8V118.6z"/>
		<path class="st1" d="M59.4,103.5v2.4c-0.2,0-0.4,0-0.7,0c-1,0-1.7,0.6-1.7,1.6v1.1h2.3v2.4h-2.3v7.6h-2.8V111h-1.8v-2.4h1.8v-1
			c0-1.3,0.4-2.2,1.1-3c0.8-0.8,1.8-1.1,3-1.1C58.8,103.4,59.1,103.4,59.4,103.5z M64.2,105.3c0,0.5-0.2,0.9-0.5,1.2
			c-0.6,0.6-1.8,0.6-2.4,0c-1.1-1-0.2-3,1.2-2.9C63.5,103.6,64.2,104.4,64.2,105.3z M63.9,118.6h-2.8v-10h2.8V118.6z"/>
		<path class="st1" d="M75.2,114.5h-6.9c0.1,1.3,0.8,2,2.1,2c1,0,1.6-0.4,1.8-1.1l2.9,0.1c-0.2,1-0.7,1.7-1.6,2.3
			c-0.9,0.6-1.9,0.9-3,0.9c-1.6,0-2.8-0.5-3.8-1.4c-1-1-1.4-2.2-1.4-3.8c0-1.6,0.5-2.9,1.4-3.8c1-1,2.2-1.4,3.7-1.4
			c1.5,0,2.6,0.4,3.5,1.3c0.9,0.9,1.3,2.1,1.3,3.6V114.5z M68.3,112.6h4c-0.1-1.3-0.7-2-2-2C69.2,110.6,68.4,111.4,68.3,112.6z"/>
		<path class="st1" d="M86.5,118.6h-2.7v-1c-0.6,0.7-1.6,1.2-3,1.2c-1.4,0-2.6-0.5-3.5-1.4c-0.9-1-1.3-2.2-1.3-3.8
			c0-1.6,0.4-2.8,1.3-3.8c0.9-1,2.1-1.4,3.5-1.4c1.3,0,2.2,0.3,2.8,1.1v-5.9h2.8V118.6z M78.9,113.6c0,1.8,1,2.8,2.4,2.8
			c1.4,0,2.4-1,2.4-2.6v-0.4c0-1.6-1-2.6-2.4-2.6C79.9,110.8,78.9,111.8,78.9,113.6z"/>
	</g>
</g>
<g>
	<path class="st1" d="M90.4,144.6h-1v2.1h-0.9v-2.1h-1v-0.8h2.8V144.6z M94.3,146.7h-0.9v-1.2l-0.7,1.2h-0.4l-0.7-1.2v1.2h-0.9v-2.9
		h0.7l1,1.8l1-1.8h0.7V146.7z"/>
</g>
</svg>
