<?xml version="1.0" encoding="utf-8"?>
<!-- Generator: Adobe Illustrator 16.0.0, SVG Export Plug-In . SVG Version: 6.00 Build 0)  -->
<!DOCTYPE svg PUBLIC "-//W3C//DTD SVG 1.1//EN" "http://www.w3.org/Graphics/SVG/1.1/DTD/svg11.dtd">
<svg version="1.1" id="Layer_1" xmlns="http://www.w3.org/2000/svg" xmlns:xlink="http://www.w3.org/1999/xlink" x="0px" y="0px"
	 width="80px" height="64.876px" viewBox="0 0 80 64.876" enable-background="new 0 0 80 64.876" xml:space="preserve">
<g>
	<defs>
		<rect id="SVGID_1_" y="0" width="80" height="64.876"/>
	</defs>
	<clipPath id="SVGID_2_">
		<use xlink:href="#SVGID_1_"  overflow="visible"/>
	</clipPath>
	<path clip-path="url(#SVGID_2_)" fill="#BF14DE" d="M46.886,35.464c0.553,0,1-0.447,1-1v-2.63c0-0.553-0.447-1-1-1
		c-0.552,0-1,0.447-1,1v2.63C45.886,35.017,46.333,35.464,46.886,35.464"/>
	<path clip-path="url(#SVGID_2_)" fill="#BF14DE" d="M40.153,35.464c0.552,0,1-0.447,1-1v-2.63c0-0.553-0.448-1-1-1
		c-0.552,0-1,0.447-1,1v2.63C39.153,35.017,39.601,35.464,40.153,35.464"/>
	<path clip-path="url(#SVGID_2_)" fill="#BF14DE" d="M46.886,42.938c0.553,0,1-0.446,1-1v-2.63c0-0.553-0.447-1-1-1
		c-0.552,0-1,0.447-1,1v2.63C45.886,42.492,46.333,42.938,46.886,42.938"/>
	<path clip-path="url(#SVGID_2_)" fill="#BF14DE" d="M40.153,42.938c0.552,0,1-0.446,1-1v-2.63c0-0.553-0.448-1-1-1
		c-0.552,0-1,0.447-1,1v2.63C39.153,42.492,39.601,42.938,40.153,42.938"/>
	<path clip-path="url(#SVGID_2_)" fill="#BF14DE" d="M33.114,35.464c0.552,0,1-0.447,1-1v-2.63c0-0.553-0.448-1-1-1
		c-0.552,0-1,0.447-1,1v2.63C32.114,35.017,32.562,35.464,33.114,35.464"/>
	<path clip-path="url(#SVGID_2_)" fill="#BF14DE" d="M33.114,42.938c0.552,0,1-0.446,1-1v-2.63c0-0.553-0.448-1-1-1
		c-0.552,0-1,0.447-1,1v2.63C32.114,42.492,32.562,42.938,33.114,42.938"/>
	<path clip-path="url(#SVGID_2_)" fill="#BF14DE" d="M46.886,20.516c0.553,0,1-0.447,1-1v-2.63c0-0.553-0.447-1-1-1
		c-0.552,0-1,0.447-1,1v2.63C45.886,20.068,46.333,20.516,46.886,20.516"/>
	<path clip-path="url(#SVGID_2_)" fill="#BF14DE" d="M40.153,20.516c0.552,0,1-0.447,1-1v-2.63c0-0.553-0.448-1-1-1
		c-0.552,0-1,0.447-1,1v2.63C39.153,20.068,39.601,20.516,40.153,20.516"/>
	<path clip-path="url(#SVGID_2_)" fill="#BF14DE" d="M33.114,20.516c0.552,0,1-0.447,1-1v-2.63c0-0.553-0.448-1-1-1
		c-0.552,0-1,0.447-1,1v2.63C32.114,20.068,32.562,20.516,33.114,20.516"/>
	<path clip-path="url(#SVGID_2_)" fill="#BF14DE" d="M46.886,27.989c0.553,0,1-0.447,1-1v-2.63c0-0.553-0.447-1-1-1
		c-0.552,0-1,0.447-1,1v2.63C45.886,27.542,46.333,27.989,46.886,27.989"/>
	<path clip-path="url(#SVGID_2_)" fill="#BF14DE" d="M40.153,27.989c0.552,0,1-0.447,1-1v-2.63c0-0.553-0.448-1-1-1
		c-0.552,0-1,0.447-1,1v2.63C39.153,27.542,39.601,27.989,40.153,27.989"/>
	<path clip-path="url(#SVGID_2_)" fill="#BF14DE" d="M33.114,27.989c0.552,0,1-0.447,1-1v-2.63c0-0.553-0.448-1-1-1
		c-0.552,0-1,0.447-1,1v2.63C32.114,27.542,32.562,27.989,33.114,27.989"/>
	<path clip-path="url(#SVGID_2_)" fill="#BF14DE" d="M1,64.876h78c0.552,0,1-0.447,1-1s-0.448-1-1-1h-9.788v-5.67
		C71.928,56.73,74,54.362,74,51.511c0-2.189-1.223-4.1-3.022-5.083c1.8-0.982,3.022-2.892,3.022-5.082
		c0-3.191-2.597-5.789-5.788-5.789c-3.19,0-5.788,2.598-5.788,5.789c0,2.19,1.224,4.101,3.022,5.083
		c-1.799,0.983-3.022,2.894-3.022,5.083c0,2.851,2.072,5.221,4.788,5.696v5.668H56.833V1c0-0.346-0.178-0.666-0.471-0.849
		c-0.292-0.183-0.66-0.201-0.97-0.049c-0.105,0.052-10.877,5.273-31.438,9.745c-0.46,0.101-0.788,0.507-0.788,0.978v52.051H12.788
		v-5.67c2.716-0.477,4.788-2.846,4.788-5.696c0-2.189-1.223-4.1-3.022-5.083c1.799-0.982,3.022-2.893,3.022-5.083
		c0-3.191-2.597-5.789-5.788-5.789S6,38.154,6,41.346c0,2.19,1.223,4.101,3.022,5.083C7.223,47.412,6,49.322,6,51.511
		c0,2.851,2.072,5.221,4.788,5.696v5.669H1c-0.552,0-1,0.447-1,1S0.448,64.876,1,64.876 M68.212,37.557
		c2.089,0,3.788,1.7,3.788,3.789s-1.699,3.788-3.788,3.788s-3.788-1.699-3.788-3.788S66.123,37.557,68.212,37.557 M64.424,51.511
		c0-2.089,1.699-3.788,3.788-3.788S72,49.422,72,51.511s-1.699,3.788-3.788,3.788S64.424,53.6,64.424,51.511 M11.788,37.557
		c2.089,0,3.788,1.7,3.788,3.789s-1.699,3.788-3.788,3.788S8,43.435,8,41.346S9.699,37.557,11.788,37.557 M8,51.511
		c0-2.089,1.699-3.788,3.788-3.788s3.788,1.699,3.788,3.788s-1.699,3.788-3.788,3.788S8,53.6,8,51.511 M45.835,62.876h-11.67v-10.09
		h11.67V62.876z M25.167,11.63C41.415,8.04,51.314,4.093,54.834,2.556v60.32h-6.999v-11.09c0-0.553-0.448-1-1-1h-13.67
		c-0.552,0-1,0.447-1,1v11.09h-6.999L25.167,11.63L25.167,11.63z"/>
</g>
</svg>
