<?xml version="1.0" encoding="utf-8"?>
<!-- Generator: Adobe Illustrator 16.0.0, SVG Export Plug-In . SVG Version: 6.00 Build 0)  -->
<!DOCTYPE svg PUBLIC "-//W3C//DTD SVG 1.1//EN" "http://www.w3.org/Graphics/SVG/1.1/DTD/svg11.dtd">
<svg version="1.1" id="Layer_1" xmlns="http://www.w3.org/2000/svg" xmlns:xlink="http://www.w3.org/1999/xlink" x="0px" y="0px"
	 width="96.642px" height="96.667px" viewBox="0 0 96.642 96.667" enable-background="new 0 0 96.642 96.667" xml:space="preserve">
<g>
	<defs>
		<rect id="SVGID_1_" width="96.642" height="96.667"/>
	</defs>
	<clipPath id="SVGID_2_">
		<use xlink:href="#SVGID_1_"  overflow="visible"/>
	</clipPath>
	<path clip-path="url(#SVGID_2_)" fill="#04B5C0" d="M29.484,78.571l0.367,0.224c3.108,1.89,6.467,3.285,9.984,4.143l0.418,0.1
		l1.91,12.573c0.094,0.612,0.609,1.058,1.229,1.058h9.856c0.617,0,1.134-0.446,1.228-1.058l1.911-12.573l0.417-0.1
		c3.517-0.857,6.878-2.253,9.986-4.143l0.368-0.224l10.234,7.541c0.502,0.367,1.182,0.316,1.617-0.122l6.979-6.979
		c0.437-0.439,0.488-1.117,0.121-1.613L78.568,67.16l0.226-0.368c1.886-3.107,3.275-6.469,4.141-9.988l0.101-0.418l12.551-1.906
		c0.611-0.094,1.056-0.611,1.056-1.229v-9.858c0-0.619-0.444-1.135-1.056-1.228l-12.569-1.908l-0.102-0.42
		c-0.842-3.508-2.226-6.86-4.118-9.961l-0.226-0.367l7.537-10.26c0.367-0.499,0.316-1.179-0.119-1.616l-6.978-6.979
		c-0.431-0.431-1.13-0.483-1.618-0.121l-10.231,7.561l-0.368-0.225c-3.071-1.878-6.432-3.27-9.989-4.137l-0.417-0.102L54.477,1.058
		C54.383,0.445,53.866,0,53.249,0h-9.856c-0.62,0-1.136,0.445-1.229,1.057l-1.91,12.572l-0.418,0.102
		c-3.509,0.858-6.868,2.25-9.981,4.139l-0.369,0.224l-10.236-7.562c-0.498-0.371-1.177-0.318-1.619,0.121l-6.978,6.979
		c-0.437,0.439-0.49,1.119-0.124,1.616l7.544,10.262l-0.224,0.366c-1.896,3.119-3.283,6.47-4.122,9.959l-0.101,0.42L1.058,42.163
		C0.445,42.256,0,42.772,0,43.391v9.858c0,0.619,0.445,1.136,1.057,1.229l12.568,1.905l0.101,0.42
		c0.845,3.535,2.231,6.896,4.12,9.987l0.226,0.369l-7.54,10.233c-0.364,0.492-0.311,1.187,0.121,1.616l6.979,6.979
		c0.436,0.438,1.116,0.486,1.62,0.122L29.484,78.571z M52.18,94.18h-7.719l-1.878-12.362c-0.078-0.512-0.47-0.927-0.978-1.032
		c-4.104-0.846-7.969-2.449-11.486-4.765c-0.441-0.286-0.998-0.271-1.421,0.04l-10.066,7.414l-5.466-5.467l7.415-10.064
		c0.309-0.418,0.324-0.991,0.037-1.425c-2.317-3.499-3.91-7.36-4.735-11.479c-0.102-0.508-0.515-0.905-1.031-0.982L2.486,52.181
		v-7.721l12.364-1.877c0.515-0.078,0.929-0.472,1.032-0.983c0.82-4.066,2.414-7.92,4.739-11.456c0.283-0.432,0.267-1.002-0.04-1.419
		l-7.417-10.09l5.466-5.467l10.068,7.438c0.423,0.314,0.981,0.328,1.42,0.038c3.52-2.313,7.385-3.916,11.486-4.762
		c0.508-0.104,0.899-0.519,0.978-1.031l1.878-12.363h7.719l1.877,12.363c0.079,0.512,0.47,0.926,0.979,1.031
		c4.155,0.859,8.021,2.46,11.482,4.76c0.436,0.288,1.009,0.273,1.427-0.036l10.064-7.438l5.467,5.467l-7.416,10.09
		c-0.306,0.419-0.321,0.991-0.033,1.424c2.317,3.506,3.91,7.36,4.729,11.45c0.102,0.512,0.517,0.906,1.033,0.984l12.366,1.877v7.721
		l-12.34,1.877c-0.51,0.077-0.925,0.469-1.029,0.975c-0.856,4.115-2.459,7.979-4.764,11.49c-0.286,0.432-0.269,1.003,0.037,1.417
		l7.413,10.068l-5.463,5.467L67.945,76.06c-0.418-0.306-0.99-0.323-1.422-0.039c-3.521,2.316-7.389,3.921-11.488,4.765
		c-0.509,0.105-0.899,0.521-0.979,1.032L52.18,94.18z"/>
	<path clip-path="url(#SVGID_2_)" fill="#04B5C0" d="M47.187,27.985l2.077,0.107c10.784,0.556,19.233,9.444,19.233,20.234
		c0,3.986-1.156,7.845-3.342,11.156c-0.159,0.245-0.216,0.533-0.158,0.818c0.059,0.283,0.225,0.529,0.468,0.688
		c0.238,0.159,0.532,0.214,0.815,0.157c0.286-0.06,0.531-0.225,0.686-0.465c2.422-3.673,3.702-7.944,3.702-12.355
		c0-11.754-9.192-21.584-20.93-22.379l-1.754-0.12l4.435-4.434c0.205-0.203,0.319-0.477,0.319-0.768c0-0.29-0.114-0.563-0.32-0.769
		c-0.422-0.423-1.111-0.423-1.532,0.001l-6.684,6.68c-0.204,0.205-0.317,0.477-0.317,0.767s0.113,0.563,0.317,0.768l6.684,6.682
		c0.421,0.423,1.108,0.423,1.533,0c0.205-0.204,0.319-0.477,0.319-0.768s-0.114-0.563-0.319-0.768L47.187,27.985z"/>
	<path clip-path="url(#SVGID_2_)" fill="#04B5C0" d="M32.345,32.902l-0.059,0.001c-0.287,0.014-0.55,0.14-0.743,0.353
		c-3.745,4.135-5.809,9.487-5.809,15.07c0,12.185,9.928,22.249,22.131,22.435l1.891,0.032l-4.268,4.267
		c-0.205,0.205-0.316,0.477-0.316,0.768c0,0.289,0.111,0.563,0.316,0.765c0.203,0.206,0.476,0.317,0.766,0.317
		c0.291,0,0.564-0.112,0.769-0.317l6.683-6.68c0.203-0.205,0.318-0.479,0.318-0.769c0-0.286-0.115-0.561-0.318-0.768l-6.683-6.678
		c-0.424-0.424-1.111-0.424-1.534,0c-0.205,0.203-0.316,0.478-0.316,0.768s0.111,0.563,0.316,0.765l5.274,5.274l-2.079,0.086
		c-0.153,0.012-0.311,0.019-0.469,0.019c-11.199,0-20.308-9.1-20.308-20.284c0-5.042,1.863-9.876,5.244-13.609
		c0.401-0.443,0.367-1.131-0.075-1.534C32.874,33.001,32.615,32.902,32.345,32.902"/>
</g>
</svg>
