<?xml version="1.0" encoding="utf-8"?>
<!-- Generator: Adobe Illustrator 16.0.0, SVG Export Plug-In . SVG Version: 6.00 Build 0)  -->
<!DOCTYPE svg PUBLIC "-//W3C//DTD SVG 1.1//EN" "http://www.w3.org/Graphics/SVG/1.1/DTD/svg11.dtd">
<svg version="1.1" id="Layer_1" xmlns="http://www.w3.org/2000/svg" xmlns:xlink="http://www.w3.org/1999/xlink" x="0px" y="0px"
	 width="64.555px" height="45.808px" viewBox="0 0 64.555 45.808" enable-background="new 0 0 64.555 45.808" xml:space="preserve">
<g>
	<defs>
		<rect id="SVGID_1_" width="64.555" height="45.808"/>
	</defs>
	<clipPath id="SVGID_2_">
		<use xlink:href="#SVGID_1_"  overflow="visible"/>
	</clipPath>
	<path clip-path="url(#SVGID_2_)" fill="#F58220" d="M0,0.137h15.848c9.381,0,15.332,5.37,15.332,14.296
		c0,8.863-5.95,14.231-15.332,14.231H9.057v17.143H0V0.137z M15.266,20.514c4.01,0,6.597-2.198,6.597-6.145
		s-2.586-6.081-6.597-6.081H9.057v12.225H15.266z"/>
	<path clip-path="url(#SVGID_2_)" fill="#949494" d="M36.496,22.103c5.957-7.604,9.778-11.387,9.778-15.058
		c0-1.799-0.824-2.849-2.211-2.849c-1.572,0-2.286,1.237-2.286,3.26v0.562h-5.17V7.306C36.607,3.185,39.456,0,44.139,0
		c4.121,0,7.379,2.66,7.379,7.12c0,4.718-3.82,9.103-8.727,14.797h8.766v4.721H36.496V22.103z"/>
	<path clip-path="url(#SVGID_2_)" fill="#949494" d="M59.235,6.407L53.242,7.68l-0.563-3.333c1.799-0.675,6.295-2.585,6.819-4.158
		h5.06v26.449h-5.322V6.407z"/>
</g>
</svg>
