<?xml version="1.0" encoding="utf-8"?>
<!-- Generator: Adobe Illustrator 16.0.0, SVG Export Plug-In . SVG Version: 6.00 Build 0)  -->
<!DOCTYPE svg PUBLIC "-//W3C//DTD SVG 1.1//EN" "http://www.w3.org/Graphics/SVG/1.1/DTD/svg11.dtd">
<svg version="1.1" id="Layer_1" xmlns="http://www.w3.org/2000/svg" xmlns:xlink="http://www.w3.org/1999/xlink" x="0px" y="0px"
	 width="134px" height="114.98px" viewBox="0 0 134 114.98" enable-background="new 0 0 134 114.98" xml:space="preserve">
<g>
	<defs>
		<rect id="SVGID_1_" width="134" height="114.98"/>
	</defs>
	<clipPath id="SVGID_2_">
		<use xlink:href="#SVGID_1_"  overflow="visible"/>
	</clipPath>
	<path clip-path="url(#SVGID_2_)" fill="#E2E2E2" d="M66.968,29.393h0.031c1.264,0,2.297-1.017,2.316-2.343V15.65
		c0.05-1.276-0.945-2.354-2.219-2.403c-0.129-0.006-0.259-0.002-0.386,0.016c-1.203,0.15-2.072,1.177-2.025,2.372v11.411
		c-0.009,0.619,0.222,1.204,0.653,1.646C65.771,29.136,66.35,29.384,66.968,29.393"/>
	<path clip-path="url(#SVGID_2_)" fill="#E2E2E2" d="M106.743,69.33c0.07,0,0.14-0.002,0.21-0.009h11.407
		c1.312,0.045,2.331-1.007,2.35-2.285c0.017-1.28-1.011-2.331-2.342-2.347l-11.375,0.001c-0.147-0.014-0.289-0.014-0.436,0
		c-0.618,0.058-1.177,0.353-1.574,0.829c-0.395,0.479-0.58,1.083-0.524,1.702C104.573,68.425,105.589,69.33,106.743,69.33"/>
	<path clip-path="url(#SVGID_2_)" fill="#E2E2E2" d="M15.424,69.33c0.07,0,0.14-0.002,0.21-0.009h11.41h0.032
		c1.261,0,2.298-1.019,2.314-2.285c0.019-1.28-1.009-2.331-2.34-2.347L15.674,64.69c-0.146-0.014-0.291-0.014-0.437,0
		c-1.275,0.12-2.215,1.255-2.095,2.531C13.254,68.425,14.272,69.33,15.424,69.33"/>
	<path clip-path="url(#SVGID_2_)" fill="#E2E2E2" d="M66.999,0C30.057,0,0,30.059,0,67.006c0,17.785,6.989,34.567,19.674,47.254
		c0.829,0.867,2.169,0.961,3.109,0.217l16.477-12.814h55.48l16.472,12.813c0.43,0.338,0.937,0.503,1.441,0.503
		c0.609,0,1.214-0.239,1.665-0.711C127.012,101.571,134,84.789,134,67.006C134,30.059,103.946,0,66.999,0 M66.999,4.632
		c34.391,0,62.368,27.981,62.368,62.374c0,15.653-6.051,30.706-17.049,42.427L96.97,97.465c-0.396-0.282-0.874-0.436-1.349-0.436
		c-0.027,0-0.054,0-0.084,0.001H38.479c-0.513-0.021-1.03,0.135-1.459,0.444l-15.34,11.958C10.682,97.71,4.632,82.658,4.632,67.006
		C4.632,32.613,32.609,4.632,66.999,4.632"/>
	<path clip-path="url(#SVGID_2_)" fill="#E2E2E2" d="M36.799,40.063c0.433,0.444,1.014,0.695,1.637,0.704h0.031
		c0.609,0,1.186-0.234,1.622-0.66c0.92-0.895,0.939-2.37,0.034-3.302l-7.599-7.599c-0.498-0.534-1.23-0.809-1.951-0.724
		c-0.615,0.061-1.171,0.357-1.562,0.833c-0.393,0.479-0.577,1.082-0.518,1.697c0.054,0.552,0.303,1.067,0.699,1.444L36.799,40.063z"
		/>
	<path clip-path="url(#SVGID_2_)" fill="#E2E2E2" d="M66.999,80.735c7.391,0,12.504-5.632,13.59-10.96l20.713-33.95
		c0.658-1.093,0.303-2.52-0.791-3.178c-0.482-0.288-1.054-0.393-1.596-0.296c-0.285,0.049-0.552,0.146-0.797,0.293L63.925,53.539
		c-6.279,1.688-10.655,7.217-10.655,13.464C53.27,74.577,59.43,80.735,66.999,80.735 M66.999,76.106
		c-5.015,0-9.098-4.085-9.098-9.103c0-4.347,3.239-8.204,7.7-9.166c0.257-0.055,0.498-0.153,0.724-0.291l26.061-15.93L76.468,67.664
		c-0.18,0.261-0.303,0.556-0.362,0.88C75.618,71.635,72.096,76.106,66.999,76.106"/>
</g>
</svg>
