<?xml version="1.0" encoding="utf-8"?>
<!-- Generator: Adobe Illustrator 16.0.0, SVG Export Plug-In . SVG Version: 6.00 Build 0)  -->
<!DOCTYPE svg PUBLIC "-//W3C//DTD SVG 1.1//EN" "http://www.w3.org/Graphics/SVG/1.1/DTD/svg11.dtd">
<svg version="1.1" id="Layer_1" xmlns="http://www.w3.org/2000/svg" xmlns:xlink="http://www.w3.org/1999/xlink" x="0px" y="0px"
	 width="67.058px" height="66.677px" viewBox="0 0 67.058 66.677" enable-background="new 0 0 67.058 66.677" xml:space="preserve">
<rect x="9.996" y="41.518" transform="matrix(-0.7071 0.7071 -0.7071 -0.7071 71.1813 55.7999)" fill="#BF14DE" width="28.075" height="2.249"/>
<g>
	<defs>
		<rect id="SVGID_1_" y="0" width="67.058" height="66.677"/>
	</defs>
	<clipPath id="SVGID_2_">
		<use xlink:href="#SVGID_1_"  overflow="visible"/>
	</clipPath>
	<path clip-path="url(#SVGID_2_)" fill="#BF14DE" d="M28.134,50.776c-1.787,3.101-2.918,5.887-3.362,8.285
		c-0.597,3.226,0.027,5.788,1.855,7.616l1.59-1.59c-3.002-3.003-0.65-8.815,1.852-13.162c2.874-4.993,6.628-9.244,6.666-9.286
		l-1.682-1.494C34.895,41.324,31.125,45.589,28.134,50.776"/>
	<path clip-path="url(#SVGID_2_)" fill="#BF14DE" d="M25.532,31.625l-1.494-1.682c-0.042,0.037-4.293,3.792-9.287,6.666
		c-4.346,2.501-10.157,4.853-13.16,1.85L0,40.049c1.38,1.382,3.178,2.075,5.366,2.075c0.709,0,1.46-0.073,2.25-0.22
		c2.398-0.444,5.185-1.575,8.285-3.362C21.089,35.553,25.354,31.784,25.532,31.625"/>
	<path clip-path="url(#SVGID_2_)" fill="#BF14DE" d="M66.205,1.552l-0.179-0.534l-0.533-0.178C65.39,0.806,62.93,0,59.518,0
		c-4.257,0-8.146,1.273-11.25,3.681c-2.702,2.096-5.895,4.963-8.983,7.876c-1.697-1.55-3.885-3.041-6.579-3.041
		c-2.503,0-4.996,1.276-7.621,3.901l-2.641,2.641l8.144,8.144l0.014-0.014l13.253,13.253l-0.014,0.014l8.146,8.146l2.642-2.64
		c2.911-2.911,4.175-5.667,3.864-8.428c-0.264-2.347-1.684-4.322-3.003-5.772c2.911-3.088,5.778-6.281,7.875-8.984
		C69.296,11.131,66.335,1.939,66.205,1.552 M30.602,20.033l-4.976-4.975l1.05-1.05c2.182-2.181,4.154-3.241,6.03-3.241
		c1.575,0,3.128,0.732,4.94,2.347C35.007,15.643,32.529,18.107,30.602,20.033 M56.257,33.784c0.228,2.036-0.824,4.19-3.219,6.585
		l-1.052,1.05l-4.974-4.975c1.924-1.928,4.389-4.405,6.92-7.045C55.355,30.998,56.102,32.409,56.257,33.784 M53.914,26.151
		l-0.024-0.025l-8.466,8.701l-5.808-5.808l7.572-7.573l-1.59-1.591l-7.574,7.573l-5.806-5.806l8.721-8.445l-0.047-0.047
		c3.024-2.849,6.134-5.64,8.754-7.672c2.744-2.129,6.065-3.208,9.871-3.208c2.131,0,3.862,0.356,4.706,0.568
		c0.496,1.988,1.771,8.898-2.637,14.58C59.554,20.019,56.763,23.128,53.914,26.151"/>
	<path clip-path="url(#SVGID_2_)" fill="#BF14DE" d="M53.152,8.671c-2.879,0-5.222,2.342-5.222,5.221
		c0,2.88,2.343,5.222,5.223,5.222c2.879,0,5.221-2.342,5.222-5.222C58.375,11.013,56.032,8.671,53.152,8.671 M53.153,16.864
		c-1.64,0-2.973-1.333-2.973-2.972c0-1.638,1.333-2.971,2.972-2.971s2.973,1.333,2.973,2.971
		C56.124,15.531,54.791,16.864,53.153,16.864"/>
</g>
</svg>
