<?xml version="1.0" encoding="utf-8"?>
<!-- Generator: Adobe Illustrator 16.0.0, SVG Export Plug-In . SVG Version: 6.00 Build 0)  -->
<!DOCTYPE svg PUBLIC "-//W3C//DTD SVG 1.1//EN" "http://www.w3.org/Graphics/SVG/1.1/DTD/svg11.dtd">
<svg version="1.1" id="Layer_1" xmlns="http://www.w3.org/2000/svg" xmlns:xlink="http://www.w3.org/1999/xlink" x="0px" y="0px"
	 width="96.166px" height="96.166px" viewBox="0 0 96.166 96.166" enable-background="new 0 0 96.166 96.166" xml:space="preserve">
<g>
	<defs>
		<rect id="SVGID_1_" width="96.166" height="96.166"/>
	</defs>
	<clipPath id="SVGID_2_">
		<use xlink:href="#SVGID_1_"  overflow="visible"/>
	</clipPath>
	<path clip-path="url(#SVGID_2_)" fill="#04B5C0" d="M64.698,33.091c0.185-0.463,0.076-0.991-0.278-1.346
		c-0.352-0.353-0.882-0.462-1.346-0.275L40.997,40.3c-0.319,0.127-0.569,0.379-0.696,0.697l-8.832,22.076
		c-0.186,0.464-0.078,0.993,0.277,1.347c0.353,0.354,0.883,0.463,1.346,0.278l22.078-8.831c0.317-0.128,0.57-0.38,0.696-0.697
		L64.698,33.091z M34.871,61.296L42.42,42.42l18.875-7.55l-7.549,18.875L34.871,61.296z"/>
	<path clip-path="url(#SVGID_2_)" fill="#04B5C0" d="M49.408,49.408c-0.73,0.73-1.918,0.73-2.648,0
		c-0.731-0.731-0.731-1.919,0-2.649c0.73-0.731,1.918-0.731,2.648,0C50.138,47.489,50.138,48.677,49.408,49.408"/>
	<path clip-path="url(#SVGID_2_)" fill="#04B5C0" d="M82.083,14.083c-0.03-0.031-0.075-0.043-0.107-0.07
		C73.276,5.357,61.294,0,48.083,0C34.872,0,22.892,5.357,14.192,14.012c-0.035,0.027-0.077,0.04-0.109,0.07
		c-0.031,0.033-0.043,0.074-0.07,0.109C5.357,22.892,0,34.872,0,48.083s5.357,25.193,14.012,33.892
		c0.027,0.033,0.04,0.077,0.07,0.107c0.033,0.033,0.074,0.044,0.109,0.072c8.7,8.653,20.68,14.011,33.892,14.011
		c13.211,0,25.192-5.357,33.893-14.011c0.032-0.028,0.077-0.039,0.107-0.072c0.032-0.03,0.044-0.074,0.072-0.107
		c8.652-8.699,14.01-20.681,14.01-33.892s-5.357-25.192-14.01-33.892C82.127,14.156,82.116,14.115,82.083,14.083 M88.673,49.332
		h4.963c-0.313,11.627-4.997,22.173-12.472,30.065L77.667,75.9c-0.486-0.487-1.277-0.487-1.764,0c-0.489,0.488-0.489,1.28,0,1.766
		l3.493,3.498c-7.892,7.475-18.438,12.159-30.064,12.472v-4.962c0-0.69-0.559-1.25-1.249-1.25s-1.249,0.56-1.249,1.25v4.962
		c-11.626-0.313-22.174-4.997-30.066-12.472l3.497-3.498c0.487-0.485,0.487-1.277,0-1.766c-0.489-0.487-1.279-0.487-1.766,0
		l-3.496,3.497C7.528,71.505,2.845,60.959,2.529,49.332h4.965c0.69,0,1.248-0.56,1.248-1.249c0-0.689-0.558-1.25-1.248-1.25H2.529
		c0.316-11.626,5-22.174,12.474-30.066l3.496,3.497c0.243,0.243,0.563,0.366,0.883,0.366c0.319,0,0.639-0.124,0.883-0.366
		c0.487-0.487,0.487-1.278,0-1.766l-3.497-3.496C24.66,7.528,35.208,2.845,46.834,2.529v4.965c0,0.688,0.559,1.248,1.249,1.248
		s1.249-0.56,1.249-1.248V2.529c11.626,0.316,22.173,5,30.064,12.474l-3.493,3.496c-0.489,0.488-0.489,1.279,0,1.766
		c0.242,0.243,0.563,0.366,0.881,0.366c0.32,0,0.64-0.124,0.883-0.366l3.497-3.497c7.475,7.892,12.159,18.44,12.472,30.066h-4.963
		c-0.69,0-1.25,0.56-1.25,1.25C87.423,48.772,87.983,49.332,88.673,49.332"/>
</g>
</svg>
