<?xml version="1.0" encoding="utf-8"?>
<!-- Generator: Adobe Illustrator 16.0.0, SVG Export Plug-In . SVG Version: 6.00 Build 0)  -->
<!DOCTYPE svg PUBLIC "-//W3C//DTD SVG 1.1//EN" "http://www.w3.org/Graphics/SVG/1.1/DTD/svg11.dtd">
<svg version="1.1" id="Layer_1" xmlns="http://www.w3.org/2000/svg" xmlns:xlink="http://www.w3.org/1999/xlink" x="0px" y="0px"
	 width="31.167px" height="31.175px" viewBox="0 0 31.167 31.175" enable-background="new 0 0 31.167 31.175" xml:space="preserve">
<g>
	<defs>
		<rect id="SVGID_1_" width="31.167" height="31.175"/>
	</defs>
	<clipPath id="SVGID_2_">
		<use xlink:href="#SVGID_1_"  overflow="visible"/>
	</clipPath>
	<path clip-path="url(#SVGID_2_)" fill="#F58220" d="M0.359,12.68c0,6.783,5.526,12.309,12.311,12.309
		c3.172,0,6.094-1.214,8.285-3.198l8.846,8.845c0.108,0.119,0.264,0.181,0.409,0.181c0.158,0,0.316-0.062,0.424-0.181
		c0.23-0.231,0.23-0.608,0-0.837l-8.843-8.842c1.987-2.194,3.2-5.102,3.2-8.276c0-6.796-5.526-12.322-12.321-12.322
		C5.886,0.358,0.359,5.884,0.359,12.68 M1.559,12.68C1.559,6.539,6.54,1.56,12.67,1.56S23.791,6.539,23.791,12.68
		c0,2.847-1.078,5.452-2.861,7.416c-0.253,0.302-0.544,0.578-0.835,0.834c-1.975,1.781-4.579,2.859-7.425,2.859
		C6.54,23.79,1.559,18.808,1.559,12.68"/>
	<path clip-path="url(#SVGID_2_)" fill="none" stroke="#F58220" stroke-width="0.5" stroke-miterlimit="10" d="M0.359,12.68
		c0,6.783,5.526,12.309,12.311,12.309c3.172,0,6.094-1.214,8.285-3.198l8.846,8.845c0.108,0.119,0.264,0.181,0.409,0.181
		c0.158,0,0.316-0.062,0.424-0.181c0.23-0.231,0.23-0.608,0-0.837l-8.843-8.842c1.987-2.194,3.2-5.102,3.2-8.276
		c0-6.796-5.526-12.322-12.321-12.322C5.886,0.358,0.359,5.884,0.359,12.68z M1.559,12.68C1.559,6.539,6.54,1.56,12.67,1.56
		S23.791,6.539,23.791,12.68c0,2.847-1.078,5.452-2.861,7.416c-0.253,0.302-0.544,0.578-0.835,0.834
		c-1.975,1.781-4.579,2.859-7.425,2.859C6.54,23.79,1.559,18.808,1.559,12.68z"/>
</g>
</svg>
