<?xml version="1.0" encoding="utf-8"?>
<!-- Generator: Adobe Illustrator 16.0.0, SVG Export Plug-In . SVG Version: 6.00 Build 0)  -->
<!DOCTYPE svg PUBLIC "-//W3C//DTD SVG 1.1//EN" "http://www.w3.org/Graphics/SVG/1.1/DTD/svg11.dtd">
<svg version="1.1" id="Layer_1" xmlns="http://www.w3.org/2000/svg" xmlns:xlink="http://www.w3.org/1999/xlink" x="0px" y="0px"
	 width="67.081px" height="57.597px" viewBox="0 0 67.081 57.597" enable-background="new 0 0 67.081 57.597" xml:space="preserve">
<g>
	<defs>
		<rect id="SVGID_1_" width="67.081" height="57.597"/>
	</defs>
	<clipPath id="SVGID_2_">
		<use xlink:href="#SVGID_1_"  overflow="visible"/>
	</clipPath>
	<path clip-path="url(#SVGID_2_)" fill="#BF14DE" d="M16.757,36.538h3.475v9.309c0,2.578,2.098,4.674,4.675,4.674h25.417l7.778,6.85
		c0.271,0.234,0.671,0.295,0.991,0.148c0.331-0.151,0.545-0.48,0.545-0.843V50.52h2.768c2.578,0,4.675-2.096,4.675-4.674V18.659
		c0.001-1.247-0.485-2.421-1.369-3.305c-0.883-0.884-2.057-1.37-3.304-1.37H46.85V4.675C46.85,2.097,44.753,0,42.175,0h-37.5
		C2.097,0,0,2.097,0,4.675v27.187c0,2.578,2.097,4.676,4.675,4.676h2.767v6.153c0,0.363,0.214,0.693,0.545,0.843
		c0.325,0.148,0.723,0.088,0.993-0.147L16.757,36.538z M57.791,54.627l-6.504-5.727c-0.169-0.147-0.387-0.229-0.611-0.229H24.909
		c-1.558,0-2.825-1.269-2.825-2.825v-9.309h20.091c2.578,0,4.675-2.098,4.675-4.676V15.833h15.559c1.558,0,2.825,1.268,2.825,2.826
		v27.187c0,1.557-1.268,2.825-2.825,2.825h-3.692c-0.51,0-0.925,0.415-0.925,0.925V54.627z M9.292,40.644v-5.032
		c0-0.51-0.415-0.925-0.925-0.925H4.675c-1.558,0-2.825-1.267-2.825-2.825V4.675c0-1.558,1.267-2.825,2.825-2.825h37.5
		C43.732,1.85,45,3.117,45,4.675v27.187c0,1.559-1.268,2.825-2.825,2.825H16.409c-0.225,0-0.443,0.082-0.612,0.23L9.292,40.644z"/>
</g>
</svg>
